999
DXF created by Inkscape
  0
SECTION
  2
HEADER
  9
$ACADVER
  1
AC1014
  9
$HANDSEED
  5
FFFF
  9
$MEASUREMENT
 70
     1
  0
ENDSEC
  0
SECTION
  2
TABLES
  0
TABLE
  2
VPORT
  5
8
330
0
100
AcDbSymbolTable
 70
     4
  0
VPORT
  5
2E
330
8
100
AcDbSymbolTableRecord
100
AcDbViewportTableRecord
  2
*ACTIVE
 70
     0
 10
0.0
 20
0.0
 11
1.0
 21
1.0
 12
210.0
 22
148.5
 13
0.0
 23
0.0
 14
10.0
 24
10.0
 15
10.0
 25
10.0
 16
0.0
 26
0.0
 36
1.0
 17
0.0
 27
0.0
 37
0.0
 40
341.0
 41
1.24
 42
50.0
 43
0.0
 44
0.0
 50
0.0
 51
0.0
 71
     0
 72
   100
 73
     1
 74
     3
 75
     0
 76
     0
 77
     0
 78
     0
  0
ENDTAB
  0
TABLE
  2
LTYPE
  5
5
330
0
100
AcDbSymbolTable
 70
     1
  0
LTYPE
  5
14
330
5
100
AcDbSymbolTableRecord
100
AcDbLinetypeTableRecord
  2
BYBLOCK
 70
     0
  3

 72
    65
 73
     0
 40
0.0
  0
LTYPE
  5
15
330
5
100
AcDbSymbolTableRecord
100
AcDbLinetypeTableRecord
  2
BYLAYER
 70
     0
  3

 72
    65
 73
     0
 40
0.0
  0
LTYPE
  5
16
330
5
100
AcDbSymbolTableRecord
100
AcDbLinetypeTableRecord
  2
CONTINUOUS
 70
     0
  3
Solid line
 72
    65
 73
     0
 40
0.0
  0
ENDTAB
  0
TABLE
  2
LAYER
  5
2
330
0
100
AcDbSymbolTable
 70
1
  0
LAYER
  5
10
330
2
100
AcDbSymbolTableRecord
100
AcDbLayerTableRecord
  2
0
 70
     0
 62
     7
  6
CONTINUOUS
  0
ENDTAB
  0
TABLE
  2
STYLE
  5
3
330
0
100
AcDbSymbolTable
 70
     1
  0
STYLE
  5
11
330
3
100
AcDbSymbolTableRecord
100
AcDbTextStyleTableRecord
  2
STANDARD
 70
     0
 40
0.0
 41
1.0
 50
0.0
 71
     0
 42
2.5
  3
txt
  4

  0
ENDTAB
  0
TABLE
  2
VIEW
  5
6
330
0
100
AcDbSymbolTable
 70
     0
  0
ENDTAB
  0
TABLE
  2
UCS
  5
7
330
0
100
AcDbSymbolTable
 70
     0
  0
ENDTAB
  0
TABLE
  2
APPID
  5
9
330
0
100
AcDbSymbolTable
 70
     2
  0
APPID
  5
12
330
9
100
AcDbSymbolTableRecord
100
AcDbRegAppTableRecord
  2
ACAD
 70
     0
  0
ENDTAB
  0
TABLE
  2
DIMSTYLE
  5
A
330
0
100
AcDbSymbolTable
 70
     1
  0
DIMSTYLE
105
27
330
A
100
AcDbSymbolTableRecord
100
AcDbDimStyleTableRecord
  2
ISO-25
 70
     0
  3

  4

  5

  6

  7

 40
1.0
 41
2.5
 42
0.625
 43
3.75
 44
1.25
 45
0.0
 46
0.0
 47
0.0
 48
0.0
140
2.5
141
2.5
142
0.0
143
0.03937007874016
144
1.0
145
0.0
146
1.0
147
0.625
 71
     0
 72
     0
 73
     0
 74
     0
 75
     0
 76
     0
 77
     1
 78
     8
170
     0
171
     3
172
     1
173
     0
174
     0
175
     0
176
     0
177
     0
178
     0
270
     2
271
     2
272
     2
273
     2
274
     3
340
11
275
     0
280
     0
281
     0
282
     0
283
     0
284
     8
285
     0
286
     0
287
     3
288
     0
  0
ENDTAB
  0
TABLE
  2
BLOCK_RECORD
  5
1
330
0
100
AcDbSymbolTable
 70
     1
  0
BLOCK_RECORD
  5
1F
330
1
100
AcDbSymbolTableRecord
100
AcDbBlockTableRecord
  2
*MODEL_SPACE
  0
BLOCK_RECORD
  5
1B
330
1
100
AcDbSymbolTableRecord
100
AcDbBlockTableRecord
  2
*PAPER_SPACE
  0
ENDTAB
  0
ENDSEC
  0
SECTION
  2
BLOCKS
  0
BLOCK
  5
20
330
1F
100
AcDbEntity
  8
0
100
AcDbBlockBegin
  2
*MODEL_SPACE
 70
     0
 10
0.0
 20
0.0
 30
0.0
  3
*MODEL_SPACE
  1

  0
ENDBLK
  5
21
330
1F
100
AcDbEntity
  8
0
100
AcDbBlockEnd
  0
BLOCK
  5
1C
330
1B
100
AcDbEntity
 67
     1
  8
0
100
AcDbBlockBegin
  2
*PAPER_SPACE
  1

  0
ENDBLK
  5
1D
330
1B
100
AcDbEntity
 67
     1
  8
0
100
AcDbBlockEnd
  0
ENDSEC
  0
SECTION
  2
ENTITIES
  0
SPLINE
  5
100
100
AcDbEntity
  8
0
 62
7
100
AcDbSpline
 70
8
 71
3
 72
8
 73
4
 74
0
 40
0
 40
0
 40
0
 40
0
 40
1
 40
1
 40
1
 40
1
 10
30.835600
 20
293.469118
 30
0.0
 10
30.835600
 20
293.469118
 30
0.0
 10
37.483344
 20
284.058136
 30
0.0
 10
39.757491
 20
279.815771
 30
0.0
  0
SPLINE
  5
101
100
AcDbEntity
  8
0
 62
7
100
AcDbSpline
 70
8
 71
3
 72
8
 73
4
 74
0
 40
0
 40
0
 40
0
 40
0
 40
1
 40
1
 40
1
 40
1
 10
39.757491
 20
279.815771
 30
0.0
 10
42.217058
 20
275.227684
 30
0.0
 10
47.467238
 20
261.746776
 30
0.0
 10
47.313427
 20
255.000536
 30
0.0
  0
SPLINE
  5
102
100
AcDbEntity
  8
0
 62
7
100
AcDbSpline
 70
8
 71
3
 72
8
 73
4
 74
0
 40
0
 40
0
 40
0
 40
0
 40
1
 40
1
 40
1
 40
1
 10
47.313427
 20
255.000536
 30
0.0
 10
47.430831
 20
254.589902
 30
0.0
 10
47.430831
 20
254.355376
 30
0.0
 10
47.665358
 20
254.355376
 30
0.0
  0
SPLINE
  5
103
100
AcDbEntity
  8
0
 62
7
100
AcDbSpline
 70
8
 71
3
 72
8
 73
4
 74
0
 40
0
 40
0
 40
0
 40
0
 40
1
 40
1
 40
1
 40
1
 10
47.665358
 20
254.355376
 30
0.0
 10
47.899884
 20
254.355376
 30
0.0
 10
47.899884
 20
254.062147
 30
0.0
 10
47.899884
 20
254.766009
 30
0.0
  0
SPLINE
  5
104
100
AcDbEntity
  8
0
 62
7
100
AcDbSpline
 70
8
 71
3
 72
8
 73
4
 74
0
 40
0
 40
0
 40
0
 40
0
 40
1
 40
1
 40
1
 40
1
 10
47.899884
 20
254.766009
 30
0.0
 10
47.899884
 20
255.469871
 30
0.0
 10
47.718980
 20
258.869520
 30
0.0
 10
46.551144
 20
262.975571
 30
0.0
  0
SPLINE
  5
105
100
AcDbEntity
  8
0
 62
7
100
AcDbSpline
 70
8
 71
3
 72
8
 73
4
 74
0
 40
0
 40
0
 40
0
 40
0
 40
1
 40
1
 40
1
 40
1
 10
46.551144
 20
262.975571
 30
0.0
 10
44.156207
 20
271.396236
 30
0.0
 10
41.412724
 20
277.261660
 30
0.0
 10
40.466716
 20
279.082558
 30
0.0
  0
SPLINE
  5
106
100
AcDbEntity
  8
0
 62
7
100
AcDbSpline
 70
8
 71
3
 72
8
 73
4
 74
0
 40
0
 40
0
 40
0
 40
0
 40
1
 40
1
 40
1
 40
1
 10
40.466716
 20
279.082558
 30
0.0
 10
39.856833
 20
280.256602
 30
0.0
 10
36.280796
 20
287.265591
 30
0.0
 10
30.835600
 20
293.469118
 30
0.0
  0
SPLINE
  5
107
100
AcDbEntity
  8
0
 62
7
100
AcDbSpline
 70
8
 71
3
 72
8
 73
4
 74
0
 40
0
 40
0
 40
0
 40
0
 40
1
 40
1
 40
1
 40
1
 10
47.475704
 20
254.372873
 30
0.0
 10
47.483607
 20
253.938533
 30
0.0
 10
47.504491
 20
252.588664
 30
0.0
 10
47.451716
 20
252.081511
 30
0.0
  0
SPLINE
  5
108
100
AcDbEntity
  8
0
 62
7
100
AcDbSpline
 70
8
 71
3
 72
8
 73
4
 74
0
 40
0
 40
0
 40
0
 40
0
 40
1
 40
1
 40
1
 40
1
 10
47.451716
 20
252.081511
 30
0.0
 10
47.388780
 20
251.473887
 30
0.0
 10
47.367613
 20
251.410951
 30
0.0
 10
47.577304
 20
251.389784
 30
0.0
  0
SPLINE
  5
109
100
AcDbEntity
  8
0
 62
7
100
AcDbSpline
 70
8
 71
3
 72
8
 73
4
 74
0
 40
0
 40
0
 40
0
 40
0
 40
1
 40
1
 40
1
 40
1
 10
47.577304
 20
251.389784
 30
0.0
 10
47.754822
 20
251.372004
 30
0.0
 10
48.020958
 20
252.841536
 30
0.0
 10
47.959151
 20
254.233738
 30
0.0
  0
LWPOLYLINE
  5
10a
100
AcDbEntity
  8
0
 62
7
100
AcDbPolyline
 90
2
 70
0
 10
30.835600
 20
293.469118
 30
0.0
 10
30.835600
 20
293.469118
 30
0.0
  0
SPLINE
  5
10b
100
AcDbEntity
  8
0
 62
7
100
AcDbSpline
 70
8
 71
3
 72
8
 73
4
 74
0
 40
0
 40
0
 40
0
 40
0
 40
1
 40
1
 40
1
 40
1
 10
30.835600
 20
293.469118
 30
0.0
 10
30.835600
 20
293.469118
 30
0.0
 10
29.672562
 20
294.304213
 30
0.0
 10
28.253831
 20
294.453509
 30
0.0
  0
SPLINE
  5
10c
100
AcDbEntity
  8
0
 62
7
100
AcDbSpline
 70
8
 71
3
 72
8
 73
4
 74
0
 40
0
 40
0
 40
0
 40
0
 40
1
 40
1
 40
1
 40
1
 10
31.150842
 20
293.065258
 30
0.0
 10
31.150842
 20
293.065258
 30
0.0
 10
29.007647
 20
294.026789
 30
0.0
 10
27.745549
 20
294.026789
 30
0.0
  0
SPLINE
  5
10d
100
AcDbEntity
  8
0
 62
7
100
AcDbSpline
 70
8
 71
3
 72
8
 73
4
 74
0
 40
0
 40
0
 40
0
 40
0
 40
1
 40
1
 40
1
 40
1
 10
31.511522
 20
292.524520
 30
0.0
 10
31.511522
 20
292.524520
 30
0.0
 10
29.648856
 20
293.626316
 30
0.0
 10
27.165018
 20
293.546164
 30
0.0
  0
SPLINE
  5
10e
100
AcDbEntity
  8
0
 62
7
100
AcDbSpline
 70
8
 71
3
 72
8
 73
4
 74
0
 40
0
 40
0
 40
0
 40
0
 40
1
 40
1
 40
1
 40
1
 10
31.791769
 20
292.083971
 30
0.0
 10
31.791769
 20
292.083971
 30
0.0
 10
29.067760
 20
293.425938
 30
0.0
 10
26.664073
 20
292.845124
 30
0.0
  0
SPLINE
  5
10f
100
AcDbEntity
  8
0
 62
7
100
AcDbSpline
 70
8
 71
3
 72
8
 73
4
 74
0
 40
0
 40
0
 40
0
 40
0
 40
1
 40
1
 40
1
 40
1
 10
32.132411
 20
291.603064
 30
0.0
 10
32.132411
 20
291.603064
 30
0.0
 10
29.428158
 20
292.925276
 30
0.0
 10
26.844413
 20
292.424331
 30
0.0
  0
SPLINE
  5
110
100
AcDbEntity
  8
0
 62
7
100
AcDbSpline
 70
8
 71
3
 72
8
 73
4
 74
0
 40
0
 40
0
 40
0
 40
0
 40
1
 40
1
 40
1
 40
1
 10
32.453016
 20
291.082364
 30
0.0
 10
32.453016
 20
291.082364
 30
0.0
 10
29.869271
 20
292.544558
 30
0.0
 10
25.882882
 20
291.763367
 30
0.0
  0
SPLINE
  5
111
100
AcDbEntity
  8
0
 62
7
100
AcDbSpline
 70
8
 71
3
 72
8
 73
4
 74
0
 40
0
 40
0
 40
0
 40
0
 40
1
 40
1
 40
1
 40
1
 10
32.791964
 20
290.607102
 30
0.0
 10
32.791964
 20
290.607102
 30
0.0
 10
27.811871
 20
292.425178
 30
0.0
 10
25.440640
 20
290.975967
 30
0.0
  0
SPLINE
  5
112
100
AcDbEntity
  8
0
 62
7
100
AcDbSpline
 70
8
 71
3
 72
8
 73
4
 74
0
 40
0
 40
0
 40
0
 40
0
 40
1
 40
1
 40
1
 40
1
 10
33.187358
 20
290.053947
 30
0.0
 10
33.187358
 20
290.053947
 30
0.0
 10
29.893824
 20
291.660920
 30
0.0
 10
26.811111
 20
291.054989
 30
0.0
  0
SPLINE
  5
113
100
AcDbEntity
  8
0
 62
7
100
AcDbSpline
 70
8
 71
3
 72
8
 73
4
 74
0
 40
0
 40
0
 40
0
 40
0
 40
1
 40
1
 40
1
 40
1
 10
33.582469
 20
289.447733
 30
0.0
 10
33.582469
 20
289.447733
 30
0.0
 10
28.707927
 20
290.949438
 30
0.0
 10
26.336696
 20
289.869373
 30
0.0
  0
SPLINE
  5
114
100
AcDbEntity
  8
0
 62
7
100
AcDbSpline
 70
8
 71
3
 72
8
 73
4
 74
0
 40
0
 40
0
 40
0
 40
0
 40
1
 40
1
 40
1
 40
1
 10
34.293951
 20
288.420162
 30
0.0
 10
34.293951
 20
288.420162
 30
0.0
 10
29.261364
 20
290.949720
 30
0.0
 10
24.413351
 20
288.657229
 30
0.0
  0
SPLINE
  5
115
100
AcDbEntity
  8
0
 62
7
100
AcDbSpline
 70
8
 71
3
 72
8
 73
4
 74
0
 40
0
 40
0
 40
0
 40
0
 40
1
 40
1
 40
1
 40
1
 10
33.977862
 20
288.894578
 30
0.0
 10
33.977862
 20
288.894578
 30
0.0
 10
27.864929
 20
289.448016
 30
0.0
 10
25.098304
 20
288.630982
 30
0.0
  0
SPLINE
  5
116
100
AcDbEntity
  8
0
 62
7
100
AcDbSpline
 70
8
 71
3
 72
8
 73
4
 74
0
 40
0
 40
0
 40
0
 40
0
 40
1
 40
1
 40
1
 40
1
 10
35.795656
 20
286.180729
 30
0.0
 10
35.795656
 20
286.180729
 30
0.0
 10
29.340104
 20
289.157891
 30
0.0
 10
23.174678
 20
288.446691
 30
0.0
  0
SPLINE
  5
117
100
AcDbEntity
  8
0
 62
7
100
AcDbSpline
 70
8
 71
3
 72
8
 73
4
 74
0
 40
0
 40
0
 40
0
 40
0
 40
1
 40
1
 40
1
 40
1
 10
34.715591
 20
287.787702
 30
0.0
 10
34.715591
 20
287.787702
 30
0.0
 10
29.235118
 20
289.315936
 30
0.0
 10
24.228778
 20
287.155242
 30
0.0
  0
SPLINE
  5
118
100
AcDbEntity
  8
0
 62
7
100
AcDbSpline
 70
8
 71
3
 72
8
 73
4
 74
0
 40
0
 40
0
 40
0
 40
0
 40
1
 40
1
 40
1
 40
1
 10
35.136949
 20
287.128996
 30
0.0
 10
35.136949
 20
287.128996
 30
0.0
 10
30.367958
 20
288.104073
 30
0.0
 10
26.731807
 20
285.785336
 30
0.0
  0
SPLINE
  5
119
100
AcDbEntity
  8
0
 62
7
100
AcDbSpline
 70
8
 71
3
 72
8
 73
4
 74
0
 40
0
 40
0
 40
0
 40
0
 40
1
 40
1
 40
1
 40
1
 10
35.558871
 20
286.575840
 30
0.0
 10
35.558871
 20
286.575840
 30
0.0
 10
31.000418
 20
286.681109
 30
0.0
 10
24.017958
 20
283.282307
 30
0.0
  0
SPLINE
  5
11a
100
AcDbEntity
  8
0
 62
7
100
AcDbSpline
 70
8
 71
3
 72
8
 73
4
 74
0
 40
0
 40
0
 40
0
 40
0
 40
1
 40
1
 40
1
 40
1
 10
37.297642
 20
283.888238
 30
0.0
 10
37.297642
 20
283.888238
 30
0.0
 10
31.527327
 20
286.154200
 30
0.0
 10
23.965182
 20
284.915809
 30
0.0
  0
SPLINE
  5
11b
100
AcDbEntity
  8
0
 62
7
100
AcDbSpline
 70
8
 71
3
 72
8
 73
4
 74
0
 40
0
 40
0
 40
0
 40
0
 40
1
 40
1
 40
1
 40
1
 10
36.217578
 20
285.522022
 30
0.0
 10
36.217578
 20
285.522022
 30
0.0
 10
30.078398
 20
286.576122
 30
0.0
 10
25.414676
 20
283.677700
 30
0.0
  0
SPLINE
  5
11c
100
AcDbEntity
  8
0
 62
7
100
AcDbSpline
 70
8
 71
3
 72
8
 73
4
 74
0
 40
0
 40
0
 40
0
 40
0
 40
1
 40
1
 40
1
 40
1
 10
36.586160
 20
284.942056
 30
0.0
 10
36.586160
 20
284.942056
 30
0.0
 10
31.606349
 20
285.231898
 30
0.0
 10
25.150798
 20
283.387576
 30
0.0
  0
SPLINE
  5
11d
100
AcDbEntity
  8
0
 62
7
100
AcDbSpline
 70
8
 71
3
 72
8
 73
4
 74
0
 40
0
 40
0
 40
0
 40
0
 40
1
 40
1
 40
1
 40
1
 10
37.693036
 20
283.203284
 30
0.0
 10
37.693036
 20
283.203284
 30
0.0
 10
33.819818
 20
284.968584
 30
0.0
 10
26.574044
 20
282.017669
 30
0.0
  0
SPLINE
  5
11e
100
AcDbEntity
  8
0
 62
7
100
AcDbSpline
 70
8
 71
3
 72
8
 73
4
 74
0
 40
0
 40
0
 40
0
 40
0
 40
1
 40
1
 40
1
 40
1
 10
38.167169
 20
282.439027
 30
0.0
 10
38.167169
 20
282.439027
 30
0.0
 10
35.321522
 20
283.361329
 30
0.0
 10
28.865971
 20
279.725178
 30
0.0
  0
SPLINE
  5
11f
100
AcDbEntity
  8
0
 62
7
100
AcDbSpline
 70
8
 71
3
 72
8
 73
4
 74
0
 40
0
 40
0
 40
0
 40
0
 40
1
 40
1
 40
1
 40
1
 10
38.457293
 20
281.991140
 30
0.0
 10
38.457293
 20
281.991140
 30
0.0
 10
33.082089
 20
282.649847
 30
0.0
 10
25.757293
 20
277.116880
 30
0.0
  0
SPLINE
  5
120
100
AcDbEntity
  8
0
 62
7
100
AcDbSpline
 70
8
 71
3
 72
8
 73
4
 74
0
 40
0
 40
0
 40
0
 40
0
 40
1
 40
1
 40
1
 40
1
 10
38.825876
 20
281.411456
 30
0.0
 10
38.825876
 20
281.411456
 30
0.0
 10
35.848431
 20
282.570824
 30
0.0
 10
27.232469
 20
277.617260
 30
0.0
  0
SPLINE
  5
121
100
AcDbEntity
  8
0
 62
7
100
AcDbSpline
 70
8
 71
3
 72
8
 73
4
 74
0
 40
0
 40
0
 40
0
 40
0
 40
1
 40
1
 40
1
 40
1
 10
39.089471
 20
280.910793
 30
0.0
 10
39.089471
 20
280.910793
 30
0.0
 10
38.114676
 20
282.017669
 30
0.0
 10
28.339344
 20
277.959878
 30
0.0
  0
SPLINE
  5
122
100
AcDbEntity
  8
0
 62
7
100
AcDbSpline
 70
8
 71
3
 72
8
 73
4
 74
0
 40
0
 40
0
 40
0
 40
0
 40
1
 40
1
 40
1
 40
1
 10
39.405560
 20
280.331391
 30
0.0
 10
39.405560
 20
280.331391
 30
0.0
 10
38.931144
 20
281.938647
 30
0.0
 10
31.580102
 20
278.355271
 30
0.0
  0
SPLINE
  5
123
100
AcDbEntity
  8
0
 62
7
100
AcDbSpline
 70
8
 71
3
 72
8
 73
4
 74
0
 40
0
 40
0
 40
0
 40
0
 40
1
 40
1
 40
1
 40
1
 10
39.757491
 20
279.815771
 30
0.0
 10
39.757491
 20
279.815771
 30
0.0
 10
38.325213
 20
281.964893
 30
0.0
 10
30.473509
 20
275.667669
 30
0.0
  0
SPLINE
  5
124
100
AcDbEntity
  8
0
 62
7
100
AcDbSpline
 70
8
 71
3
 72
8
 73
4
 74
0
 40
0
 40
0
 40
0
 40
0
 40
1
 40
1
 40
1
 40
1
 10
30.473509
 20
275.667669
 30
0.0
 10
27.417042
 20
274.139436
 30
0.0
 10
20.803729
 20
273.375178
 30
0.0
 10
20.803729
 20
273.375178
 30
0.0
  0
SPLINE
  5
125
100
AcDbEntity
  8
0
 62
7
100
AcDbSpline
 70
8
 71
3
 72
8
 73
4
 74
0
 40
0
 40
0
 40
0
 40
0
 40
1
 40
1
 40
1
 40
1
 10
39.932469
 20
279.409089
 30
0.0
 10
39.932469
 20
279.409089
 30
0.0
 10
38.351742
 20
280.462907
 30
0.0
 10
29.103320
 20
278.908427
 30
0.0
  0
SPLINE
  5
126
100
AcDbEntity
  8
0
 62
7
100
AcDbSpline
 70
8
 71
3
 72
8
 73
4
 74
0
 40
0
 40
0
 40
0
 40
0
 40
1
 40
1
 40
1
 40
1
 10
40.248558
 20
278.776629
 30
0.0
 10
40.248558
 20
278.776629
 30
0.0
 10
39.695120
 20
280.146536
 30
0.0
 10
24.623889
 20
277.670036
 30
0.0
  0
SPLINE
  5
127
100
AcDbEntity
  8
0
 62
7
100
AcDbSpline
 70
8
 71
3
 72
8
 73
4
 74
0
 40
0
 40
0
 40
0
 40
0
 40
1
 40
1
 40
1
 40
1
 10
40.459660
 20
278.275967
 30
0.0
 10
40.459660
 20
278.275967
 30
0.0
 10
39.695402
 20
279.804200
 30
0.0
 10
32.712942
 20
277.854327
 30
0.0
  0
SPLINE
  5
128
100
AcDbEntity
  8
0
 62
7
100
AcDbSpline
 70
8
 71
3
 72
8
 73
4
 74
0
 40
0
 40
0
 40
0
 40
0
 40
1
 40
1
 40
1
 40
1
 10
32.712942
 20
277.854327
 30
0.0
 10
25.730482
 20
275.904453
 30
0.0
 10
23.596318
 20
276.642182
 30
0.0
 10
23.596318
 20
276.642182
 30
0.0
  0
SPLINE
  5
129
100
AcDbEntity
  8
0
 62
7
100
AcDbSpline
 70
8
 71
3
 72
8
 73
4
 74
0
 40
0
 40
0
 40
0
 40
0
 40
1
 40
1
 40
1
 40
1
 10
40.759944
 20
277.708982
 30
0.0
 10
40.759944
 20
277.708982
 30
0.0
 10
39.442813
 20
278.931851
 30
0.0
 10
34.527631
 20
277.615002
 30
0.0
  0
SPLINE
  5
12a
100
AcDbEntity
  8
0
 62
7
100
AcDbSpline
 70
8
 71
3
 72
8
 73
4
 74
0
 40
0
 40
0
 40
0
 40
0
 40
1
 40
1
 40
1
 40
1
 10
34.527631
 20
277.615002
 30
0.0
 10
29.612449
 20
276.298153
 30
0.0
 10
26.954762
 20
275.639447
 30
0.0
 10
26.954762
 20
275.639447
 30
0.0
  0
SPLINE
  5
12b
100
AcDbEntity
  8
0
 62
7
100
AcDbSpline
 70
8
 71
3
 72
8
 73
4
 74
0
 40
0
 40
0
 40
0
 40
0
 40
1
 40
1
 40
1
 40
1
 10
40.971611
 20
277.262224
 30
0.0
 10
40.971611
 20
277.262224
 30
0.0
 10
39.419389
 20
278.343982
 30
0.0
 10
36.526611
 20
277.567871
 30
0.0
  0
SPLINE
  5
12c
100
AcDbEntity
  8
0
 62
7
100
AcDbSpline
 70
8
 71
3
 72
8
 73
4
 74
0
 40
0
 40
0
 40
0
 40
0
 40
1
 40
1
 40
1
 40
1
 10
36.526611
 20
277.567871
 30
0.0
 10
33.633833
 20
276.791760
 30
0.0
 10
29.988369
 20
277.262224
 30
0.0
 10
29.988369
 20
277.262224
 30
0.0
  0
SPLINE
  5
12d
100
AcDbEntity
  8
0
 62
7
100
AcDbSpline
 70
8
 71
3
 72
8
 73
4
 74
0
 40
0
 40
0
 40
0
 40
0
 40
1
 40
1
 40
1
 40
1
 10
41.183278
 20
276.721204
 30
0.0
 10
41.183278
 20
276.721204
 30
0.0
 10
39.325409
 20
278.485093
 30
0.0
 10
35.797631
 20
276.415558
 30
0.0
  0
SPLINE
  5
12e
100
AcDbEntity
  8
0
 62
7
100
AcDbSpline
 70
8
 71
3
 72
8
 73
4
 74
0
 40
0
 40
0
 40
0
 40
0
 40
1
 40
1
 40
1
 40
1
 10
35.797631
 20
276.415558
 30
0.0
 10
32.269853
 20
274.346022
 30
0.0
 10
30.694207
 20
271.594356
 30
0.0
 10
30.694207
 20
271.594356
 30
0.0
  0
SPLINE
  5
12f
100
AcDbEntity
  8
0
 62
7
100
AcDbSpline
 70
8
 71
3
 72
8
 73
4
 74
0
 40
0
 40
0
 40
0
 40
0
 40
1
 40
1
 40
1
 40
1
 10
41.559480
 20
276.039073
 30
0.0
 10
41.559480
 20
276.039073
 30
0.0
 10
41.089298
 20
277.450184
 30
0.0
 10
31.023278
 20
276.697498
 30
0.0
  0
SPLINE
  5
130
100
AcDbEntity
  8
0
 62
7
100
AcDbSpline
 70
8
 71
3
 72
8
 73
4
 74
0
 40
0
 40
0
 40
0
 40
0
 40
1
 40
1
 40
1
 40
1
 10
41.724298
 20
275.545184
 30
0.0
 10
41.724298
 20
275.545184
 30
0.0
 10
40.524571
 20
278.367407
 30
0.0
 10
29.071147
 20
272.793518
 30
0.0
  0
SPLINE
  5
131
100
AcDbEntity
  8
0
 62
7
100
AcDbSpline
 70
8
 71
3
 72
8
 73
4
 74
0
 40
0
 40
0
 40
0
 40
0
 40
1
 40
1
 40
1
 40
1
 10
41.912258
 20
275.027871
 30
0.0
 10
41.912258
 20
275.027871
 30
0.0
 10
40.030682
 20
276.203891
 30
0.0
 10
35.138924
 20
276.203891
 30
0.0
  0
SPLINE
  5
132
100
AcDbEntity
  8
0
 62
7
100
AcDbSpline
 70
8
 71
3
 72
8
 73
4
 74
0
 40
0
 40
0
 40
0
 40
0
 40
1
 40
1
 40
1
 40
1
 10
42.265036
 20
274.322316
 30
0.0
 10
42.265036
 20
274.322316
 30
0.0
 10
41.935964
 20
275.310093
 30
0.0
 10
32.975127
 20
275.639447
 30
0.0
  0
SPLINE
  5
133
100
AcDbEntity
  8
0
 62
7
100
AcDbSpline
 70
8
 71
3
 72
8
 73
4
 74
0
 40
0
 40
0
 40
0
 40
0
 40
1
 40
1
 40
1
 40
1
 10
42.429853
 20
273.805002
 30
0.0
 10
42.429853
 20
273.805002
 30
0.0
 10
41.206702
 20
275.568891
 30
0.0
 10
31.987631
 20
273.052316
 30
0.0
  0
SPLINE
  5
134
100
AcDbEntity
  8
0
 62
7
100
AcDbSpline
 70
8
 71
3
 72
8
 73
4
 74
0
 40
0
 40
0
 40
0
 40
0
 40
1
 40
1
 40
1
 40
1
 10
42.688369
 20
273.240558
 30
0.0
 10
42.688369
 20
273.240558
 30
0.0
 10
41.112722
 20
274.557689
 30
0.0
 10
37.632076
 20
273.711022
 30
0.0
  0
SPLINE
  5
135
100
AcDbEntity
  8
0
 62
7
100
AcDbSpline
 70
8
 71
3
 72
8
 73
4
 74
0
 40
0
 40
0
 40
0
 40
0
 40
1
 40
1
 40
1
 40
1
 10
37.632076
 20
273.711022
 30
0.0
 10
34.151147
 20
272.864356
 30
0.0
 10
30.223460
 20
272.064820
 30
0.0
 10
27.730591
 20
272.229356
 30
0.0
  0
SPLINE
  5
136
100
AcDbEntity
  8
0
 62
7
100
AcDbSpline
 70
8
 71
3
 72
8
 73
4
 74
0
 40
0
 40
0
 40
0
 40
0
 40
1
 40
1
 40
1
 40
1
 10
42.970591
 20
272.605558
 30
0.0
 10
42.970591
 20
272.605558
 30
0.0
 10
42.758924
 20
273.616760
 30
0.0
 10
38.996056
 20
273.334538
 30
0.0
  0
SPLINE
  5
137
100
AcDbEntity
  8
0
 62
7
100
AcDbSpline
 70
8
 71
3
 72
8
 73
4
 74
0
 40
0
 40
0
 40
0
 40
0
 40
1
 40
1
 40
1
 40
1
 10
38.996056
 20
273.334538
 30
0.0
 10
35.233187
 20
273.052316
 30
0.0
 10
34.386520
 20
273.052316
 30
0.0
 10
33.704389
 20
273.146296
 30
0.0
  0
SPLINE
  5
138
100
AcDbEntity
  8
0
 62
7
100
AcDbSpline
 70
8
 71
3
 72
8
 73
4
 74
0
 40
0
 40
0
 40
0
 40
0
 40
1
 40
1
 40
1
 40
1
 10
43.135409
 20
272.064538
 30
0.0
 10
43.135409
 20
272.064538
 30
0.0
 10
42.171056
 20
273.146296
 30
0.0
 10
36.926520
 20
272.487871
 30
0.0
  0
SPLINE
  5
139
100
AcDbEntity
  8
0
 62
7
100
AcDbSpline
 70
8
 71
3
 72
8
 73
4
 74
0
 40
0
 40
0
 40
0
 40
0
 40
1
 40
1
 40
1
 40
1
 10
36.926520
 20
272.487871
 30
0.0
 10
31.681702
 20
271.829447
 30
0.0
 10
31.211520
 20
272.323336
 30
0.0
 10
31.211520
 20
272.323336
 30
0.0
  0
SPLINE
  5
13a
100
AcDbEntity
  8
0
 62
7
100
AcDbSpline
 70
8
 71
3
 72
8
 73
4
 74
0
 40
0
 40
0
 40
0
 40
0
 40
1
 40
1
 40
1
 40
1
 10
43.370500
 20
271.452962
 30
0.0
 10
43.370500
 20
271.452962
 30
0.0
 10
42.288742
 20
272.511296
 30
0.0
 10
38.784389
 20
271.993982
 30
0.0
  0
SPLINE
  5
13b
100
AcDbEntity
  8
0
 62
7
100
AcDbSpline
 70
8
 71
3
 72
8
 73
4
 74
0
 40
0
 40
0
 40
0
 40
0
 40
1
 40
1
 40
1
 40
1
 10
38.784389
 20
271.993982
 30
0.0
 10
35.280036
 20
271.476669
 30
0.0
 10
28.859480
 20
271.711760
 30
0.0
 10
28.859480
 20
271.711760
 30
0.0
  0
SPLINE
  5
13c
100
AcDbEntity
  8
0
 62
7
100
AcDbSpline
 70
8
 71
3
 72
8
 73
4
 74
0
 40
0
 40
0
 40
0
 40
0
 40
1
 40
1
 40
1
 40
1
 10
43.582167
 20
270.865093
 30
0.0
 10
43.582167
 20
270.865093
 30
0.0
 10
41.700591
 20
272.628982
 30
0.0
 10
33.069389
 20
270.277224
 30
0.0
  0
SPLINE
  5
13d
100
AcDbEntity
  8
0
 62
7
100
AcDbSpline
 70
8
 71
3
 72
8
 73
4
 74
0
 40
0
 40
0
 40
0
 40
0
 40
1
 40
1
 40
1
 40
1
 10
43.770409
 20
270.277224
 30
0.0
 10
43.770409
 20
270.277224
 30
0.0
 10
44.334853
 20
270.771113
 30
0.0
 10
39.325409
 20
271.217871
 30
0.0
  0
SPLINE
  5
13e
100
AcDbEntity
  8
0
 62
7
100
AcDbSpline
 70
8
 71
3
 72
8
 73
4
 74
0
 40
0
 40
0
 40
0
 40
0
 40
1
 40
1
 40
1
 40
1
 10
39.325409
 20
271.217871
 30
0.0
 10
34.315964
 20
271.664629
 30
0.0
 10
33.257631
 20
272.628982
 30
0.0
 10
33.257631
 20
272.628982
 30
0.0
  0
SPLINE
  5
13f
100
AcDbEntity
  8
0
 62
7
100
AcDbSpline
 70
8
 71
3
 72
8
 73
4
 74
0
 40
0
 40
0
 40
0
 40
0
 40
1
 40
1
 40
1
 40
1
 10
44.005500
 20
269.618518
 30
0.0
 10
44.005500
 20
269.618518
 30
0.0
 10
43.793551
 20
270.959073
 30
0.0
 10
36.832258
 20
270.865093
 30
0.0
  0
SPLINE
  5
140
100
AcDbEntity
  8
0
 62
7
100
AcDbSpline
 70
8
 71
3
 72
8
 73
4
 74
0
 40
0
 40
0
 40
0
 40
0
 40
1
 40
1
 40
1
 40
1
 10
44.217167
 20
269.007224
 30
0.0
 10
44.217167
 20
269.007224
 30
0.0
 10
43.064853
 20
270.136113
 30
0.0
 10
40.454298
 20
270.136113
 30
0.0
  0
SPLINE
  5
141
100
AcDbEntity
  8
0
 62
7
100
AcDbSpline
 70
8
 71
3
 72
8
 73
4
 74
0
 40
0
 40
0
 40
0
 40
0
 40
1
 40
1
 40
1
 40
1
 10
40.454298
 20
270.136113
 30
0.0
 10
37.843742
 20
270.136113
 30
0.0
 10
28.812631
 20
272.652689
 30
0.0
 10
28.812631
 20
272.652689
 30
0.0
  0
SPLINE
  5
142
100
AcDbEntity
  8
0
 62
7
100
AcDbSpline
 70
8
 71
3
 72
8
 73
4
 74
0
 40
0
 40
0
 40
0
 40
0
 40
1
 40
1
 40
1
 40
1
 10
44.405409
 20
268.466204
 30
0.0
 10
44.405409
 20
268.466204
 30
0.0
 10
42.617813
 20
269.618518
 30
0.0
 10
39.631056
 20
269.853891
 30
0.0
  0
SPLINE
  5
143
100
AcDbEntity
  8
0
 62
7
100
AcDbSpline
 70
8
 71
3
 72
8
 73
4
 74
0
 40
0
 40
0
 40
0
 40
0
 40
1
 40
1
 40
1
 40
1
 10
39.631056
 20
269.853891
 30
0.0
 10
36.644298
 20
270.088982
 30
0.0
 10
33.327904
 20
270.912224
 30
0.0
 10
32.598924
 20
271.382689
 30
0.0
  0
SPLINE
  5
144
100
AcDbEntity
  8
0
 62
7
100
AcDbSpline
 70
8
 71
3
 72
8
 73
4
 74
0
 40
0
 40
0
 40
0
 40
0
 40
1
 40
1
 40
1
 40
1
 10
44.640500
 20
267.760649
 30
0.0
 10
44.640500
 20
267.760649
 30
0.0
 10
42.900036
 20
268.889538
 30
0.0
 10
40.077813
 20
269.030649
 30
0.0
  0
SPLINE
  5
145
100
AcDbEntity
  8
0
 62
7
100
AcDbSpline
 70
8
 71
3
 72
8
 73
4
 74
0
 40
0
 40
0
 40
0
 40
0
 40
1
 40
1
 40
1
 40
1
 10
40.077813
 20
269.030649
 30
0.0
 10
37.255591
 20
269.171760
 30
0.0
 10
34.833278
 20
269.901022
 30
0.0
 10
34.503924
 20
270.065558
 30
0.0
  0
SPLINE
  5
146
100
AcDbEntity
  8
0
 62
7
100
AcDbSpline
 70
8
 71
3
 72
8
 73
4
 74
0
 40
0
 40
0
 40
0
 40
0
 40
1
 40
1
 40
1
 40
1
 10
45.016702
 20
266.702316
 30
0.0
 10
45.016702
 20
266.702316
 30
0.0
 10
41.347813
 20
268.489629
 30
0.0
 10
37.961147
 20
268.912962
 30
0.0
  0
SPLINE
  5
147
100
AcDbEntity
  8
0
 62
7
100
AcDbSpline
 70
8
 71
3
 72
8
 73
4
 74
0
 40
0
 40
0
 40
0
 40
0
 40
1
 40
1
 40
1
 40
1
 10
37.961147
 20
268.912962
 30
0.0
 10
34.574480
 20
269.336296
 30
0.0
 10
32.810591
 20
270.653427
 30
0.0
 10
32.152167
 20
271.452962
 30
0.0
  0
SPLINE
  5
148
100
AcDbEntity
  8
0
 62
7
100
AcDbSpline
 70
8
 71
3
 72
8
 73
4
 74
0
 40
0
 40
0
 40
0
 40
0
 40
1
 40
1
 40
1
 40
1
 10
45.204944
 20
266.043891
 30
0.0
 10
45.204944
 20
266.043891
 30
0.0
 10
41.794571
 20
268.137133
 30
0.0
 10
40.218924
 20
268.772133
 30
0.0
  0
SPLINE
  5
149
100
AcDbEntity
  8
0
 62
7
100
AcDbSpline
 70
8
 71
3
 72
8
 73
4
 74
0
 40
0
 40
0
 40
0
 40
0
 40
1
 40
1
 40
1
 40
1
 10
40.218924
 20
268.772133
 30
0.0
 10
38.643278
 20
269.407133
 30
0.0
 10
37.043924
 20
270.183244
 30
0.0
 10
36.691147
 20
270.488891
 30
0.0
  0
SPLINE
  5
14a
100
AcDbEntity
  8
0
 62
7
100
AcDbSpline
 70
8
 71
3
 72
8
 73
4
 74
0
 40
0
 40
0
 40
0
 40
0
 40
1
 40
1
 40
1
 40
1
 10
44.805036
 20
267.219629
 30
0.0
 10
44.805036
 20
267.219629
 30
0.0
 10
42.688369
 20
267.078518
 30
0.0
 10
41.159853
 20
266.984538
 30
0.0
  0
SPLINE
  5
14b
100
AcDbEntity
  8
0
 62
7
100
AcDbSpline
 70
8
 71
3
 72
8
 73
4
 74
0
 40
0
 40
0
 40
0
 40
0
 40
1
 40
1
 40
1
 40
1
 10
41.159853
 20
266.984538
 30
0.0
 10
39.631056
 20
266.890558
 30
0.0
 10
38.196520
 20
266.890558
 30
0.0
 10
37.984853
 20
266.913982
 30
0.0
  0
SPLINE
  5
14c
100
AcDbEntity
  8
0
 62
7
100
AcDbSpline
 70
8
 71
3
 72
8
 73
4
 74
0
 40
0
 40
0
 40
0
 40
0
 40
1
 40
1
 40
1
 40
1
 10
45.346056
 20
265.502871
 30
0.0
 10
45.346056
 20
265.502871
 30
0.0
 10
42.147631
 20
267.313891
 30
0.0
 10
40.948187
 20
267.642962
 30
0.0
  0
SPLINE
  5
14d
100
AcDbEntity
  8
0
 62
7
100
AcDbSpline
 70
8
 71
3
 72
8
 73
4
 74
0
 40
0
 40
0
 40
0
 40
0
 40
1
 40
1
 40
1
 40
1
 10
40.948187
 20
267.642962
 30
0.0
 10
39.748742
 20
267.972033
 30
0.0
 10
35.632813
 20
270.418053
 30
0.0
 10
35.280036
 20
270.747407
 30
0.0
  0
SPLINE
  5
14e
100
AcDbEntity
  8
0
 62
7
100
AcDbSpline
 70
8
 71
3
 72
8
 73
4
 74
0
 40
0
 40
0
 40
0
 40
0
 40
1
 40
1
 40
1
 40
1
 10
45.510591
 20
265.032407
 30
0.0
 10
45.510591
 20
265.032407
 30
0.0
 10
43.723278
 20
265.973053
 30
0.0
 10
41.959389
 20
266.278982
 30
0.0
  0
SPLINE
  5
14f
100
AcDbEntity
  8
0
 62
7
100
AcDbSpline
 70
8
 71
3
 72
8
 73
4
 74
0
 40
0
 40
0
 40
0
 40
0
 40
1
 40
1
 40
1
 40
1
 10
41.959389
 20
266.278982
 30
0.0
 10
40.195500
 20
266.584911
 30
0.0
 10
33.328187
 20
267.972316
 30
0.0
 10
32.716611
 20
268.113427
 30
0.0
  0
SPLINE
  5
150
100
AcDbEntity
  8
0
 62
7
100
AcDbSpline
 70
8
 71
3
 72
8
 73
4
 74
0
 40
0
 40
0
 40
0
 40
0
 40
1
 40
1
 40
1
 40
1
 10
45.675409
 20
264.515093
 30
0.0
 10
45.675409
 20
264.515093
 30
0.0
 10
43.746702
 20
265.032407
 30
0.0
 10
42.029944
 20
265.714538
 30
0.0
  0
SPLINE
  5
151
100
AcDbEntity
  8
0
 62
7
100
AcDbSpline
 70
8
 71
3
 72
8
 73
4
 74
0
 40
0
 40
0
 40
0
 40
0
 40
1
 40
1
 40
1
 40
1
 10
42.029944
 20
265.714538
 30
0.0
 10
40.313187
 20
266.396669
 30
0.0
 10
35.350591
 20
268.090002
 30
0.0
 10
34.433369
 20
268.019447
 30
0.0
  0
SPLINE
  5
152
100
AcDbEntity
  8
0
 62
7
100
AcDbSpline
 70
8
 71
3
 72
8
 73
4
 74
0
 40
0
 40
0
 40
0
 40
0
 40
1
 40
1
 40
1
 40
1
 10
45.839944
 20
263.880093
 30
0.0
 10
45.839944
 20
263.880093
 30
0.0
 10
44.146329
 20
264.867871
 30
0.0
 10
41.277258
 20
265.291204
 30
0.0
  0
SPLINE
  5
153
100
AcDbEntity
  8
0
 62
7
100
AcDbSpline
 70
8
 71
3
 72
8
 73
4
 74
0
 40
0
 40
0
 40
0
 40
0
 40
1
 40
1
 40
1
 40
1
 10
41.277258
 20
265.291204
 30
0.0
 10
38.408187
 20
265.714538
 30
0.0
 10
36.573460
 20
266.866851
 30
0.0
 10
36.573460
 20
266.866851
 30
0.0
  0
SPLINE
  5
154
100
AcDbEntity
  8
0
 62
7
100
AcDbSpline
 70
8
 71
3
 72
8
 73
4
 74
0
 40
0
 40
0
 40
0
 40
0
 40
1
 40
1
 40
1
 40
1
 10
45.957631
 20
263.339073
 30
0.0
 10
45.957631
 20
263.339073
 30
0.0
 10
44.099480
 20
264.326851
 30
0.0
 10
41.818278
 20
264.679629
 30
0.0
  0
SPLINE
  5
155
100
AcDbEntity
  8
0
 62
7
100
AcDbSpline
 70
8
 71
3
 72
8
 73
4
 74
0
 40
0
 40
0
 40
0
 40
0
 40
1
 40
1
 40
1
 40
1
 10
41.818278
 20
264.679629
 30
0.0
 10
39.537076
 20
265.032407
 30
0.0
 10
34.104298
 20
267.690093
 30
0.0
 10
34.104298
 20
267.690093
 30
0.0
  0
SPLINE
  5
156
100
AcDbEntity
  8
0
 62
7
100
AcDbSpline
 70
8
 71
3
 72
8
 73
4
 74
0
 40
0
 40
0
 40
0
 40
0
 40
1
 40
1
 40
1
 40
1
 10
46.145591
 20
262.821760
 30
0.0
 10
46.145591
 20
262.821760
 30
0.0
 10
45.416329
 20
263.409629
 30
0.0
 10
41.136147
 20
264.585649
 30
0.0
  0
SPLINE
  5
157
100
AcDbEntity
  8
0
 62
7
100
AcDbSpline
 70
8
 71
3
 72
8
 73
4
 74
0
 40
0
 40
0
 40
0
 40
0
 40
1
 40
1
 40
1
 40
1
 10
41.136147
 20
264.585649
 30
0.0
 10
36.855964
 20
265.761669
 30
0.0
 10
31.846238
 20
269.336296
 30
0.0
 10
31.846238
 20
269.336296
 30
0.0
  0
SPLINE
  5
158
100
AcDbEntity
  8
0
 62
7
100
AcDbSpline
 70
8
 71
3
 72
8
 73
4
 74
0
 40
0
 40
0
 40
0
 40
0
 40
1
 40
1
 40
1
 40
1
 10
46.192722
 20
262.468982
 30
0.0
 10
46.192722
 20
262.468982
 30
0.0
 10
46.145591
 20
263.033427
 30
0.0
 10
41.136147
 20
263.856669
 30
0.0
  0
SPLINE
  5
159
100
AcDbEntity
  8
0
 62
7
100
AcDbSpline
 70
8
 71
3
 72
8
 73
4
 74
0
 40
0
 40
0
 40
0
 40
0
 40
1
 40
1
 40
1
 40
1
 10
41.136147
 20
263.856669
 30
0.0
 10
36.126702
 20
264.679911
 30
0.0
 10
33.069389
 20
267.784356
 30
0.0
 10
33.069389
 20
267.784356
 30
0.0
  0
SPLINE
  5
15a
100
AcDbEntity
  8
0
 62
7
100
AcDbSpline
 70
8
 71
3
 72
8
 73
4
 74
0
 40
0
 40
0
 40
0
 40
0
 40
1
 40
1
 40
1
 40
1
 10
46.333833
 20
261.975093
 30
0.0
 10
46.333833
 20
261.975093
 30
0.0
 10
42.429853
 20
263.668427
 30
0.0
 10
38.902076
 20
264.609073
 30
0.0
  0
SPLINE
  5
15b
100
AcDbEntity
  8
0
 62
7
100
AcDbSpline
 70
8
 71
3
 72
8
 73
4
 74
0
 40
0
 40
0
 40
0
 40
0
 40
1
 40
1
 40
1
 40
1
 10
38.902076
 20
264.609073
 30
0.0
 10
35.374298
 20
265.549720
 30
0.0
 10
34.151147
 20
267.219629
 30
0.0
 10
34.151147
 20
267.219629
 30
0.0
  0
SPLINE
  5
15c
100
AcDbEntity
  8
0
 62
7
100
AcDbSpline
 70
8
 71
3
 72
8
 73
4
 74
0
 40
0
 40
0
 40
0
 40
0
 40
1
 40
1
 40
1
 40
1
 10
46.427813
 20
261.551760
 30
0.0
 10
46.427813
 20
261.551760
 30
0.0
 10
47.345036
 20
262.022224
 30
0.0
 10
37.820036
 20
263.691851
 30
0.0
  0
SPLINE
  5
15d
100
AcDbEntity
  8
0
 62
7
100
AcDbSpline
 70
8
 71
3
 72
8
 73
4
 74
0
 40
0
 40
0
 40
0
 40
0
 40
1
 40
1
 40
1
 40
1
 10
46.498369
 20
261.105002
 30
0.0
 10
46.498369
 20
261.105002
 30
0.0
 10
44.216884
 20
262.657224
 30
0.0
 10
41.418369
 20
263.127689
 30
0.0
  0
SPLINE
  5
15e
100
AcDbEntity
  8
0
 62
7
100
AcDbSpline
 70
8
 71
3
 72
8
 73
4
 74
0
 40
0
 40
0
 40
0
 40
0
 40
1
 40
1
 40
1
 40
1
 10
41.418369
 20
263.127689
 30
0.0
 10
38.619853
 20
263.598153
 30
0.0
 10
38.854944
 20
264.115467
 30
0.0
 10
38.478742
 20
264.280002
 30
0.0
  0
SPLINE
  5
15f
100
AcDbEntity
  8
0
 62
7
100
AcDbSpline
 70
8
 71
3
 72
8
 73
4
 74
0
 40
0
 40
0
 40
0
 40
0
 40
1
 40
1
 40
1
 40
1
 10
46.568924
 20
260.634538
 30
0.0
 10
46.568924
 20
260.634538
 30
0.0
 10
43.323369
 20
262.986296
 30
0.0
 10
38.713833
 20
263.245093
 30
0.0
  0
SPLINE
  5
160
100
AcDbEntity
  8
0
 62
7
100
AcDbSpline
 70
8
 71
3
 72
8
 73
4
 74
0
 40
0
 40
0
 40
0
 40
0
 40
1
 40
1
 40
1
 40
1
 10
46.710036
 20
260.211204
 30
0.0
 10
46.710036
 20
260.211204
 30
0.0
 10
46.545218
 20
261.128427
 30
0.0
 10
42.970591
 20
261.504629
 30
0.0
  0
SPLINE
  5
161
100
AcDbEntity
  8
0
 62
7
100
AcDbSpline
 70
8
 71
3
 72
8
 73
4
 74
0
 40
0
 40
0
 40
0
 40
0
 40
1
 40
1
 40
1
 40
1
 10
42.970591
 20
261.504629
 30
0.0
 10
39.395964
 20
261.880831
 30
0.0
 10
36.879389
 20
262.704073
 30
0.0
 10
36.879389
 20
262.704073
 30
0.0
  0
SPLINE
  5
162
100
AcDbEntity
  8
0
 62
7
100
AcDbSpline
 70
8
 71
3
 72
8
 73
4
 74
0
 40
0
 40
0
 40
0
 40
0
 40
1
 40
1
 40
1
 40
1
 10
46.780591
 20
259.952407
 30
0.0
 10
46.780591
 20
259.952407
 30
0.0
 10
44.240591
 20
260.799073
 30
0.0
 10
40.830500
 20
261.222407
 30
0.0
  0
SPLINE
  5
163
100
AcDbEntity
  8
0
 62
7
100
AcDbSpline
 70
8
 71
3
 72
8
 73
4
 74
0
 40
0
 40
0
 40
0
 40
0
 40
1
 40
1
 40
1
 40
1
 10
40.830500
 20
261.222407
 30
0.0
 10
37.420409
 20
261.645740
 30
0.0
 10
34.127722
 20
264.609073
 30
0.0
 10
34.127722
 20
264.609073
 30
0.0
  0
SPLINE
  5
164
100
AcDbEntity
  8
0
 62
7
100
AcDbSpline
 70
8
 71
3
 72
8
 73
4
 74
0
 40
0
 40
0
 40
0
 40
0
 40
1
 40
1
 40
1
 40
1
 10
46.874853
 20
259.387962
 30
0.0
 10
46.874853
 20
259.387962
 30
0.0
 10
44.028924
 20
260.610831
 30
0.0
 10
41.089298
 20
261.034164
 30
0.0
  0
SPLINE
  5
165
100
AcDbEntity
  8
0
 62
7
100
AcDbSpline
 70
8
 71
3
 72
8
 73
4
 74
0
 40
0
 40
0
 40
0
 40
0
 40
1
 40
1
 40
1
 40
1
 10
41.089298
 20
261.034164
 30
0.0
 10
38.149389
 20
261.457498
 30
0.0
 10
33.586984
 20
266.678609
 30
0.0
 10
32.998833
 20
267.501851
 30
0.0
  0
SPLINE
  5
166
100
AcDbEntity
  8
0
 62
7
100
AcDbSpline
 70
8
 71
3
 72
8
 73
4
 74
0
 40
0
 40
0
 40
0
 40
0
 40
1
 40
1
 40
1
 40
1
 10
46.945409
 20
258.988336
 30
0.0
 10
46.945409
 20
258.988336
 30
0.0
 10
44.992996
 20
259.928982
 30
0.0
 10
43.393924
 20
259.999538
 30
0.0
  0
SPLINE
  5
167
100
AcDbEntity
  8
0
 62
7
100
AcDbSpline
 70
8
 71
3
 72
8
 73
4
 74
0
 40
0
 40
0
 40
0
 40
0
 40
1
 40
1
 40
1
 40
1
 10
43.393924
 20
259.999538
 30
0.0
 10
41.794853
 20
260.070093
 30
0.0
 10
39.489944
 20
260.822780
 30
0.0
 10
39.325409
 20
260.916760
 30
0.0
  0
SPLINE
  5
168
100
AcDbEntity
  8
0
 62
7
100
AcDbSpline
 70
8
 71
3
 72
8
 73
4
 74
0
 40
0
 40
0
 40
0
 40
0
 40
1
 40
1
 40
1
 40
1
 10
47.039389
 20
258.353336
 30
0.0
 10
47.039389
 20
258.353336
 30
0.0
 10
45.110964
 20
259.458800
 30
0.0
 10
42.382722
 20
259.482224
 30
0.0
  0
SPLINE
  5
169
100
AcDbEntity
  8
0
 62
7
100
AcDbSpline
 70
8
 71
3
 72
8
 73
4
 74
0
 40
0
 40
0
 40
0
 40
0
 40
1
 40
1
 40
1
 40
1
 10
42.382722
 20
259.482224
 30
0.0
 10
39.654480
 20
259.505649
 30
0.0
 10
36.597167
 20
261.057871
 30
0.0
 10
36.291520
 20
261.269538
 30
0.0
  0
SPLINE
  5
16a
100
AcDbEntity
  8
0
 62
7
100
AcDbSpline
 70
8
 71
3
 72
8
 73
4
 74
0
 40
0
 40
0
 40
0
 40
0
 40
1
 40
1
 40
1
 40
1
 10
46.945409
 20
258.776669
 30
0.0
 10
46.945409
 20
258.776669
 30
0.0
 10
44.005218
 20
258.212224
 30
0.0
 10
41.630036
 20
258.423891
 30
0.0
  0
SPLINE
  5
16b
100
AcDbEntity
  8
0
 62
7
100
AcDbSpline
 70
8
 71
3
 72
8
 73
4
 74
0
 40
0
 40
0
 40
0
 40
0
 40
1
 40
1
 40
1
 40
1
 10
41.630036
 20
258.423891
 30
0.0
 10
39.254853
 20
258.635558
 30
0.0
 10
34.551056
 20
260.422871
 30
0.0
 10
32.481238
 20
261.998800
 30
0.0
  0
SPLINE
  5
16c
100
AcDbEntity
  8
0
 62
7
100
AcDbSpline
 70
8
 71
3
 72
8
 73
4
 74
0
 40
0
 40
0
 40
0
 40
0
 40
1
 40
1
 40
1
 40
1
 10
47.109944
 20
257.835740
 30
0.0
 10
47.109944
 20
257.835740
 30
0.0
 10
44.640500
 20
258.259073
 30
0.0
 10
42.735500
 20
258.846942
 30
0.0
  0
SPLINE
  5
16d
100
AcDbEntity
  8
0
 62
7
100
AcDbSpline
 70
8
 71
3
 72
8
 73
4
 74
0
 40
0
 40
0
 40
0
 40
0
 40
1
 40
1
 40
1
 40
1
 10
42.735500
 20
258.846942
 30
0.0
 10
40.830500
 20
259.434811
 30
0.0
 10
38.713833
 20
260.399164
 30
0.0
 10
38.337631
 20
260.681387
 30
0.0
  0
SPLINE
  5
16e
100
AcDbEntity
  8
0
 62
7
100
AcDbSpline
 70
8
 71
3
 72
8
 73
4
 74
0
 40
0
 40
0
 40
0
 40
0
 40
1
 40
1
 40
1
 40
1
 10
45.346056
 20
260.893336
 30
0.0
 10
45.816520
 20
259.928982
 30
0.0
 10
47.180500
 20
256.871669
 30
0.0
 10
47.180500
 20
256.871669
 30
0.0
  0
SPLINE
  5
16f
100
AcDbEntity
  8
0
 62
7
100
AcDbSpline
 70
8
 71
3
 72
8
 73
4
 74
0
 40
0
 40
0
 40
0
 40
0
 40
1
 40
1
 40
1
 40
1
 10
47.180500
 20
256.871669
 30
0.0
 10
47.180500
 20
256.871669
 30
0.0
 10
39.372258
 20
255.977871
 30
0.0
 10
38.125964
 20
257.436113
 30
0.0
  0
SPLINE
  5
170
100
AcDbEntity
  8
0
 62
7
100
AcDbSpline
 70
8
 71
3
 72
8
 73
4
 74
0
 40
0
 40
0
 40
0
 40
0
 40
1
 40
1
 40
1
 40
1
 10
38.125964
 20
257.436113
 30
0.0
 10
36.879389
 20
258.894356
 30
0.0
 10
35.679944
 20
260.376022
 30
0.0
 10
35.585964
 20
263.198244
 30
0.0
  0
SPLINE
  5
171
100
AcDbEntity
  8
0
 62
7
100
AcDbSpline
 70
8
 71
3
 72
8
 73
4
 74
0
 40
0
 40
0
 40
0
 40
0
 40
1
 40
1
 40
1
 40
1
 10
47.274480
 20
256.424629
 30
0.0
 10
47.274480
 20
256.424629
 30
0.0
 10
40.218924
 20
269.971296
 30
0.0
 10
40.101520
 20
270.159538
 30
0.0
  0
SPLINE
  5
172
100
AcDbEntity
  8
0
 62
7
100
AcDbSpline
 70
8
 71
3
 72
8
 73
4
 74
0
 40
0
 40
0
 40
0
 40
0
 40
1
 40
1
 40
1
 40
1
 10
47.180500
 20
257.295002
 30
0.0
 10
47.180500
 20
257.295002
 30
0.0
 10
41.771147
 20
258.212224
 30
0.0
 10
39.936702
 20
259.011760
 30
0.0
  0
SPLINE
  5
173
100
AcDbEntity
  8
0
 62
7
100
AcDbSpline
 70
8
 71
3
 72
8
 73
4
 74
0
 40
0
 40
0
 40
0
 40
0
 40
1
 40
1
 40
1
 40
1
 10
39.936702
 20
259.011760
 30
0.0
 10
38.102258
 20
259.811296
 30
0.0
 10
35.609389
 20
261.434356
 30
0.0
 10
35.044944
 20
261.740002
 30
0.0
  0
SPLINE
  5
174
100
AcDbEntity
  8
0
 62
7
100
AcDbSpline
 70
8
 71
3
 72
8
 73
4
 74
0
 40
0
 40
0
 40
0
 40
0
 40
1
 40
1
 40
1
 40
1
 10
47.298187
 20
256.260093
 30
0.0
 10
47.298187
 20
256.260093
 30
0.0
 10
42.782349
 20
256.048427
 30
0.0
 10
40.712813
 20
256.824538
 30
0.0
  0
SPLINE
  5
175
100
AcDbEntity
  8
0
 62
7
100
AcDbSpline
 70
8
 71
3
 72
8
 73
4
 74
0
 40
0
 40
0
 40
0
 40
0
 40
1
 40
1
 40
1
 40
1
 10
40.712813
 20
256.824538
 30
0.0
 10
38.643278
 20
257.600649
 30
0.0
 10
32.857722
 20
259.293982
 30
0.0
 10
32.340127
 20
268.560184
 30
0.0
  0
SPLINE
  5
176
100
AcDbEntity
  8
0
 62
7
100
AcDbSpline
 70
8
 71
3
 72
8
 73
4
 74
0
 40
0
 40
0
 40
0
 40
0
 40
1
 40
1
 40
1
 40
1
 10
30.982073
 20
293.331111
 30
0.0
 10
30.982073
 20
293.331111
 30
0.0
 10
30.523462
 20
295.006947
 30
0.0
 10
30.470687
 20
295.518333
 30
0.0
  0
SPLINE
  5
177
100
AcDbEntity
  8
0
 62
7
100
AcDbSpline
 70
8
 71
3
 72
8
 73
4
 74
0
 40
0
 40
0
 40
0
 40
0
 40
1
 40
1
 40
1
 40
1
 10
31.440684
 20
292.784447
 30
0.0
 10
31.440684
 20
292.784447
 30
0.0
 10
31.475962
 20
295.412500
 30
0.0
 10
31.475962
 20
295.694722
 30
0.0
  0
SPLINE
  5
178
100
AcDbEntity
  8
0
 62
7
100
AcDbSpline
 70
8
 71
3
 72
8
 73
4
 74
0
 40
0
 40
0
 40
0
 40
0
 40
1
 40
1
 40
1
 40
1
 10
32.234293
 20
291.867224
 30
0.0
 10
32.234293
 20
291.867224
 30
0.0
 10
31.987349
 20
295.589171
 30
0.0
 10
32.340127
 20
296.241669
 30
0.0
  0
SPLINE
  5
179
100
AcDbEntity
  8
0
 62
7
100
AcDbSpline
 70
8
 71
3
 72
8
 73
4
 74
0
 40
0
 40
0
 40
0
 40
0
 40
1
 40
1
 40
1
 40
1
 10
32.604851
 20
291.338058
 30
0.0
 10
32.604851
 20
291.338058
 30
0.0
 10
32.799020
 20
295.112780
 30
0.0
 10
33.310407
 20
296.030002
 30
0.0
  0
SPLINE
  5
17a
100
AcDbEntity
  8
0
 62
7
100
AcDbSpline
 70
8
 71
3
 72
8
 73
4
 74
0
 40
0
 40
0
 40
0
 40
0
 40
1
 40
1
 40
1
 40
1
 10
32.939849
 20
290.950002
 30
0.0
 10
32.939849
 20
290.950002
 30
0.0
 10
32.975127
 20
293.701669
 30
0.0
 10
33.839573
 20
295.112780
 30
0.0
  0
SPLINE
  5
17b
100
AcDbEntity
  8
0
 62
7
100
AcDbSpline
 70
8
 71
3
 72
8
 73
4
 74
0
 40
0
 40
0
 40
0
 40
0
 40
1
 40
1
 40
1
 40
1
 10
33.645404
 20
290.032780
 30
0.0
 10
33.645404
 20
290.032780
 30
0.0
 10
33.839573
 20
295.341944
 30
0.0
 10
34.386238
 20
296.488613
 30
0.0
  0
SPLINE
  5
17c
100
AcDbEntity
  8
0
 62
7
100
AcDbSpline
 70
8
 71
3
 72
8
 73
4
 74
0
 40
0
 40
0
 40
0
 40
0
 40
1
 40
1
 40
1
 40
1
 10
33.257349
 20
290.526669
 30
0.0
 10
33.257349
 20
290.526669
 30
0.0
 10
34.544847
 20
295.253891
 30
0.0
 10
35.391513
 20
295.835833
 30
0.0
  0
SPLINE
  5
17d
100
AcDbEntity
  8
0
 62
7
100
AcDbSpline
 70
8
 71
3
 72
8
 73
4
 74
0
 40
0
 40
0
 40
0
 40
0
 40
1
 40
1
 40
1
 40
1
 10
34.033460
 20
289.503613
 30
0.0
 10
34.033460
 20
289.503613
 30
0.0
 10
34.086518
 20
290.950002
 30
0.0
 10
34.439296
 20
292.061111
 30
0.0
  0
SPLINE
  5
17e
100
AcDbEntity
  8
0
 62
7
100
AcDbSpline
 70
8
 71
3
 72
8
 73
4
 74
0
 40
0
 40
0
 40
0
 40
0
 40
1
 40
1
 40
1
 40
1
 10
34.439296
 20
292.061111
 30
0.0
 10
34.792073
 20
293.172220
 30
0.0
 10
35.656238
 20
296.065280
 30
0.0
 10
35.779851
 20
296.382498
 30
0.0
  0
SPLINE
  5
17f
100
AcDbEntity
  8
0
 62
7
100
AcDbSpline
 70
8
 71
3
 72
8
 73
4
 74
0
 40
0
 40
0
 40
0
 40
0
 40
1
 40
1
 40
1
 40
1
 10
34.492071
 20
288.833336
 30
0.0
 10
34.492071
 20
288.833336
 30
0.0
 10
34.315682
 20
289.821113
 30
0.0
 10
34.774293
 20
290.967500
 30
0.0
  0
SPLINE
  5
180
100
AcDbEntity
  8
0
 62
7
100
AcDbSpline
 70
8
 71
3
 72
8
 73
4
 74
0
 40
0
 40
0
 40
0
 40
0
 40
1
 40
1
 40
1
 40
1
 10
34.774293
 20
290.967500
 30
0.0
 10
35.232904
 20
292.113887
 30
0.0
 10
36.344013
 20
294.989167
 30
0.0
 10
36.555680
 20
295.288887
 30
0.0
  0
SPLINE
  5
181
100
AcDbEntity
  8
0
 62
7
100
AcDbSpline
 70
8
 71
3
 72
8
 73
4
 74
0
 40
0
 40
0
 40
0
 40
0
 40
1
 40
1
 40
1
 40
1
 10
34.915404
 20
288.304169
 30
0.0
 10
34.915404
 20
288.304169
 30
0.0
 10
34.915404
 20
289.574169
 30
0.0
 10
35.215124
 20
290.332782
 30
0.0
  0
SPLINE
  5
182
100
AcDbEntity
  8
0
 62
7
100
AcDbSpline
 70
8
 71
3
 72
8
 73
4
 74
0
 40
0
 40
0
 40
0
 40
0
 40
1
 40
1
 40
1
 40
1
 10
35.215124
 20
290.332782
 30
0.0
 10
35.514844
 20
291.091396
 30
0.0
 10
37.437624
 20
295.730282
 30
0.0
 10
37.667071
 20
295.924169
 30
0.0
  0
SPLINE
  5
183
100
AcDbEntity
  8
0
 62
7
100
AcDbSpline
 70
8
 71
3
 72
8
 73
4
 74
0
 40
0
 40
0
 40
0
 40
0
 40
1
 40
1
 40
1
 40
1
 10
35.603462
 20
287.228056
 30
0.0
 10
35.603462
 20
287.228056
 30
0.0
 10
35.180129
 20
294.548336
 30
0.0
 10
37.879020
 20
296.947224
 30
0.0
  0
SPLINE
  5
184
100
AcDbEntity
  8
0
 62
7
100
AcDbSpline
 70
8
 71
3
 72
8
 73
4
 74
0
 40
0
 40
0
 40
0
 40
0
 40
1
 40
1
 40
1
 40
1
 10
35.250684
 20
287.775002
 30
0.0
 10
35.250684
 20
287.775002
 30
0.0
 10
36.926520
 20
293.207780
 30
0.0
 10
40.454298
 20
295.006947
 30
0.0
  0
SPLINE
  5
185
100
AcDbEntity
  8
0
 62
7
100
AcDbSpline
 70
8
 71
3
 72
8
 73
4
 74
0
 40
0
 40
0
 40
0
 40
0
 40
1
 40
1
 40
1
 40
1
 10
36.079571
 20
286.505002
 30
0.0
 10
36.079571
 20
286.505002
 30
0.0
 10
36.608738
 20
293.401949
 30
0.0
 10
39.395682
 20
295.148058
 30
0.0
  0
SPLINE
  5
186
100
AcDbEntity
  8
0
 62
7
100
AcDbSpline
 70
8
 71
3
 72
8
 73
4
 74
0
 40
0
 40
0
 40
0
 40
0
 40
1
 40
1
 40
1
 40
1
 10
36.432349
 20
286.028611
 30
0.0
 10
36.432349
 20
286.028611
 30
0.0
 10
37.702349
 20
291.955278
 30
0.0
 10
39.307629
 20
293.031109
 30
0.0
  0
SPLINE
  5
187
100
AcDbEntity
  8
0
 62
7
100
AcDbSpline
 70
8
 71
3
 72
8
 73
4
 74
0
 40
0
 40
0
 40
0
 40
0
 40
1
 40
1
 40
1
 40
1
 10
36.838184
 20
285.393611
 30
0.0
 10
36.838184
 20
285.393611
 30
0.0
 10
36.820687
 20
286.363891
 30
0.0
 10
37.190962
 20
287.404444
 30
0.0
  0
SPLINE
  5
188
100
AcDbEntity
  8
0
 62
7
100
AcDbSpline
 70
8
 71
3
 72
8
 73
4
 74
0
 40
0
 40
0
 40
0
 40
0
 40
1
 40
1
 40
1
 40
1
 10
37.190962
 20
287.404444
 30
0.0
 10
37.561238
 20
288.444998
 30
0.0
 10
39.466238
 20
293.719167
 30
0.0
 10
38.319851
 20
296.506111
 30
0.0
  0
SPLINE
  5
189
100
AcDbEntity
  8
0
 62
7
100
AcDbSpline
 70
8
 71
3
 72
8
 73
4
 74
0
 40
0
 40
0
 40
0
 40
0
 40
1
 40
1
 40
1
 40
1
 10
37.155684
 20
284.882224
 30
0.0
 10
37.155684
 20
284.882224
 30
0.0
 10
37.190962
 20
285.887500
 30
0.0
 10
37.455404
 20
286.434447
 30
0.0
  0
SPLINE
  5
18a
100
AcDbEntity
  8
0
 62
7
100
AcDbSpline
 70
8
 71
3
 72
8
 73
4
 74
0
 40
0
 40
0
 40
0
 40
0
 40
1
 40
1
 40
1
 40
1
 10
37.455404
 20
286.434447
 30
0.0
 10
37.719847
 20
286.981393
 30
0.0
 10
38.549016
 20
289.344722
 30
0.0
 10
38.760682
 20
290.191389
 30
0.0
  0
SPLINE
  5
18b
100
AcDbEntity
  8
0
 62
7
100
AcDbSpline
 70
8
 71
3
 72
8
 73
4
 74
0
 40
0
 40
0
 40
0
 40
0
 40
1
 40
1
 40
1
 40
1
 10
38.760682
 20
290.191389
 30
0.0
 10
38.972349
 20
291.038056
 30
0.0
 10
40.718740
 20
293.172220
 30
0.0
 10
40.912627
 20
293.383887
 30
0.0
  0
SPLINE
  5
18c
100
AcDbEntity
  8
0
 62
7
100
AcDbSpline
 70
8
 71
3
 72
8
 73
4
 74
0
 40
0
 40
0
 40
0
 40
0
 40
1
 40
1
 40
1
 40
1
 10
37.561520
 20
284.247224
 30
0.0
 10
37.561520
 20
284.247224
 30
0.0
 10
37.861240
 20
287.034169
 30
0.0
 10
38.549298
 20
287.880836
 30
0.0
  0
SPLINE
  5
18d
100
AcDbEntity
  8
0
 62
7
100
AcDbSpline
 70
8
 71
3
 72
8
 73
4
 74
0
 40
0
 40
0
 40
0
 40
0
 40
1
 40
1
 40
1
 40
1
 10
38.549298
 20
287.880836
 30
0.0
 10
39.237356
 20
288.727502
 30
0.0
 10
42.570964
 20
294.742222
 30
0.0
 10
42.570964
 20
294.742222
 30
0.0
  0
SPLINE
  5
18e
100
AcDbEntity
  8
0
 62
7
100
AcDbSpline
 70
8
 71
3
 72
8
 73
4
 74
0
 40
0
 40
0
 40
0
 40
0
 40
1
 40
1
 40
1
 40
1
 10
37.914298
 20
283.629722
 30
0.0
 10
37.914298
 20
283.629722
 30
0.0
 10
38.090687
 20
285.181944
 30
0.0
 10
38.320133
 20
285.852222
 30
0.0
  0
SPLINE
  5
18f
100
AcDbEntity
  8
0
 62
7
100
AcDbSpline
 70
8
 71
3
 72
8
 73
4
 74
0
 40
0
 40
0
 40
0
 40
0
 40
1
 40
1
 40
1
 40
1
 10
38.320133
 20
285.852222
 30
0.0
 10
38.549580
 20
286.522500
 30
0.0
 10
41.918467
 20
294.442502
 30
0.0
 10
41.971524
 20
294.671667
 30
0.0
  0
SPLINE
  5
190
100
AcDbEntity
  8
0
 62
7
100
AcDbSpline
 70
8
 71
3
 72
8
 73
4
 74
0
 40
0
 40
0
 40
0
 40
0
 40
1
 40
1
 40
1
 40
1
 10
38.337631
 20
282.977224
 30
0.0
 10
38.337631
 20
282.977224
 30
0.0
 10
38.284573
 20
283.735838
 30
0.0
 10
38.707907
 20
284.335278
 30
0.0
  0
SPLINE
  5
191
100
AcDbEntity
  8
0
 62
7
100
AcDbSpline
 70
8
 71
3
 72
8
 73
4
 74
0
 40
0
 40
0
 40
0
 40
0
 40
1
 40
1
 40
1
 40
1
 10
38.707907
 20
284.335278
 30
0.0
 10
39.131240
 20
284.934718
 30
0.0
 10
41.706518
 20
289.556389
 30
0.0
 10
42.094573
 20
290.173891
 30
0.0
  0
SPLINE
  5
192
100
AcDbEntity
  8
0
 62
7
100
AcDbSpline
 70
8
 71
3
 72
8
 73
4
 74
0
 40
0
 40
0
 40
0
 40
0
 40
1
 40
1
 40
1
 40
1
 10
38.655131
 20
282.395000
 30
0.0
 10
38.655131
 20
282.395000
 30
0.0
 10
38.584576
 20
283.224169
 30
0.0
 10
39.254853
 20
283.947222
 30
0.0
  0
SPLINE
  5
193
100
AcDbEntity
  8
0
 62
7
100
AcDbSpline
 70
8
 71
3
 72
8
 73
4
 74
0
 40
0
 40
0
 40
0
 40
0
 40
1
 40
1
 40
1
 40
1
 10
39.254853
 20
283.947222
 30
0.0
 10
39.925131
 20
284.670276
 30
0.0
 10
43.223462
 20
288.586391
 30
0.0
 10
43.999573
 20
291.390833
 30
0.0
  0
SPLINE
  5
194
100
AcDbEntity
  8
0
 62
7
100
AcDbSpline
 70
8
 71
3
 72
8
 73
4
 74
0
 40
0
 40
0
 40
0
 40
0
 40
1
 40
1
 40
1
 40
1
 10
39.713464
 20
280.419444
 30
0.0
 10
39.713464
 20
280.419444
 30
0.0
 10
40.577629
 20
286.504720
 30
0.0
 10
41.512631
 20
287.933611
 30
0.0
  0
SPLINE
  5
195
100
AcDbEntity
  8
0
 62
7
100
AcDbSpline
 70
8
 71
3
 72
8
 73
4
 74
0
 40
0
 40
0
 40
0
 40
0
 40
1
 40
1
 40
1
 40
1
 10
38.990129
 20
281.830556
 30
0.0
 10
38.990129
 20
281.830556
 30
0.0
 10
39.148738
 20
282.959444
 30
0.0
 10
39.660407
 20
283.453333
 30
0.0
  0
SPLINE
  5
196
100
AcDbEntity
  8
0
 62
7
100
AcDbSpline
 70
8
 71
3
 72
8
 73
4
 74
0
 40
0
 40
0
 40
0
 40
0
 40
1
 40
1
 40
1
 40
1
 10
39.660407
 20
283.453333
 30
0.0
 10
40.172076
 20
283.947222
 30
0.0
 10
42.959020
 20
287.139720
 30
0.0
 10
43.223462
 20
287.351387
 30
0.0
  0
SPLINE
  5
197
100
AcDbEntity
  8
0
 62
7
100
AcDbSpline
 70
8
 71
3
 72
8
 73
4
 74
0
 40
0
 40
0
 40
0
 40
0
 40
1
 40
1
 40
1
 40
1
 10
39.272351
 20
281.336667
 30
0.0
 10
39.272351
 20
281.336667
 30
0.0
 10
38.990129
 20
282.183333
 30
0.0
 10
40.577629
 20
283.506391
 30
0.0
  0
SPLINE
  5
198
100
AcDbEntity
  8
0
 62
7
100
AcDbSpline
 70
8
 71
3
 72
8
 73
4
 74
0
 40
0
 40
0
 40
0
 40
0
 40
1
 40
1
 40
1
 40
1
 10
40.577629
 20
283.506391
 30
0.0
 10
42.165129
 20
284.829449
 30
0.0
 10
44.122904
 20
288.515836
 30
0.0
 10
44.122904
 20
288.603889
 30
0.0
  0
SPLINE
  5
199
100
AcDbEntity
  8
0
 62
7
100
AcDbSpline
 70
8
 71
3
 72
8
 73
4
 74
0
 40
0
 40
0
 40
0
 40
0
 40
1
 40
1
 40
1
 40
1
 10
39.537076
 20
280.842778
 30
0.0
 10
39.537076
 20
280.842778
 30
0.0
 10
41.106796
 20
282.712500
 30
0.0
 10
41.600684
 20
283.083058
 30
0.0
  0
SPLINE
  5
19a
100
AcDbEntity
  8
0
 62
7
100
AcDbSpline
 70
8
 71
3
 72
8
 73
4
 74
0
 40
0
 40
0
 40
0
 40
0
 40
1
 40
1
 40
1
 40
1
 10
41.600684
 20
283.083058
 30
0.0
 10
42.094573
 20
283.453616
 30
0.0
 10
43.452627
 20
284.793889
 30
0.0
 10
44.281796
 20
284.952780
 30
0.0
  0
SPLINE
  5
19b
100
AcDbEntity
  8
0
 62
7
100
AcDbSpline
 70
8
 71
3
 72
8
 73
4
 74
0
 40
0
 40
0
 40
0
 40
0
 40
1
 40
1
 40
1
 40
1
 10
44.281796
 20
284.952780
 30
0.0
 10
45.110964
 20
285.111671
 30
0.0
 10
48.162351
 20
285.993616
 30
0.0
 10
48.603182
 20
286.522500
 30
0.0
  0
SPLINE
  5
19c
100
AcDbEntity
  8
0
 62
7
100
AcDbSpline
 70
8
 71
3
 72
8
 73
4
 74
0
 40
0
 40
0
 40
0
 40
0
 40
1
 40
1
 40
1
 40
1
 10
40.136798
 20
279.749167
 30
0.0
 10
40.136798
 20
279.749167
 30
0.0
 10
40.154296
 20
280.366669
 30
0.0
 10
40.718740
 20
281.019167
 30
0.0
  0
SPLINE
  5
19d
100
AcDbEntity
  8
0
 62
7
100
AcDbSpline
 70
8
 71
3
 72
8
 73
4
 74
0
 40
0
 40
0
 40
0
 40
0
 40
1
 40
1
 40
1
 40
1
 10
40.718740
 20
281.019167
 30
0.0
 10
41.283184
 20
281.671664
 30
0.0
 10
45.569576
 20
285.235002
 30
0.0
 10
45.216798
 20
289.485833
 30
0.0
  0
SPLINE
  5
19e
100
AcDbEntity
  8
0
 62
7
100
AcDbSpline
 70
8
 71
3
 72
8
 73
4
 74
0
 40
0
 40
0
 40
0
 40
0
 40
1
 40
1
 40
1
 40
1
 10
40.401240
 20
279.237780
 30
0.0
 10
40.401240
 20
279.237780
 30
0.0
 10
40.612907
 20
280.366669
 30
0.0
 10
41.970960
 20
281.513056
 30
0.0
  0
SPLINE
  5
19f
100
AcDbEntity
  8
0
 62
7
100
AcDbSpline
 70
8
 71
3
 72
8
 73
4
 74
0
 40
0
 40
0
 40
0
 40
0
 40
1
 40
1
 40
1
 40
1
 10
41.970960
 20
281.513056
 30
0.0
 10
43.329013
 20
282.659442
 30
0.0
 10
45.798740
 20
285.023336
 30
0.0
 10
46.380964
 20
287.404444
 30
0.0
  0
SPLINE
  5
1a0
100
AcDbEntity
  8
0
 62
7
100
AcDbSpline
 70
8
 71
3
 72
8
 73
4
 74
0
 40
0
 40
0
 40
0
 40
0
 40
1
 40
1
 40
1
 40
1
 10
40.630687
 20
278.726111
 30
0.0
 10
40.630687
 20
278.726111
 30
0.0
 10
41.089298
 20
280.225276
 30
0.0
 10
43.064853
 20
281.848053
 30
0.0
  0
SPLINE
  5
1a1
100
AcDbEntity
  8
0
 62
7
100
AcDbSpline
 70
8
 71
3
 72
8
 73
4
 74
0
 40
0
 40
0
 40
0
 40
0
 40
1
 40
1
 40
1
 40
1
 10
43.064853
 20
281.848053
 30
0.0
 10
45.040409
 20
283.470831
 30
0.0
 10
46.434022
 20
285.446387
 30
0.0
 10
46.610129
 20
285.887218
 30
0.0
  0
SPLINE
  5
1a2
100
AcDbEntity
  8
0
 62
7
100
AcDbSpline
 70
8
 71
3
 72
8
 73
4
 74
0
 40
0
 40
0
 40
0
 40
0
 40
1
 40
1
 40
1
 40
1
 10
40.859851
 20
278.285280
 30
0.0
 10
40.859851
 20
278.285280
 30
0.0
 10
40.877349
 20
279.625836
 30
0.0
 10
43.064571
 20
280.895836
 30
0.0
  0
SPLINE
  5
1a3
100
AcDbEntity
  8
0
 62
7
100
AcDbSpline
 70
8
 71
3
 72
8
 73
4
 74
0
 40
0
 40
0
 40
0
 40
0
 40
1
 40
1
 40
1
 40
1
 10
43.064571
 20
280.895836
 30
0.0
 10
45.251793
 20
282.165836
 30
0.0
 10
48.373736
 20
287.175280
 30
0.0
 10
48.832629
 20
288.568893
 30
0.0
  0
SPLINE
  5
1a4
100
AcDbEntity
  8
0
 62
7
100
AcDbSpline
 70
8
 71
3
 72
8
 73
4
 74
0
 40
0
 40
0
 40
0
 40
0
 40
1
 40
1
 40
1
 40
1
 10
41.124576
 20
277.826669
 30
0.0
 10
41.124576
 20
277.826669
 30
0.0
 10
42.006520
 20
280.313611
 30
0.0
 10
43.064853
 20
281.266393
 30
0.0
  0
SPLINE
  5
1a5
100
AcDbEntity
  8
0
 62
7
100
AcDbSpline
 70
8
 71
3
 72
8
 73
4
 74
0
 40
0
 40
0
 40
0
 40
0
 40
1
 40
1
 40
1
 40
1
 10
43.064853
 20
281.266393
 30
0.0
 10
44.123187
 20
282.219176
 30
0.0
 10
44.493462
 20
287.528340
 30
0.0
 10
43.999573
 20
289.274449
 30
0.0
  0
SPLINE
  5
1a6
100
AcDbEntity
  8
0
 62
7
100
AcDbSpline
 70
8
 71
3
 72
8
 73
4
 74
0
 40
0
 40
0
 40
0
 40
0
 40
1
 40
1
 40
1
 40
1
 10
41.333420
 20
277.313024
 30
0.0
 10
41.333420
 20
277.313024
 30
0.0
 10
41.678860
 20
278.279918
 30
0.0
 10
42.346316
 20
279.177384
 30
0.0
  0
SPLINE
  5
1a7
100
AcDbEntity
  8
0
 62
7
100
AcDbSpline
 70
8
 71
3
 72
8
 73
4
 74
0
 40
0
 40
0
 40
0
 40
0
 40
1
 40
1
 40
1
 40
1
 10
42.346316
 20
279.177384
 30
0.0
 10
43.013771
 20
280.074851
 30
0.0
 10
44.233818
 20
282.445800
 30
0.0
 10
44.187533
 20
284.264158
 30
0.0
  0
SPLINE
  5
1a8
100
AcDbEntity
  8
0
 62
7
100
AcDbSpline
 70
8
 71
3
 72
8
 73
4
 74
0
 40
0
 40
0
 40
0
 40
0
 40
1
 40
1
 40
1
 40
1
 10
41.563713
 20
276.852720
 30
0.0
 10
41.563713
 20
276.852720
 30
0.0
 10
41.241133
 20
277.451313
 30
0.0
 10
42.622329
 20
278.647936
 30
0.0
  0
SPLINE
  5
1a9
100
AcDbEntity
  8
0
 62
7
100
AcDbSpline
 70
8
 71
3
 72
8
 73
4
 74
0
 40
0
 40
0
 40
0
 40
0
 40
1
 40
1
 40
1
 40
1
 10
42.622329
 20
278.647936
 30
0.0
 10
44.003524
 20
279.844558
 30
0.0
 10
46.351049
 20
282.790958
 30
0.0
 10
46.351049
 20
282.790958
 30
0.0
  0
SPLINE
  5
1aa
100
AcDbEntity
  8
0
 62
7
100
AcDbSpline
 70
8
 71
3
 72
8
 73
4
 74
0
 40
0
 40
0
 40
0
 40
0
 40
1
 40
1
 40
1
 40
1
 10
41.840009
 20
276.277269
 30
0.0
 10
41.840009
 20
276.277269
 30
0.0
 10
41.955156
 20
277.359027
 30
0.0
 10
42.898907
 20
278.049624
 30
0.0
  0
SPLINE
  5
1ab
100
AcDbEntity
  8
0
 62
7
100
AcDbSpline
 70
8
 71
3
 72
8
 73
4
 74
0
 40
0
 40
0
 40
0
 40
0
 40
1
 40
1
 40
1
 40
1
 10
42.898907
 20
278.049624
 30
0.0
 10
43.842658
 20
278.740222
 30
0.0
 10
48.699420
 20
283.021533
 30
0.0
 10
48.353698
 20
286.934262
 30
0.0
  0
SPLINE
  5
1ac
100
AcDbEntity
  8
0
 62
7
100
AcDbSpline
 70
8
 71
3
 72
8
 73
4
 74
0
 40
0
 40
0
 40
0
 40
0
 40
1
 40
1
 40
1
 40
1
 10
42.046878
 20
275.701818
 30
0.0
 10
42.046878
 20
275.701818
 30
0.0
 10
41.794007
 20
276.254409
 30
0.0
 10
42.921767
 20
277.083013
 30
0.0
  0
SPLINE
  5
1ad
100
AcDbEntity
  8
0
 62
7
100
AcDbSpline
 70
8
 71
3
 72
8
 73
4
 74
0
 40
0
 40
0
 40
0
 40
0
 40
1
 40
1
 40
1
 40
1
 10
42.921767
 20
277.083013
 30
0.0
 10
44.049527
 20
277.911618
 30
0.0
 10
47.985398
 20
279.913984
 30
0.0
 10
46.075036
 20
289.788658
 30
0.0
  0
SPLINE
  5
1ae
100
AcDbEntity
  8
0
 62
7
100
AcDbSpline
 70
8
 71
3
 72
8
 73
4
 74
0
 40
0
 40
0
 40
0
 40
0
 40
1
 40
1
 40
1
 40
1
 10
42.323456
 20
275.127213
 30
0.0
 10
42.323456
 20
275.127213
 30
0.0
 10
43.359211
 20
276.853567
 30
0.0
 10
44.532973
 20
277.728173
 30
0.0
  0
SPLINE
  5
1af
100
AcDbEntity
  8
0
 62
7
100
AcDbSpline
 70
8
 71
3
 72
8
 73
4
 74
0
 40
0
 40
0
 40
0
 40
0
 40
1
 40
1
 40
1
 40
1
 10
44.532973
 20
277.728173
 30
0.0
 10
45.706736
 20
278.602780
 30
0.0
 10
47.386804
 20
280.467422
 30
0.0
 10
47.386804
 20
280.467422
 30
0.0
  0
SPLINE
  5
1b0
100
AcDbEntity
  8
0
 62
7
100
AcDbSpline
 70
8
 71
3
 72
8
 73
4
 74
0
 40
0
 40
0
 40
0
 40
0
 40
1
 40
1
 40
1
 40
1
 10
42.576327
 20
274.482618
 30
0.0
 10
42.576327
 20
274.482618
 30
0.0
 10
43.059773
 20
275.633520
 30
0.0
 10
43.588940
 20
276.024680
 30
0.0
  0
SPLINE
  5
1b1
100
AcDbEntity
  8
0
 62
7
100
AcDbSpline
 70
8
 71
3
 72
8
 73
4
 74
0
 40
0
 40
0
 40
0
 40
0
 40
1
 40
1
 40
1
 40
1
 10
43.588940
 20
276.024680
 30
0.0
 10
44.118671
 20
276.415840
 30
0.0
 10
46.742491
 20
278.602780
 30
0.0
 10
47.249080
 20
279.822544
 30
0.0
  0
SPLINE
  5
1b2
100
AcDbEntity
  8
0
 62
7
100
AcDbSpline
 70
8
 71
3
 72
8
 73
4
 74
0
 40
0
 40
0
 40
0
 40
0
 40
1
 40
1
 40
1
 40
1
 10
47.249080
 20
279.822544
 30
0.0
 10
47.755387
 20
281.042309
 30
0.0
 10
48.745140
 20
283.620409
 30
0.0
 10
48.929149
 20
283.781558
 30
0.0
  0
SPLINE
  5
1b3
100
AcDbEntity
  8
0
 62
7
100
AcDbSpline
 70
8
 71
3
 72
8
 73
4
 74
0
 40
0
 40
0
 40
0
 40
0
 40
1
 40
1
 40
1
 40
1
 10
42.852622
 20
273.746018
 30
0.0
 10
42.852622
 20
273.746018
 30
0.0
 10
43.520078
 20
275.472371
 30
0.0
 10
44.510113
 20
276.024680
 30
0.0
  0
SPLINE
  5
1b4
100
AcDbEntity
  8
0
 62
7
100
AcDbSpline
 70
8
 71
3
 72
8
 73
4
 74
0
 40
0
 40
0
 40
0
 40
0
 40
1
 40
1
 40
1
 40
1
 10
44.510113
 20
276.024680
 30
0.0
 10
45.499584
 20
276.577271
 30
0.0
 10
49.412596
 20
280.904302
 30
0.0
 10
49.642889
 20
281.410609
 30
0.0
  0
SPLINE
  5
1b5
100
AcDbEntity
  8
0
 62
7
100
AcDbSpline
 70
8
 71
3
 72
8
 73
4
 74
0
 40
0
 40
0
 40
0
 40
0
 40
1
 40
1
 40
1
 40
1
 10
43.336069
 20
272.618258
 30
0.0
 10
43.336069
 20
272.618258
 30
0.0
 10
45.016138
 20
277.474738
 30
0.0
 10
47.041929
 20
278.925078
 30
0.0
  0
SPLINE
  5
1b6
100
AcDbEntity
  8
0
 62
7
100
AcDbSpline
 70
8
 71
3
 72
8
 73
4
 74
0
 40
0
 40
0
 40
0
 40
0
 40
1
 40
1
 40
1
 40
1
 10
43.105776
 20
273.147424
 30
0.0
 10
43.105776
 20
273.147424
 30
0.0
 10
43.128636
 20
273.814880
 30
0.0
 10
44.970136
 20
274.413473
 30
0.0
  0
SPLINE
  5
1b7
100
AcDbEntity
  8
0
 62
7
100
AcDbSpline
 70
8
 71
3
 72
8
 73
4
 74
0
 40
0
 40
0
 40
0
 40
0
 40
1
 40
1
 40
1
 40
1
 10
44.970136
 20
274.413473
 30
0.0
 10
46.811353
 20
275.012067
 30
0.0
 10
50.839511
 20
278.763647
 30
0.0
 10
49.872618
 20
284.103573
 30
0.0
  0
SPLINE
  5
1b8
100
AcDbEntity
  8
0
 62
7
100
AcDbSpline
 70
8
 71
3
 72
8
 73
4
 74
0
 40
0
 40
0
 40
0
 40
0
 40
1
 40
1
 40
1
 40
1
 10
43.566080
 20
271.996804
 30
0.0
 10
43.566080
 20
271.996804
 30
0.0
 10
46.213042
 20
276.853284
 30
0.0
 10
49.619747
 20
280.743436
 30
0.0
  0
SPLINE
  5
1b9
100
AcDbEntity
  8
0
 62
7
100
AcDbSpline
 70
8
 71
3
 72
8
 73
4
 74
0
 40
0
 40
0
 40
0
 40
0
 40
1
 40
1
 40
1
 40
1
 10
43.796373
 20
271.329349
 30
0.0
 10
43.796373
 20
271.329349
 30
0.0
 10
44.371824
 20
272.963698
 30
0.0
 10
44.993278
 20
273.654013
 30
0.0
  0
SPLINE
  5
1ba
100
AcDbEntity
  8
0
 62
7
100
AcDbSpline
 70
8
 71
3
 72
8
 73
4
 74
0
 40
0
 40
0
 40
0
 40
0
 40
1
 40
1
 40
1
 40
1
 10
44.993278
 20
273.654013
 30
0.0
 10
45.614731
 20
274.344329
 30
0.0
 10
49.320591
 20
279.684538
 30
0.0
 10
49.389453
 20
280.236847
 30
0.0
  0
SPLINE
  5
1bb
100
AcDbEntity
  8
0
 62
7
100
AcDbSpline
 70
8
 71
3
 72
8
 73
4
 74
0
 40
0
 40
0
 40
0
 40
0
 40
1
 40
1
 40
1
 40
1
 10
44.003524
 20
270.776758
 30
0.0
 10
44.003524
 20
270.776758
 30
0.0
 10
44.602118
 20
272.549113
 30
0.0
 10
45.591589
 20
273.262571
 30
0.0
  0
SPLINE
  5
1bc
100
AcDbEntity
  8
0
 62
7
100
AcDbSpline
 70
8
 71
3
 72
8
 73
4
 74
0
 40
0
 40
0
 40
0
 40
0
 40
1
 40
1
 40
1
 40
1
 10
45.591589
 20
273.262571
 30
0.0
 10
46.581624
 20
273.976029
 30
0.0
 10
49.297731
 20
277.797036
 30
0.0
 10
49.090298
 20
281.226600
 30
0.0
  0
SPLINE
  5
1bd
100
AcDbEntity
  8
0
 62
7
100
AcDbSpline
 70
8
 71
3
 72
8
 73
4
 74
0
 40
0
 40
0
 40
0
 40
0
 40
1
 40
1
 40
1
 40
1
 10
44.256396
 20
270.155304
 30
0.0
 10
44.256396
 20
270.155304
 30
0.0
 10
44.946993
 20
271.996804
 30
0.0
 10
46.167040
 20
273.446862
 30
0.0
  0
SPLINE
  5
1be
100
AcDbEntity
  8
0
 62
7
100
AcDbSpline
 70
8
 71
3
 72
8
 73
4
 74
0
 40
0
 40
0
 40
0
 40
0
 40
1
 40
1
 40
1
 40
1
 10
46.167040
 20
273.446862
 30
0.0
 10
47.387087
 20
274.896920
 30
0.0
 10
49.596604
 20
278.257340
 30
0.0
 10
49.596604
 20
280.490282
 30
0.0
  0
SPLINE
  5
1bf
100
AcDbEntity
  8
0
 62
7
100
AcDbSpline
 70
8
 71
3
 72
8
 73
4
 74
0
 40
0
 40
0
 40
0
 40
0
 40
1
 40
1
 40
1
 40
1
 10
44.440969
 20
269.672422
 30
0.0
 10
44.440969
 20
269.672422
 30
0.0
 10
44.763267
 20
271.237344
 30
0.0
 10
46.006173
 20
272.411389
 30
0.0
  0
SPLINE
  5
1c0
100
AcDbEntity
  8
0
 62
7
100
AcDbSpline
 70
8
 71
3
 72
8
 73
4
 74
0
 40
0
 40
0
 40
0
 40
0
 40
1
 40
1
 40
1
 40
1
 10
46.006173
 20
272.411389
 30
0.0
 10
47.249080
 20
273.585433
 30
0.0
 10
50.770649
 20
278.142758
 30
0.0
 10
50.540356
 20
282.907233
 30
0.0
  0
SPLINE
  5
1c1
100
AcDbEntity
  8
0
 62
7
100
AcDbSpline
 70
8
 71
3
 72
8
 73
4
 74
0
 40
0
 40
0
 40
0
 40
0
 40
1
 40
1
 40
1
 40
1
 10
44.624978
 20
269.096971
 30
0.0
 10
44.624978
 20
269.096971
 30
0.0
 10
44.947276
 20
270.132727
 30
0.0
 10
46.121320
 20
271.398776
 30
0.0
  0
SPLINE
  5
1c2
100
AcDbEntity
  8
0
 62
7
100
AcDbSpline
 70
8
 71
3
 72
8
 73
4
 74
0
 40
0
 40
0
 40
0
 40
0
 40
1
 40
1
 40
1
 40
1
 10
46.121320
 20
271.398776
 30
0.0
 10
47.294800
 20
272.664542
 30
0.0
 10
48.998293
 20
275.035491
 30
0.0
 10
49.228587
 20
275.610942
 30
0.0
  0
SPLINE
  5
1c3
100
AcDbEntity
  8
0
 62
7
100
AcDbSpline
 70
8
 71
3
 72
8
 73
4
 74
0
 40
0
 40
0
 40
0
 40
0
 40
1
 40
1
 40
1
 40
1
 10
44.832129
 20
268.475518
 30
0.0
 10
44.832129
 20
268.475518
 30
0.0
 10
45.430722
 20
269.856713
 30
0.0
 10
46.029316
 20
270.386162
 30
0.0
  0
SPLINE
  5
1c4
100
AcDbEntity
  8
0
 62
7
100
AcDbSpline
 70
8
 71
3
 72
8
 73
4
 74
0
 40
0
 40
0
 40
0
 40
0
 40
1
 40
1
 40
1
 40
1
 10
46.029316
 20
270.386162
 30
0.0
 10
46.627344
 20
270.915329
 30
0.0
 10
48.353698
 20
272.917978
 30
0.0
 10
48.537989
 20
273.079127
 30
0.0
  0
SPLINE
  5
1c5
100
AcDbEntity
  8
0
 62
7
100
AcDbSpline
 70
8
 71
3
 72
8
 73
4
 74
0
 40
0
 40
0
 40
0
 40
0
 40
1
 40
1
 40
1
 40
1
 10
44.993278
 20
267.969776
 30
0.0
 10
44.993278
 20
267.969776
 30
0.0
 10
45.430722
 20
268.959529
 30
0.0
 10
45.891027
 20
269.419833
 30
0.0
  0
SPLINE
  5
1c6
100
AcDbEntity
  8
0
 62
7
100
AcDbSpline
 70
8
 71
3
 72
8
 73
4
 74
0
 40
0
 40
0
 40
0
 40
0
 40
1
 40
1
 40
1
 40
1
 10
45.891027
 20
269.419833
 30
0.0
 10
46.351331
 20
269.880138
 30
0.0
 10
48.353980
 20
271.882787
 30
0.0
 10
48.492269
 20
271.974791
 30
0.0
  0
SPLINE
  5
1c7
100
AcDbEntity
  8
0
 62
7
100
AcDbSpline
 70
8
 71
3
 72
8
 73
4
 74
0
 40
0
 40
0
 40
0
 40
0
 40
1
 40
1
 40
1
 40
1
 10
45.223289
 20
267.325180
 30
0.0
 10
45.223289
 20
267.325180
 30
0.0
 10
45.499584
 20
268.522084
 30
0.0
 10
46.374191
 20
269.143538
 30
0.0
  0
SPLINE
  5
1c8
100
AcDbEntity
  8
0
 62
7
100
AcDbSpline
 70
8
 71
3
 72
8
 73
4
 74
0
 40
0
 40
0
 40
0
 40
0
 40
1
 40
1
 40
1
 40
1
 10
46.374191
 20
269.143538
 30
0.0
 10
47.248798
 20
269.764991
 30
0.0
 10
47.847109
 20
270.455307
 30
0.0
 10
48.215409
 20
270.754744
 30
0.0
  0
SPLINE
  5
1c9
100
AcDbEntity
  8
0
 62
7
100
AcDbSpline
 70
8
 71
3
 72
8
 73
4
 74
0
 40
0
 40
0
 40
0
 40
0
 40
1
 40
1
 40
1
 40
1
 10
45.384720
 20
266.796013
 30
0.0
 10
45.384720
 20
266.796013
 30
0.0
 10
45.937311
 20
268.176927
 30
0.0
 10
46.742773
 20
268.821522
 30
0.0
  0
SPLINE
  5
1ca
100
AcDbEntity
  8
0
 62
7
100
AcDbSpline
 70
8
 71
3
 72
8
 73
4
 74
0
 40
0
 40
0
 40
0
 40
0
 40
1
 40
1
 40
1
 40
1
 10
46.742773
 20
268.821522
 30
0.0
 10
47.548518
 20
269.466118
 30
0.0
 10
48.906571
 20
270.709024
 30
0.0
 10
49.067720
 20
270.962178
 30
0.0
  0
SPLINE
  5
1cb
100
AcDbEntity
  8
0
 62
7
100
AcDbSpline
 70
8
 71
3
 72
8
 73
4
 74
0
 40
0
 40
0
 40
0
 40
0
 40
1
 40
1
 40
1
 40
1
 10
45.568729
 20
266.381429
 30
0.0
 10
45.568729
 20
266.381429
 30
0.0
 10
47.617380
 20
269.143820
 30
0.0
 10
48.561131
 20
269.696129
 30
0.0
  0
SPLINE
  5
1cc
100
AcDbEntity
  8
0
 62
7
100
AcDbSpline
 70
8
 71
3
 72
8
 73
4
 74
0
 40
0
 40
0
 40
0
 40
0
 40
1
 40
1
 40
1
 40
1
 10
45.752738
 20
265.760258
 30
0.0
 10
45.752738
 20
265.760258
 30
0.0
 10
47.087649
 20
268.522084
 30
0.0
 10
49.412596
 20
269.511838
 30
0.0
  0
SPLINE
  5
1cd
100
AcDbEntity
  8
0
 62
7
100
AcDbSpline
 70
8
 71
3
 72
8
 73
4
 74
0
 40
0
 40
0
 40
0
 40
0
 40
1
 40
1
 40
1
 40
1
 10
45.844742
 20
265.230809
 30
0.0
 10
45.844742
 20
265.230809
 30
0.0
 10
48.837144
 20
267.371464
 30
0.0
 10
49.872618
 20
272.135940
 30
0.0
  0
SPLINE
  5
1ce
100
AcDbEntity
  8
0
 62
7
100
AcDbSpline
 70
8
 71
3
 72
8
 73
4
 74
0
 40
0
 40
0
 40
0
 40
0
 40
1
 40
1
 40
1
 40
1
 10
46.075036
 20
264.724220
 30
0.0
 10
46.075036
 20
264.724220
 30
0.0
 10
48.031964
 20
266.818873
 30
0.0
 10
49.274589
 20
268.130924
 30
0.0
  0
SPLINE
  5
1cf
100
AcDbEntity
  8
0
 62
7
100
AcDbSpline
 70
8
 71
3
 72
8
 73
4
 74
0
 40
0
 40
0
 40
0
 40
0
 40
1
 40
1
 40
1
 40
1
 10
46.213324
 20
264.171911
 30
0.0
 10
46.213324
 20
264.171911
 30
0.0
 10
47.663382
 20
266.864876
 30
0.0
 10
49.159442
 20
267.739764
 30
0.0
  0
SPLINE
  5
1d0
100
AcDbEntity
  8
0
 62
7
100
AcDbSpline
 70
8
 71
3
 72
8
 73
4
 74
0
 40
0
 40
0
 40
0
 40
0
 40
1
 40
1
 40
1
 40
1
 10
46.351049
 20
263.688464
 30
0.0
 10
46.351049
 20
263.688464
 30
0.0
 10
47.847391
 20
266.081991
 30
0.0
 10
49.573462
 20
267.094887
 30
0.0
  0
SPLINE
  5
1d1
100
AcDbEntity
  8
0
 62
7
100
AcDbSpline
 70
8
 71
3
 72
8
 73
4
 74
0
 40
0
 40
0
 40
0
 40
0
 40
1
 40
1
 40
1
 40
1
 10
46.466478
 20
263.297304
 30
0.0
 10
46.466478
 20
263.297304
 30
0.0
 10
49.850040
 20
266.174560
 30
0.0
 10
50.126336
 20
266.658007
 30
0.0
  0
SPLINE
  5
1d2
100
AcDbEntity
  8
0
 62
7
100
AcDbSpline
 70
8
 71
3
 72
8
 73
4
 74
0
 40
0
 40
0
 40
0
 40
0
 40
1
 40
1
 40
1
 40
1
 10
46.627344
 20
262.767856
 30
0.0
 10
46.627344
 20
262.767856
 30
0.0
 10
48.790860
 20
266.174278
 30
0.0
 10
49.734893
 20
266.864876
 30
0.0
  0
SPLINE
  5
1d3
100
AcDbEntity
  8
0
 62
7
100
AcDbSpline
 70
8
 71
3
 72
8
 73
4
 74
0
 40
0
 40
0
 40
0
 40
0
 40
1
 40
1
 40
1
 40
1
 10
46.719349
 20
262.399556
 30
0.0
 10
46.719349
 20
262.399556
 30
0.0
 10
49.159442
 20
265.575967
 30
0.0
 10
50.287484
 20
266.220562
 30
0.0
  0
SPLINE
  5
1d4
100
AcDbEntity
  8
0
 62
7
100
AcDbSpline
 70
8
 71
3
 72
8
 73
4
 74
0
 40
0
 40
0
 40
0
 40
0
 40
1
 40
1
 40
1
 40
1
 10
46.834496
 20
262.008113
 30
0.0
 10
46.834496
 20
262.008113
 30
0.0
 10
49.274589
 20
264.724502
 30
0.0
 10
49.919184
 20
265.207667
 30
0.0
  0
SPLINE
  5
1d5
100
AcDbEntity
  8
0
 62
7
100
AcDbSpline
 70
8
 71
3
 72
8
 73
4
 74
0
 40
0
 40
0
 40
0
 40
0
 40
1
 40
1
 40
1
 40
1
 10
46.926500
 20
261.593811
 30
0.0
 10
46.926500
 20
261.593811
 30
0.0
 10
49.849476
 20
264.585931
 30
0.0
 10
50.356064
 20
264.908229
 30
0.0
  0
SPLINE
  5
1d6
100
AcDbEntity
  8
0
 62
7
100
AcDbSpline
 70
8
 71
3
 72
8
 73
4
 74
0
 40
0
 40
0
 40
0
 40
0
 40
1
 40
1
 40
1
 40
1
 10
47.065071
 20
261.064362
 30
0.0
 10
47.065071
 20
261.064362
 30
0.0
 10
47.179936
 20
261.823822
 30
0.0
 10
48.745140
 20
262.698711
 30
0.0
  0
SPLINE
  5
1d7
100
AcDbEntity
  8
0
 62
7
100
AcDbSpline
 70
8
 71
3
 72
8
 73
4
 74
0
 40
0
 40
0
 40
0
 40
0
 40
1
 40
1
 40
1
 40
1
 10
47.110791
 20
260.788349
 30
0.0
 10
47.110791
 20
260.788349
 30
0.0
 10
47.594238
 20
262.077258
 30
0.0
 10
49.620029
 20
262.606707
 30
0.0
  0
SPLINE
  5
1d8
100
AcDbEntity
  8
0
 62
7
100
AcDbSpline
 70
8
 71
3
 72
8
 73
4
 74
0
 40
0
 40
0
 40
0
 40
0
 40
1
 40
1
 40
1
 40
1
 10
47.202796
 20
260.442909
 30
0.0
 10
47.202796
 20
260.442909
 30
0.0
 10
47.732527
 20
261.892967
 30
0.0
 10
50.264342
 20
262.376413
 30
0.0
  0
SPLINE
  5
1d9
100
AcDbEntity
  8
0
 62
7
100
AcDbSpline
 70
8
 71
3
 72
8
 73
4
 74
0
 40
0
 40
0
 40
0
 40
0
 40
1
 40
1
 40
1
 40
1
 10
47.294800
 20
259.890600
 30
0.0
 10
47.294800
 20
259.890600
 30
0.0
 10
48.169689
 20
262.583564
 30
0.0
 10
49.619747
 20
263.343024
 30
0.0
  0
SPLINE
  5
1da
100
AcDbEntity
  8
0
 62
7
100
AcDbSpline
 70
8
 71
3
 72
8
 73
4
 74
0
 40
0
 40
0
 40
0
 40
0
 40
1
 40
1
 40
1
 40
1
 10
47.363944
 20
259.338291
 30
0.0
 10
47.363944
 20
259.338291
 30
0.0
 10
49.527742
 20
263.573318
 30
0.0
 10
50.310062
 20
264.125909
 30
0.0
  0
SPLINE
  5
1db
100
AcDbEntity
  8
0
 62
7
100
AcDbSpline
 70
8
 71
3
 72
8
 73
4
 74
0
 40
0
 40
0
 40
0
 40
0
 40
1
 40
1
 40
1
 40
1
 10
47.202796
 20
260.120893
 30
0.0
 10
47.202796
 20
260.120893
 30
0.0
 10
49.205444
 20
261.732100
 30
0.0
 10
50.954940
 20
262.077540
 30
0.0
  0
SPLINE
  5
1dc
100
AcDbEntity
  8
0
 62
7
100
AcDbSpline
 70
8
 71
3
 72
8
 73
4
 74
0
 40
0
 40
0
 40
0
 40
0
 40
1
 40
1
 40
1
 40
1
 10
47.525093
 20
258.716838
 30
0.0
 10
47.525093
 20
258.716838
 30
0.0
 10
49.297167
 20
261.732100
 30
0.0
 10
50.770649
 20
262.629849
 30
0.0
  0
SPLINE
  5
1dd
100
AcDbEntity
  8
0
 62
7
100
AcDbSpline
 70
8
 71
3
 72
8
 73
4
 74
0
 40
0
 40
0
 40
0
 40
0
 40
1
 40
1
 40
1
 40
1
 10
47.433089
 20
259.154000
 30
0.0
 10
47.433089
 20
259.154000
 30
0.0
 10
48.376840
 20
261.409520
 30
0.0
 10
50.678644
 20
261.777820
 30
0.0
  0
SPLINE
  5
1de
100
AcDbEntity
  8
0
 62
7
100
AcDbSpline
 70
8
 71
3
 72
8
 73
4
 74
0
 40
0
 40
0
 40
0
 40
0
 40
1
 40
1
 40
1
 40
1
 10
47.663382
 20
257.773087
 30
0.0
 10
47.663382
 20
257.773087
 30
0.0
 10
48.721998
 20
259.752593
 30
0.0
 10
50.425209
 20
259.867740
 30
0.0
  0
SPLINE
  5
1df
100
AcDbEntity
  8
0
 62
7
100
AcDbSpline
 70
8
 71
3
 72
8
 73
4
 74
0
 40
0
 40
0
 40
0
 40
0
 40
1
 40
1
 40
1
 40
1
 10
47.732527
 20
257.312500
 30
0.0
 10
47.732527
 20
257.312500
 30
0.0
 10
48.054542
 20
258.785700
 30
0.0
 10
50.356347
 20
258.946849
 30
0.0
  0
SPLINE
  5
1e0
100
AcDbEntity
  8
0
 62
7
100
AcDbSpline
 70
8
 71
3
 72
8
 73
4
 74
0
 40
0
 40
0
 40
0
 40
0
 40
1
 40
1
 40
1
 40
1
 10
47.548518
 20
258.325396
 30
0.0
 10
47.548518
 20
258.325396
 30
0.0
 10
50.218058
 20
261.340658
 30
0.0
 10
50.494353
 20
262.192404
 30
0.0
  0
SPLINE
  5
1e1
100
AcDbEntity
  8
0
 62
7
100
AcDbSpline
 70
8
 71
3
 72
8
 73
4
 74
0
 40
0
 40
0
 40
0
 40
0
 40
1
 40
1
 40
1
 40
1
 10
47.755387
 20
256.967342
 30
0.0
 10
47.755387
 20
256.967342
 30
0.0
 10
50.770649
 20
262.008113
 30
0.0
 10
51.300098
 20
262.468418
 30
0.0
  0
SPLINE
  5
1e2
100
AcDbEntity
  8
0
 62
7
100
AcDbSpline
 70
8
 71
3
 72
8
 73
4
 74
0
 40
0
 40
0
 40
0
 40
0
 40
1
 40
1
 40
1
 40
1
 10
47.663382
 20
257.174493
 30
0.0
 10
47.663382
 20
257.174493
 30
0.0
 10
50.195480
 20
258.486544
 30
0.0
 10
50.816651
 20
259.315149
 30
0.0
  0
SPLINE
  5
1e3
100
AcDbEntity
  8
0
 62
7
100
AcDbSpline
 70
8
 71
3
 72
8
 73
4
 74
0
 40
0
 40
0
 40
0
 40
0
 40
1
 40
1
 40
1
 40
1
 10
47.801389
 20
256.576182
 30
0.0
 10
47.801389
 20
256.576182
 30
0.0
 10
49.021153
 20
257.565936
 30
0.0
 10
50.103193
 20
257.519933
 30
0.0
  0
LWPOLYLINE
  5
1e4
100
AcDbEntity
  8
0
 62
7
100
AcDbPolyline
 90
3
 70
0
 10
47.959151
 20
254.233738
 30
0.0
 10
47.475704
 20
254.372873
 30
0.0
 10
47.475704
 20
254.372873
 30
0.0
  0
ENDSEC
  0
SECTION
  2
OBJECTS
  0
DICTIONARY
  5
C
330
0
100
AcDbDictionary
  3
ACAD_GROUP
350
D
  3
ACAD_MLINESTYLE
350
17
  0
DICTIONARY
  5
D
330
C
100
AcDbDictionary
  0
DICTIONARY
  5
1A
330
C
100
AcDbDictionary
  0
DICTIONARY
  5
17
330
C
100
AcDbDictionary
  3
STANDARD
350
18
  0
DICTIONARY
  5
19
330
C
100
AcDbDictionary
  0
ENDSEC
  0
EOF
