solid lampclamp_revised
facet normal -0.0 -0.0 1.0
outer loop
vertex -12.0740728286134 -3.2352380637815 0.0
vertex -12.0740728286134 3.23523806378151 0.0
vertex -12.5 1.53080849893419e-15 0.0
endloop
endfacet
facet normal -0.0 -0.0 1.0
outer loop
vertex -12.0740728286134 3.23523806378151 0.0
vertex -12.0740728286134 -3.2352380637815 0.0
vertex -10.8253175473055 -6.25 0.0
endloop
endfacet
facet normal -0.0 -0.0 1.0
outer loop
vertex -12.0740728286134 3.23523806378151 0.0
vertex -10.8253175473055 -6.25 0.0
vertex -11.3040520211377 5.09423274049865 0.0
endloop
endfacet
facet normal -0.0 -0.0 1.0
outer loop
vertex -11.3040520211377 5.09423274049865 0.0
vertex -10.8253175473055 -6.25 0.0
vertex -5.08290449508926 2.2429455661826 0.0
endloop
endfacet
facet normal -0.0 -0.0 1.0
outer loop
vertex -5.08290449508926 2.2429455661826 0.0
vertex -10.8253175473055 -6.25 0.0
vertex -8.83883476483185 -8.83883476483184 0.0
endloop
endfacet
facet normal -0.0 -0.0 1.0
outer loop
vertex -5.08290449508926 2.2429455661826 0.0
vertex -8.83883476483185 -8.83883476483184 0.0
vertex -6.25000000000001 -10.8253175473055 0.0
endloop
endfacet
facet normal -0.0 -0.0 1.0
outer loop
vertex -5.08290449508926 2.2429455661826 0.0
vertex -6.25000000000001 -10.8253175473055 0.0
vertex -3.23523806378152 -12.0740728286134 0.0
endloop
endfacet
facet normal -0.0 -0.0 1.0
outer loop
vertex -5.08290449508926 2.2429455661826 0.0
vertex -3.23523806378152 -12.0740728286134 0.0
vertex -5.04930892826994 2.03937330018463 0.0
endloop
endfacet
facet normal -0.0 -0.0 1.0
outer loop
vertex -5.04930892826994 2.03937330018463 0.0
vertex -3.23523806378152 -12.0740728286134 0.0
vertex -4.88772617335714 1.6826874509924 0.0
endloop
endfacet
facet normal -0.0 -0.0 1.0
outer loop
vertex -4.88772617335714 1.6826874509924 0.0
vertex -3.23523806378152 -12.0740728286134 0.0
vertex -4.63933212641442 1.37997607171734 0.0
endloop
endfacet
facet normal -0.0 -0.0 1.0
outer loop
vertex -4.63933212641442 1.37997607171734 0.0
vertex -3.23523806378152 -12.0740728286134 0.0
vertex -4.32105443125035 1.15186844260283 0.0
endloop
endfacet
facet normal -0.0 -0.0 1.0
outer loop
vertex -4.32105443125035 1.15186844260283 0.0
vertex -3.23523806378152 -12.0740728286134 0.0
vertex -3.9545831868116 1.01390972160736 0.0
endloop
endfacet
facet normal -0.0 -0.0 1.0
outer loop
vertex -3.9545831868116 1.01390972160736 0.0
vertex -3.23523806378152 -12.0740728286134 0.0
vertex -3.5648928027843 0.9755015675792 0.0
endloop
endfacet
facet normal -0.0 -0.0 1.0
outer loop
vertex -3.5648928027843 0.9755015675792 0.0
vertex -3.23523806378152 -12.0740728286134 0.0
vertex -3.17854003484612 1.03926143274289 0.0
endloop
endfacet
facet normal -0.0 -0.0 1.0
outer loop
vertex -3.17854003484612 1.03926143274289 0.0
vertex -3.23523806378152 -12.0740728286134 0.0
vertex -2.29621274840129e-15 -12.5 0.0
endloop
endfacet
facet normal -0.0 -0.0 1.0
outer loop
vertex -3.17854003484612 1.03926143274289 0.0
vertex -2.29621274840129e-15 -12.5 0.0
vertex -2.82185418565388 1.20084418765568 0.0
endloop
endfacet
facet normal -0.0 -0.0 1.0
outer loop
vertex -2.82185418565388 1.20084418765568 0.0
vertex -2.29621274840129e-15 -12.5 0.0
vertex -2.51914280637882 1.4492382345984 0.0
endloop
endfacet
facet normal -0.0 -0.0 1.0
outer loop
vertex -2.51914280637882 1.4492382345984 0.0
vertex -2.29621274840129e-15 -12.5 0.0
vertex -2.29103517726432 1.76751592976248 0.0
endloop
endfacet
facet normal -0.0 -0.0 1.0
outer loop
vertex -2.29103517726432 1.76751592976248 0.0
vertex -2.29621274840129e-15 -12.5 0.0
vertex -1.4780237877743 3.1740934546843 0.0
endloop
endfacet
facet normal -0.0 -0.0 1.0
outer loop
vertex -1.4780237877743 3.1740934546843 0.0
vertex -2.29621274840129e-15 -12.5 0.0
vertex -1.32817315401735 3.53586488703052 0.0
endloop
endfacet
facet normal -0.0 -0.0 1.0
outer loop
vertex -1.32817315401735 3.53586488703052 0.0
vertex -2.29621274840129e-15 -12.5 0.0
vertex -1.27706189345095 3.9240934546843 0.0
endloop
endfacet
facet normal -0.0 -0.0 1.0
outer loop
vertex -4.27020170277766 4.33789944212674 0.0
vertex -8.83883476483184 8.83883476483184 0.0
vertex -10.2052651237265 7.05806805089986 0.0
endloop
endfacet
facet normal -0.0 -0.0 1.0
outer loop
vertex -8.83883476483184 8.83883476483184 0.0
vertex -4.27020170277766 4.33789944212674 0.0
vertex -8.34674711732757 9.21642689721295 0.0
endloop
endfacet
facet normal -0.0 -0.0 1.0
outer loop
vertex -8.34674711732757 9.21642689721295 0.0
vertex -4.27020170277766 4.33789944212674 0.0
vertex -6.25 10.8253175473055 0.0
endloop
endfacet
facet normal -0.0 -0.0 1.0
outer loop
vertex -6.25 10.8253175473055 0.0
vertex -4.27020170277766 4.33789944212674 0.0
vertex -3.23523806378151 12.0740728286134 0.0
endloop
endfacet
facet normal -0.0 -0.0 1.0
outer loop
vertex -3.23523806378151 12.0740728286134 0.0
vertex -4.27020170277766 4.33789944212674 0.0
vertex -4.07609999912761 4.6740934546843 0.0
endloop
endfacet
facet normal -0.0 -0.0 1.0
outer loop
vertex -3.23523806378151 12.0740728286134 0.0
vertex -4.07609999912761 4.6740934546843 0.0
vertex -3.83772206523078 4.98475362646413 0.0
endloop
endfacet
facet normal -0.0 -0.0 1.0
outer loop
vertex -3.23523806378151 12.0740728286134 0.0
vertex -3.83772206523078 4.98475362646413 0.0
vertex -3.52706189345095 5.22313156036096 0.0
endloop
endfacet
facet normal -0.0 -0.0 1.0
outer loop
vertex -3.23523806378151 12.0740728286134 0.0
vertex -3.52706189345095 5.22313156036096 0.0
vertex -3.16529046110474 5.3729821941179 0.0
endloop
endfacet
facet normal -0.0 -0.0 1.0
outer loop
vertex -3.23523806378151 12.0740728286134 0.0
vertex -3.16529046110474 5.3729821941179 0.0
vertex 7.65404249467096e-16 12.5 0.0
endloop
endfacet
facet normal -0.0 -0.0 1.0
outer loop
vertex 7.65404249467096e-16 12.5 0.0
vertex -3.16529046110474 5.3729821941179 0.0
vertex -2.77706189345095 5.4240934546843 0.0
endloop
endfacet
facet normal -0.0 -0.0 1.0
outer loop
vertex 7.65404249467096e-16 12.5 0.0
vertex -2.77706189345095 5.4240934546843 0.0
vertex -2.38883332579717 5.3729821941179 0.0
endloop
endfacet
facet normal -0.0 -0.0 1.0
outer loop
vertex 7.65404249467096e-16 12.5 0.0
vertex -2.38883332579717 5.3729821941179 0.0
vertex -2.02706189345095 5.22313156036096 0.0
endloop
endfacet
facet normal -0.0 -0.0 1.0
outer loop
vertex 7.65404249467096e-16 12.5 0.0
vertex -2.02706189345095 5.22313156036096 0.0
vertex -1.71640172167113 4.98475362646412 0.0
endloop
endfacet
facet normal -0.0 -0.0 1.0
outer loop
vertex 7.65404249467096e-16 12.5 0.0
vertex -1.71640172167113 4.98475362646412 0.0
vertex -1.4780237877743 4.6740934546843 0.0
endloop
endfacet
facet normal -0.0 -0.0 1.0
outer loop
vertex 7.65404249467096e-16 12.5 0.0
vertex -1.4780237877743 4.6740934546843 0.0
vertex -1.32817315401735 4.31232202233808 0.0
endloop
endfacet
facet normal -0.0 -0.0 1.0
outer loop
vertex 7.65404249467096e-16 12.5 0.0
vertex -1.32817315401735 4.31232202233808 0.0
vertex -1.27706189345095 3.9240934546843 0.0
endloop
endfacet
facet normal -0.0 -0.0 1.0
outer loop
vertex 7.65404249467096e-16 12.5 0.0
vertex -1.27706189345095 3.9240934546843 0.0
vertex -2.29621274840129e-15 -12.5 0.0
endloop
endfacet
facet normal -0.0 -0.0 1.0
outer loop
vertex 7.65404249467096e-16 12.5 0.0
vertex -2.29621274840129e-15 -12.5 0.0
vertex 3.2352380637815 -12.0740728286134 0.0
endloop
endfacet
facet normal -0.0 -0.0 1.0
outer loop
vertex 7.65404249467096e-16 12.5 0.0
vertex 3.2352380637815 -12.0740728286134 0.0
vertex 3.23523806378151 12.0740728286134 0.0
endloop
endfacet
facet normal -0.0 -0.0 1.0
outer loop
vertex 3.23523806378151 12.0740728286134 0.0
vertex 3.2352380637815 -12.0740728286134 0.0
vertex 3.64107800944685 -2.74620150496928 0.0
endloop
endfacet
facet normal -0.0 -0.0 1.0
outer loop
vertex 3.64107800944685 -2.74620150496928 0.0
vertex 3.2352380637815 -12.0740728286134 0.0
vertex 3.70483787461055 -3.13255427290747 0.0
endloop
endfacet
facet normal -0.0 -0.0 1.0
outer loop
vertex 3.70483787461055 -3.13255427290747 0.0
vertex 3.2352380637815 -12.0740728286134 0.0
vertex 6.24999999999999 -10.8253175473055 0.0
endloop
endfacet
facet normal -0.0 -0.0 1.0
outer loop
vertex 3.64107800944685 -2.74620150496928 0.0
vertex 3.70483787461055 -3.13255427290747 0.0
vertex 3.69447863707749 -3.06978249501313 0.0
endloop
endfacet
facet normal -0.0 -0.0 1.0
outer loop
vertex 3.70483787461055 -3.13255427290747 0.0
vertex 6.24999999999999 -10.8253175473055 0.0
vertex 3.75721947479457 -3.24818403521576 0.0
endloop
endfacet
facet normal -0.0 -0.0 1.0
outer loop
vertex 3.75721947479457 -3.24818403521576 0.0
vertex 6.24999999999999 -10.8253175473055 0.0
vertex 3.86642062952335 -3.48924012209969 0.0
endloop
endfacet
facet normal -0.0 -0.0 1.0
outer loop
vertex 3.86642062952335 -3.48924012209969 0.0
vertex 6.24999999999999 -10.8253175473055 0.0
vertex 4.67804680375287 -4.89661740142506 0.0
endloop
endfacet
facet normal -0.0 -0.0 1.0
outer loop
vertex 4.67804680375287 -4.89661740142506 0.0
vertex 6.24999999999999 -10.8253175473055 0.0
vertex 4.91642473764975 -5.2072775732049 0.0
endloop
endfacet
facet normal -0.0 -0.0 1.0
outer loop
vertex 4.91642473764975 -5.2072775732049 0.0
vertex 6.24999999999999 -10.8253175473055 0.0
vertex 5.22708490942954 -5.44565550710172 0.0
endloop
endfacet
facet normal -0.0 -0.0 1.0
outer loop
vertex 5.22708490942954 -5.44565550710172 0.0
vertex 6.24999999999999 -10.8253175473055 0.0
vertex 5.58885634177575 -5.59550614085864 0.0
endloop
endfacet
facet normal -0.0 -0.0 1.0
outer loop
vertex 5.58885634177575 -5.59550614085864 0.0
vertex 6.24999999999999 -10.8253175473055 0.0
vertex 5.97708490942954 -5.64661740142504 0.0
endloop
endfacet
facet normal -0.0 -0.0 1.0
outer loop
vertex 5.97708490942954 -5.64661740142504 0.0
vertex 6.24999999999999 -10.8253175473055 0.0
vertex 6.23708401223463 -5.61238787017028 0.0
endloop
endfacet
facet normal -0.0 -0.0 1.0
outer loop
vertex 6.23708401223463 -5.61238787017028 0.0
vertex 6.24999999999999 -10.8253175473055 0.0
vertex 6.36531347708331 -5.59550614085866 0.0
endloop
endfacet
facet normal -0.0 -0.0 1.0
outer loop
vertex 6.36531347708331 -5.59550614085866 0.0
vertex 6.24999999999999 -10.8253175473055 0.0
vertex 8.83883476483184 -8.83883476483185 0.0
endloop
endfacet
facet normal -0.0 -0.0 1.0
outer loop
vertex 6.36531347708331 -5.59550614085866 0.0
vertex 8.83883476483184 -8.83883476483185 0.0
vertex 6.72708490942953 -5.44565550710171 0.0
endloop
endfacet
facet normal -0.0 -0.0 1.0
outer loop
vertex 6.72708490942953 -5.44565550710171 0.0
vertex 8.83883476483184 -8.83883476483185 0.0
vertex 7.03774508120934 -5.20727757320487 0.0
endloop
endfacet
facet normal -0.0 -0.0 1.0
outer loop
vertex 7.03774508120934 -5.20727757320487 0.0
vertex 8.83883476483184 -8.83883476483185 0.0
vertex 7.27612301510618 -4.89661740142505 0.0
endloop
endfacet
facet normal -0.0 -0.0 1.0
outer loop
vertex 7.27612301510618 -4.89661740142505 0.0
vertex 8.83883476483184 -8.83883476483185 0.0
vertex 7.42597364886313 -4.53484596907883 0.0
endloop
endfacet
facet normal -0.0 -0.0 1.0
outer loop
vertex 7.42597364886313 -4.53484596907883 0.0
vertex 8.83883476483184 -8.83883476483185 0.0
vertex 7.45451557825424 -4.31804849152126 0.0
endloop
endfacet
facet normal -0.0 -0.0 1.0
outer loop
vertex 7.45451557825424 -4.31804849152126 0.0
vertex 8.83883476483184 -8.83883476483185 0.0
vertex 7.47708490942954 -4.14661740142504 0.0
endloop
endfacet
facet normal -0.0 -0.0 1.0
outer loop
vertex 7.27612301510618 -3.39661740142507 0.0
vertex 12.405288139705 0.719408002359322 0.0
vertex 7.08202131145613 -3.06042338886749 0.0
endloop
endfacet
facet normal -0.0 -0.0 1.0
outer loop
vertex 12.405288139705 0.719408002359322 0.0
vertex 7.27612301510618 -3.39661740142507 0.0
vertex 7.37619156244659 -3.63820424558128 0.0
endloop
endfacet
facet normal -0.0 -0.0 1.0
outer loop
vertex 12.405288139705 0.719408002359322 0.0
vertex 7.37619156244659 -3.63820424558128 0.0
vertex 7.42597364886311 -3.75838883377128 0.0
endloop
endfacet
facet normal -0.0 -0.0 1.0
outer loop
vertex 12.405288139705 0.719408002359322 0.0
vertex 7.42597364886311 -3.75838883377128 0.0
vertex 7.47708490942954 -4.14661740142504 0.0
endloop
endfacet
facet normal -0.0 -0.0 1.0
outer loop
vertex 12.405288139705 0.719408002359322 0.0
vertex 7.47708490942954 -4.14661740142504 0.0
vertex 8.83883476483184 -8.83883476483185 0.0
endloop
endfacet
facet normal -0.0 -0.0 1.0
outer loop
vertex 12.405288139705 0.719408002359322 0.0
vertex 8.83883476483184 -8.83883476483185 0.0
vertex 10.8253175473055 -6.25000000000001 0.0
endloop
endfacet
facet normal -0.0 -0.0 1.0
outer loop
vertex 12.405288139705 0.719408002359322 0.0
vertex 10.8253175473055 -6.25000000000001 0.0
vertex 12.0740728286134 -3.23523806378152 0.0
endloop
endfacet
facet normal -0.0 -0.0 1.0
outer loop
vertex 12.405288139705 0.719408002359322 0.0
vertex 12.0740728286134 -3.23523806378152 0.0
vertex 12.5 0.0 0.0
endloop
endfacet
facet normal -0.0 -0.0 1.0
outer loop
vertex 3.23523806378151 12.0740728286134 0.0
vertex 3.67948616347503 -2.35651112094202 0.0
vertex 6.25 10.8253175473055 0.0
endloop
endfacet
facet normal -0.0 -0.0 1.0
outer loop
vertex 3.67948616347503 -2.35651112094202 0.0
vertex 3.23523806378151 12.0740728286134 0.0
vertex 3.64107800944685 -2.74620150496928 0.0
endloop
endfacet
facet normal -0.0 -0.0 1.0
outer loop
vertex 6.25 10.8253175473055 0.0
vertex 3.67948616347503 -2.35651112094202 0.0
vertex 3.81744488447051 -1.99003987650322 0.0
endloop
endfacet
facet normal -0.0 -0.0 1.0
outer loop
vertex 6.25 10.8253175473055 0.0
vertex 3.81744488447051 -1.99003987650322 0.0
vertex 4.04555251358501 -1.67176218133917 0.0
endloop
endfacet
facet normal -0.0 -0.0 1.0
outer loop
vertex 6.25 10.8253175473055 0.0
vertex 4.04555251358501 -1.67176218133917 0.0
vertex 4.34826389286006 -1.42336813439642 0.0
endloop
endfacet
facet normal -0.0 -0.0 1.0
outer loop
vertex 6.25 10.8253175473055 0.0
vertex 4.34826389286006 -1.42336813439642 0.0
vertex 4.70494974205233 -1.26178537948365 0.0
endloop
endfacet
facet normal -0.0 -0.0 1.0
outer loop
vertex 6.25 10.8253175473055 0.0
vertex 4.70494974205233 -1.26178537948365 0.0
vertex 5.09130250999048 -1.19802551431995 0.0
endloop
endfacet
facet normal -0.0 -0.0 1.0
outer loop
vertex 6.25 10.8253175473055 0.0
vertex 5.09130250999048 -1.19802551431995 0.0
vertex 5.48099289401775 -1.23643366834812 0.0
endloop
endfacet
facet normal -0.0 -0.0 1.0
outer loop
vertex 6.25 10.8253175473055 0.0
vertex 5.48099289401775 -1.23643366834812 0.0
vertex 5.67408943128765 -1.30912518702705 0.0
endloop
endfacet
facet normal -0.0 -0.0 1.0
outer loop
vertex 6.25 10.8253175473055 0.0
vertex 5.67408943128765 -1.30912518702705 0.0
vertex 12.0740728286134 3.23523806378151 0.0
endloop
endfacet
facet normal -0.0 -0.0 1.0
outer loop
vertex 6.25 10.8253175473055 0.0
vertex 12.0740728286134 3.23523806378151 0.0
vertex 8.83883476483184 8.83883476483184 0.0
endloop
endfacet
facet normal -0.0 -0.0 1.0
outer loop
vertex 8.83883476483184 8.83883476483184 0.0
vertex 12.0740728286134 3.23523806378151 0.0
vertex 10.8253175473055 6.25 0.0
endloop
endfacet
facet normal 0.0 0.0 -1.0
outer loop
vertex 3.23523806378151 12.0740728286134 -4.0
vertex 3.67948616347503 -2.35651112094202 -4.0
vertex 3.64107800944685 -2.74620150496928 -4.0
endloop
endfacet
facet normal 0.0 0.0 -1.0
outer loop
vertex 3.67948616347503 -2.35651112094202 -4.0
vertex 3.23523806378151 12.0740728286134 -4.0
vertex 6.25 10.8253175473055 -4.0
endloop
endfacet
facet normal 0.0 0.0 -1.0
outer loop
vertex 3.67948616347503 -2.35651112094202 -4.0
vertex 6.25 10.8253175473055 -4.0
vertex 3.81744488447051 -1.99003987650322 -4.0
endloop
endfacet
facet normal 0.0 0.0 -1.0
outer loop
vertex 3.81744488447051 -1.99003987650322 -4.0
vertex 6.25 10.8253175473055 -4.0
vertex 4.04555251358501 -1.67176218133917 -4.0
endloop
endfacet
facet normal 0.0 0.0 -1.0
outer loop
vertex 4.04555251358501 -1.67176218133917 -4.0
vertex 6.25 10.8253175473055 -4.0
vertex 4.34826389286006 -1.42336813439642 -4.0
endloop
endfacet
facet normal 0.0 0.0 -1.0
outer loop
vertex 4.34826389286006 -1.42336813439642 -4.0
vertex 6.25 10.8253175473055 -4.0
vertex 4.70494974205233 -1.26178537948365 -4.0
endloop
endfacet
facet normal 0.0 0.0 -1.0
outer loop
vertex 4.70494974205233 -1.26178537948365 -4.0
vertex 6.25 10.8253175473055 -4.0
vertex 5.09130250999048 -1.19802551431995 -4.0
endloop
endfacet
facet normal 0.0 0.0 -1.0
outer loop
vertex 5.09130250999048 -1.19802551431995 -4.0
vertex 6.25 10.8253175473055 -4.0
vertex 5.48099289401775 -1.23643366834812 -4.0
endloop
endfacet
facet normal 0.0 0.0 -1.0
outer loop
vertex 5.48099289401775 -1.23643366834812 -4.0
vertex 6.25 10.8253175473055 -4.0
vertex 5.67408943128765 -1.30912518702705 -4.0
endloop
endfacet
facet normal 0.0 0.0 -1.0
outer loop
vertex 5.67408943128765 -1.30912518702705 -4.0
vertex 6.25 10.8253175473055 -4.0
vertex 12.0740728286134 3.23523806378151 -4.0
endloop
endfacet
facet normal 0.0 0.0 -1.0
outer loop
vertex 12.0740728286134 3.23523806378151 -4.0
vertex 6.25 10.8253175473055 -4.0
vertex 8.83883476483184 8.83883476483184 -4.0
endloop
endfacet
facet normal 0.0 0.0 -1.0
outer loop
vertex 12.0740728286134 3.23523806378151 -4.0
vertex 8.83883476483184 8.83883476483184 -4.0
vertex 10.8253175473055 6.25 -4.0
endloop
endfacet
facet normal 0.0 0.0 -1.0
outer loop
vertex 12.405288139705 0.719408002359322 -4.0
vertex 7.27612301510618 -3.39661740142507 -4.0
vertex 7.08202131145613 -3.06042338886749 -4.0
endloop
endfacet
facet normal 0.0 0.0 -1.0
outer loop
vertex 7.27612301510618 -3.39661740142507 -4.0
vertex 12.405288139705 0.719408002359322 -4.0
vertex 7.37619156244659 -3.63820424558128 -4.0
endloop
endfacet
facet normal 0.0 0.0 -1.0
outer loop
vertex 7.37619156244659 -3.63820424558128 -4.0
vertex 12.405288139705 0.719408002359322 -4.0
vertex 7.42597364886311 -3.75838883377128 -4.0
endloop
endfacet
facet normal 0.0 0.0 -1.0
outer loop
vertex 7.42597364886311 -3.75838883377128 -4.0
vertex 12.405288139705 0.719408002359322 -4.0
vertex 7.47708490942954 -4.14661740142504 -4.0
endloop
endfacet
facet normal 0.0 0.0 -1.0
outer loop
vertex 7.47708490942954 -4.14661740142504 -4.0
vertex 12.405288139705 0.719408002359322 -4.0
vertex 8.83883476483184 -8.83883476483185 -4.0
endloop
endfacet
facet normal 0.0 0.0 -1.0
outer loop
vertex 8.83883476483184 -8.83883476483185 -4.0
vertex 12.405288139705 0.719408002359322 -4.0
vertex 10.8253175473055 -6.25000000000001 -4.0
endloop
endfacet
facet normal 0.0 0.0 -1.0
outer loop
vertex 10.8253175473055 -6.25000000000001 -4.0
vertex 12.405288139705 0.719408002359322 -4.0
vertex 12.0740728286134 -3.23523806378152 -4.0
endloop
endfacet
facet normal 0.0 0.0 -1.0
outer loop
vertex 12.0740728286134 -3.23523806378152 -4.0
vertex 12.405288139705 0.719408002359322 -4.0
vertex 12.5 0.0 -4.0
endloop
endfacet
facet normal 0.0 0.0 -1.0
outer loop
vertex -8.83883476483184 8.83883476483184 -4.0
vertex -4.27020170277766 4.33789944212674 -4.0
vertex -10.2052651237265 7.05806805089986 -4.0
endloop
endfacet
facet normal 0.0 0.0 -1.0
outer loop
vertex -4.27020170277766 4.33789944212674 -4.0
vertex -8.83883476483184 8.83883476483184 -4.0
vertex -8.34674711732757 9.21642689721295 -4.0
endloop
endfacet
facet normal 0.0 0.0 -1.0
outer loop
vertex -4.27020170277766 4.33789944212674 -4.0
vertex -8.34674711732757 9.21642689721295 -4.0
vertex -6.25 10.8253175473055 -4.0
endloop
endfacet
facet normal 0.0 0.0 -1.0
outer loop
vertex -4.27020170277766 4.33789944212674 -4.0
vertex -6.25 10.8253175473055 -4.0
vertex -3.23523806378151 12.0740728286134 -4.0
endloop
endfacet
facet normal 0.0 0.0 -1.0
outer loop
vertex -4.27020170277766 4.33789944212674 -4.0
vertex -3.23523806378151 12.0740728286134 -4.0
vertex -4.07609999912761 4.6740934546843 -4.0
endloop
endfacet
facet normal 0.0 0.0 -1.0
outer loop
vertex -4.07609999912761 4.6740934546843 -4.0
vertex -3.23523806378151 12.0740728286134 -4.0
vertex -3.83772206523078 4.98475362646413 -4.0
endloop
endfacet
facet normal 0.0 0.0 -1.0
outer loop
vertex -3.83772206523078 4.98475362646413 -4.0
vertex -3.23523806378151 12.0740728286134 -4.0
vertex -3.52706189345095 5.22313156036096 -4.0
endloop
endfacet
facet normal 0.0 0.0 -1.0
outer loop
vertex -3.52706189345095 5.22313156036096 -4.0
vertex -3.23523806378151 12.0740728286134 -4.0
vertex -3.16529046110474 5.3729821941179 -4.0
endloop
endfacet
facet normal 0.0 0.0 -1.0
outer loop
vertex -3.16529046110474 5.3729821941179 -4.0
vertex -3.23523806378151 12.0740728286134 -4.0
vertex 7.65404249467096e-16 12.5 -4.0
endloop
endfacet
facet normal 0.0 0.0 -1.0
outer loop
vertex -3.16529046110474 5.3729821941179 -4.0
vertex 7.65404249467096e-16 12.5 -4.0
vertex -2.77706189345095 5.4240934546843 -4.0
endloop
endfacet
facet normal 0.0 0.0 -1.0
outer loop
vertex -2.77706189345095 5.4240934546843 -4.0
vertex 7.65404249467096e-16 12.5 -4.0
vertex -2.38883332579717 5.3729821941179 -4.0
endloop
endfacet
facet normal 0.0 0.0 -1.0
outer loop
vertex -2.38883332579717 5.3729821941179 -4.0
vertex 7.65404249467096e-16 12.5 -4.0
vertex -2.02706189345095 5.22313156036096 -4.0
endloop
endfacet
facet normal 0.0 0.0 -1.0
outer loop
vertex -2.02706189345095 5.22313156036096 -4.0
vertex 7.65404249467096e-16 12.5 -4.0
vertex -1.71640172167113 4.98475362646412 -4.0
endloop
endfacet
facet normal 0.0 0.0 -1.0
outer loop
vertex -1.71640172167113 4.98475362646412 -4.0
vertex 7.65404249467096e-16 12.5 -4.0
vertex -1.4780237877743 4.6740934546843 -4.0
endloop
endfacet
facet normal 0.0 0.0 -1.0
outer loop
vertex -1.4780237877743 4.6740934546843 -4.0
vertex 7.65404249467096e-16 12.5 -4.0
vertex -1.32817315401735 4.31232202233808 -4.0
endloop
endfacet
facet normal 0.0 0.0 -1.0
outer loop
vertex -1.32817315401735 4.31232202233808 -4.0
vertex 7.65404249467096e-16 12.5 -4.0
vertex -1.27706189345095 3.9240934546843 -4.0
endloop
endfacet
facet normal 0.0 0.0 -1.0
outer loop
vertex -1.27706189345095 3.9240934546843 -4.0
vertex 7.65404249467096e-16 12.5 -4.0
vertex -2.29621274840129e-15 -12.5 -4.0
endloop
endfacet
facet normal 0.0 0.0 -1.0
outer loop
vertex -2.29621274840129e-15 -12.5 -4.0
vertex 7.65404249467096e-16 12.5 -4.0
vertex 3.2352380637815 -12.0740728286134 -4.0
endloop
endfacet
facet normal 0.0 0.0 -1.0
outer loop
vertex 3.2352380637815 -12.0740728286134 -4.0
vertex 7.65404249467096e-16 12.5 -4.0
vertex 3.23523806378151 12.0740728286134 -4.0
endloop
endfacet
facet normal 0.0 0.0 -1.0
outer loop
vertex 3.2352380637815 -12.0740728286134 -4.0
vertex 3.23523806378151 12.0740728286134 -4.0
vertex 3.64107800944685 -2.74620150496928 -4.0
endloop
endfacet
facet normal 0.0 0.0 -1.0
outer loop
vertex 3.2352380637815 -12.0740728286134 -4.0
vertex 3.64107800944685 -2.74620150496928 -4.0
vertex 3.70483787461055 -3.13255427290747 -4.0
endloop
endfacet
facet normal 0.0 0.0 -1.0
outer loop
vertex 3.2352380637815 -12.0740728286134 -4.0
vertex 3.70483787461055 -3.13255427290747 -4.0
vertex 6.24999999999999 -10.8253175473055 -4.0
endloop
endfacet
facet normal 0.0 0.0 -1.0
outer loop
vertex 3.70483787461055 -3.13255427290747 -4.0
vertex 3.64107800944685 -2.74620150496928 -4.0
vertex 3.69447863707749 -3.06978249501313 -4.0
endloop
endfacet
facet normal 0.0 0.0 -1.0
outer loop
vertex 6.24999999999999 -10.8253175473055 -4.0
vertex 3.70483787461055 -3.13255427290747 -4.0
vertex 3.75721947479457 -3.24818403521576 -4.0
endloop
endfacet
facet normal 0.0 0.0 -1.0
outer loop
vertex 6.24999999999999 -10.8253175473055 -4.0
vertex 3.75721947479457 -3.24818403521576 -4.0
vertex 3.86642062952335 -3.48924012209969 -4.0
endloop
endfacet
facet normal 0.0 0.0 -1.0
outer loop
vertex 6.24999999999999 -10.8253175473055 -4.0
vertex 3.86642062952335 -3.48924012209969 -4.0
vertex 4.67804680375287 -4.89661740142506 -4.0
endloop
endfacet
facet normal 0.0 0.0 -1.0
outer loop
vertex 6.24999999999999 -10.8253175473055 -4.0
vertex 4.67804680375287 -4.89661740142506 -4.0
vertex 4.91642473764975 -5.2072775732049 -4.0
endloop
endfacet
facet normal 0.0 0.0 -1.0
outer loop
vertex 6.24999999999999 -10.8253175473055 -4.0
vertex 4.91642473764975 -5.2072775732049 -4.0
vertex 5.22708490942954 -5.44565550710172 -4.0
endloop
endfacet
facet normal 0.0 0.0 -1.0
outer loop
vertex 6.24999999999999 -10.8253175473055 -4.0
vertex 5.22708490942954 -5.44565550710172 -4.0
vertex 5.58885634177575 -5.59550614085864 -4.0
endloop
endfacet
facet normal 0.0 0.0 -1.0
outer loop
vertex 6.24999999999999 -10.8253175473055 -4.0
vertex 5.58885634177575 -5.59550614085864 -4.0
vertex 5.97708490942954 -5.64661740142504 -4.0
endloop
endfacet
facet normal 0.0 0.0 -1.0
outer loop
vertex 6.24999999999999 -10.8253175473055 -4.0
vertex 5.97708490942954 -5.64661740142504 -4.0
vertex 6.23708401223463 -5.61238787017028 -4.0
endloop
endfacet
facet normal 0.0 0.0 -1.0
outer loop
vertex 6.24999999999999 -10.8253175473055 -4.0
vertex 6.23708401223463 -5.61238787017028 -4.0
vertex 6.36531347708331 -5.59550614085866 -4.0
endloop
endfacet
facet normal 0.0 0.0 -1.0
outer loop
vertex 6.24999999999999 -10.8253175473055 -4.0
vertex 6.36531347708331 -5.59550614085866 -4.0
vertex 8.83883476483184 -8.83883476483185 -4.0
endloop
endfacet
facet normal 0.0 0.0 -1.0
outer loop
vertex 8.83883476483184 -8.83883476483185 -4.0
vertex 6.36531347708331 -5.59550614085866 -4.0
vertex 6.72708490942953 -5.44565550710171 -4.0
endloop
endfacet
facet normal 0.0 0.0 -1.0
outer loop
vertex 8.83883476483184 -8.83883476483185 -4.0
vertex 6.72708490942953 -5.44565550710171 -4.0
vertex 7.03774508120934 -5.20727757320487 -4.0
endloop
endfacet
facet normal 0.0 0.0 -1.0
outer loop
vertex 8.83883476483184 -8.83883476483185 -4.0
vertex 7.03774508120934 -5.20727757320487 -4.0
vertex 7.27612301510618 -4.89661740142505 -4.0
endloop
endfacet
facet normal 0.0 0.0 -1.0
outer loop
vertex 8.83883476483184 -8.83883476483185 -4.0
vertex 7.27612301510618 -4.89661740142505 -4.0
vertex 7.42597364886313 -4.53484596907883 -4.0
endloop
endfacet
facet normal 0.0 0.0 -1.0
outer loop
vertex 8.83883476483184 -8.83883476483185 -4.0
vertex 7.42597364886313 -4.53484596907883 -4.0
vertex 7.45451557825424 -4.31804849152126 -4.0
endloop
endfacet
facet normal 0.0 0.0 -1.0
outer loop
vertex 8.83883476483184 -8.83883476483185 -4.0
vertex 7.45451557825424 -4.31804849152126 -4.0
vertex 7.47708490942954 -4.14661740142504 -4.0
endloop
endfacet
facet normal 0.0 0.0 -1.0
outer loop
vertex -12.0740728286134 3.23523806378151 -4.0
vertex -12.0740728286134 -3.2352380637815 -4.0
vertex -12.5 1.53080849893419e-15 -4.0
endloop
endfacet
facet normal 0.0 0.0 -1.0
outer loop
vertex -12.0740728286134 -3.2352380637815 -4.0
vertex -12.0740728286134 3.23523806378151 -4.0
vertex -10.8253175473055 -6.25 -4.0
endloop
endfacet
facet normal 0.0 0.0 -1.0
outer loop
vertex -10.8253175473055 -6.25 -4.0
vertex -12.0740728286134 3.23523806378151 -4.0
vertex -11.3040520211377 5.09423274049865 -4.0
endloop
endfacet
facet normal 0.0 0.0 -1.0
outer loop
vertex -10.8253175473055 -6.25 -4.0
vertex -11.3040520211377 5.09423274049865 -4.0
vertex -5.08290449508926 2.2429455661826 -4.0
endloop
endfacet
facet normal 0.0 0.0 -1.0
outer loop
vertex -10.8253175473055 -6.25 -4.0
vertex -5.08290449508926 2.2429455661826 -4.0
vertex -8.83883476483185 -8.83883476483184 -4.0
endloop
endfacet
facet normal 0.0 0.0 -1.0
outer loop
vertex -8.83883476483185 -8.83883476483184 -4.0
vertex -5.08290449508926 2.2429455661826 -4.0
vertex -6.25000000000001 -10.8253175473055 -4.0
endloop
endfacet
facet normal 0.0 0.0 -1.0
outer loop
vertex -6.25000000000001 -10.8253175473055 -4.0
vertex -5.08290449508926 2.2429455661826 -4.0
vertex -3.23523806378152 -12.0740728286134 -4.0
endloop
endfacet
facet normal 0.0 0.0 -1.0
outer loop
vertex -3.23523806378152 -12.0740728286134 -4.0
vertex -5.08290449508926 2.2429455661826 -4.0
vertex -5.04930892826994 2.03937330018463 -4.0
endloop
endfacet
facet normal 0.0 0.0 -1.0
outer loop
vertex -3.23523806378152 -12.0740728286134 -4.0
vertex -5.04930892826994 2.03937330018463 -4.0
vertex -4.88772617335714 1.6826874509924 -4.0
endloop
endfacet
facet normal 0.0 0.0 -1.0
outer loop
vertex -3.23523806378152 -12.0740728286134 -4.0
vertex -4.88772617335714 1.6826874509924 -4.0
vertex -4.63933212641442 1.37997607171734 -4.0
endloop
endfacet
facet normal 0.0 0.0 -1.0
outer loop
vertex -3.23523806378152 -12.0740728286134 -4.0
vertex -4.63933212641442 1.37997607171734 -4.0
vertex -4.32105443125035 1.15186844260283 -4.0
endloop
endfacet
facet normal 0.0 0.0 -1.0
outer loop
vertex -3.23523806378152 -12.0740728286134 -4.0
vertex -4.32105443125035 1.15186844260283 -4.0
vertex -3.9545831868116 1.01390972160736 -4.0
endloop
endfacet
facet normal 0.0 0.0 -1.0
outer loop
vertex -3.23523806378152 -12.0740728286134 -4.0
vertex -3.9545831868116 1.01390972160736 -4.0
vertex -3.5648928027843 0.9755015675792 -4.0
endloop
endfacet
facet normal 0.0 0.0 -1.0
outer loop
vertex -3.23523806378152 -12.0740728286134 -4.0
vertex -3.5648928027843 0.9755015675792 -4.0
vertex -3.17854003484612 1.03926143274289 -4.0
endloop
endfacet
facet normal 0.0 0.0 -1.0
outer loop
vertex -3.23523806378152 -12.0740728286134 -4.0
vertex -3.17854003484612 1.03926143274289 -4.0
vertex -2.29621274840129e-15 -12.5 -4.0
endloop
endfacet
facet normal 0.0 0.0 -1.0
outer loop
vertex -2.29621274840129e-15 -12.5 -4.0
vertex -3.17854003484612 1.03926143274289 -4.0
vertex -2.82185418565388 1.20084418765568 -4.0
endloop
endfacet
facet normal 0.0 0.0 -1.0
outer loop
vertex -2.29621274840129e-15 -12.5 -4.0
vertex -2.82185418565388 1.20084418765568 -4.0
vertex -2.51914280637882 1.4492382345984 -4.0
endloop
endfacet
facet normal 0.0 0.0 -1.0
outer loop
vertex -2.29621274840129e-15 -12.5 -4.0
vertex -2.51914280637882 1.4492382345984 -4.0
vertex -2.29103517726432 1.76751592976248 -4.0
endloop
endfacet
facet normal 0.0 0.0 -1.0
outer loop
vertex -2.29621274840129e-15 -12.5 -4.0
vertex -2.29103517726432 1.76751592976248 -4.0
vertex -1.4780237877743 3.1740934546843 -4.0
endloop
endfacet
facet normal 0.0 0.0 -1.0
outer loop
vertex -2.29621274840129e-15 -12.5 -4.0
vertex -1.4780237877743 3.1740934546843 -4.0
vertex -1.32817315401735 3.53586488703052 -4.0
endloop
endfacet
facet normal 0.0 0.0 -1.0
outer loop
vertex -2.29621274840129e-15 -12.5 -4.0
vertex -1.32817315401735 3.53586488703052 -4.0
vertex -1.27706189345095 3.9240934546843 -4.0
endloop
endfacet
facet normal 0.99144486137381 0.130526192220053 0.0
outer loop
vertex 12.405288139705 0.719408002359322 -4.0
vertex 12.5 0.0 0.0
vertex 12.5 0.0 -4.0
endloop
endfacet
facet normal 0.99144486137381 0.130526192220053 0.0
outer loop
vertex 12.5 0.0 0.0
vertex 12.405288139705 0.719408002359322 -4.0
vertex 12.405288139705 0.719408002359322 0.0
endloop
endfacet
facet normal 0.99144486137381 -0.130526192220052 0.0
outer loop
vertex 12.5 0.0 -4.0
vertex 12.0740728286134 -3.23523806378152 0.0
vertex 12.0740728286134 -3.23523806378152 -4.0
endloop
endfacet
facet normal 0.99144486137381 -0.130526192220052 0.0
outer loop
vertex 12.0740728286134 -3.23523806378152 0.0
vertex 12.5 0.0 -4.0
vertex 12.5 0.0 0.0
endloop
endfacet
facet normal 0.923879532511287 -0.382683432365091 0.0
outer loop
vertex 12.0740728286134 -3.23523806378152 -4.0
vertex 10.8253175473055 -6.25000000000001 0.0
vertex 10.8253175473055 -6.25000000000001 -4.0
endloop
endfacet
facet normal 0.923879532511287 -0.382683432365091 0.0
outer loop
vertex 10.8253175473055 -6.25000000000001 0.0
vertex 12.0740728286134 -3.23523806378152 -4.0
vertex 12.0740728286134 -3.23523806378152 0.0
endloop
endfacet
facet normal 0.793353340291235 -0.608761429008721 0.0
outer loop
vertex 10.8253175473055 -6.25000000000001 -4.0
vertex 8.83883476483184 -8.83883476483185 0.0
vertex 8.83883476483184 -8.83883476483185 -4.0
endloop
endfacet
facet normal 0.793353340291235 -0.608761429008721 0.0
outer loop
vertex 8.83883476483184 -8.83883476483185 0.0
vertex 10.8253175473055 -6.25000000000001 -4.0
vertex 10.8253175473055 -6.25000000000001 0.0
endloop
endfacet
facet normal 0.60876142900872 -0.793353340291236 0.0
outer loop
vertex 8.83883476483184 -8.83883476483185 0.0
vertex 6.24999999999999 -10.8253175473055 -4.0
vertex 8.83883476483184 -8.83883476483185 -4.0
endloop
endfacet
facet normal 0.60876142900872 -0.793353340291236 0.0
outer loop
vertex 6.24999999999999 -10.8253175473055 -4.0
vertex 8.83883476483184 -8.83883476483185 0.0
vertex 6.24999999999999 -10.8253175473055 0.0
endloop
endfacet
facet normal 0.382683432365089 -0.923879532511287 0.0
outer loop
vertex 6.24999999999999 -10.8253175473055 0.0
vertex 3.2352380637815 -12.0740728286134 -4.0
vertex 6.24999999999999 -10.8253175473055 -4.0
endloop
endfacet
facet normal 0.382683432365089 -0.923879532511287 0.0
outer loop
vertex 3.2352380637815 -12.0740728286134 -4.0
vertex 6.24999999999999 -10.8253175473055 0.0
vertex 3.2352380637815 -12.0740728286134 0.0
endloop
endfacet
facet normal 0.130526192220051 -0.991444861373811 0.0
outer loop
vertex 3.2352380637815 -12.0740728286134 0.0
vertex -2.29621274840129e-15 -12.5 -4.0
vertex 3.2352380637815 -12.0740728286134 -4.0
endloop
endfacet
facet normal 0.130526192220051 -0.991444861373811 0.0
outer loop
vertex -2.29621274840129e-15 -12.5 -4.0
vertex 3.2352380637815 -12.0740728286134 0.0
vertex -2.29621274840129e-15 -12.5 0.0
endloop
endfacet
facet normal -0.130526192220052 -0.99144486137381 -0.0
outer loop
vertex -2.29621274840129e-15 -12.5 0.0
vertex -3.23523806378152 -12.0740728286134 -4.0
vertex -2.29621274840129e-15 -12.5 -4.0
endloop
endfacet
facet normal -0.130526192220052 -0.99144486137381 -0.0
outer loop
vertex -3.23523806378152 -12.0740728286134 -4.0
vertex -2.29621274840129e-15 -12.5 0.0
vertex -3.23523806378152 -12.0740728286134 0.0
endloop
endfacet
facet normal -0.38268343236509 -0.923879532511287 -0.0
outer loop
vertex -3.23523806378152 -12.0740728286134 0.0
vertex -6.25000000000001 -10.8253175473055 -4.0
vertex -3.23523806378152 -12.0740728286134 -4.0
endloop
endfacet
facet normal -0.38268343236509 -0.923879532511287 -0.0
outer loop
vertex -6.25000000000001 -10.8253175473055 -4.0
vertex -3.23523806378152 -12.0740728286134 0.0
vertex -6.25000000000001 -10.8253175473055 0.0
endloop
endfacet
facet normal -0.608761429008721 -0.793353340291235 -0.0
outer loop
vertex -6.25000000000001 -10.8253175473055 0.0
vertex -8.83883476483185 -8.83883476483184 -4.0
vertex -6.25000000000001 -10.8253175473055 -4.0
endloop
endfacet
facet normal -0.608761429008721 -0.793353340291235 -0.0
outer loop
vertex -8.83883476483185 -8.83883476483184 -4.0
vertex -6.25000000000001 -10.8253175473055 0.0
vertex -8.83883476483185 -8.83883476483184 0.0
endloop
endfacet
facet normal -0.793353340291235 -0.60876142900872 -0.0
outer loop
vertex -10.8253175473055 -6.25 0.0
vertex -8.83883476483185 -8.83883476483184 -4.0
vertex -8.83883476483185 -8.83883476483184 0.0
endloop
endfacet
facet normal -0.793353340291235 -0.60876142900872 -0.0
outer loop
vertex -8.83883476483185 -8.83883476483184 -4.0
vertex -10.8253175473055 -6.25 0.0
vertex -10.8253175473055 -6.25 -4.0
endloop
endfacet
facet normal -0.923879532511287 -0.382683432365089 -0.0
outer loop
vertex -12.0740728286134 -3.2352380637815 0.0
vertex -10.8253175473055 -6.25 -4.0
vertex -10.8253175473055 -6.25 0.0
endloop
endfacet
facet normal -0.923879532511287 -0.382683432365089 -0.0
outer loop
vertex -10.8253175473055 -6.25 -4.0
vertex -12.0740728286134 -3.2352380637815 0.0
vertex -12.0740728286134 -3.2352380637815 -4.0
endloop
endfacet
facet normal -0.991444861373811 -0.130526192220051 -0.0
outer loop
vertex -12.5 1.53080849893419e-15 0.0
vertex -12.0740728286134 -3.2352380637815 -4.0
vertex -12.0740728286134 -3.2352380637815 0.0
endloop
endfacet
facet normal -0.991444861373811 -0.130526192220051 -0.0
outer loop
vertex -12.0740728286134 -3.2352380637815 -4.0
vertex -12.5 1.53080849893419e-15 0.0
vertex -12.5 1.53080849893419e-15 -4.0
endloop
endfacet
facet normal -0.99144486137381 0.130526192220052 0.0
outer loop
vertex -12.0740728286134 3.23523806378151 0.0
vertex -12.5 1.53080849893419e-15 -4.0
vertex -12.5 1.53080849893419e-15 0.0
endloop
endfacet
facet normal -0.99144486137381 0.130526192220052 0.0
outer loop
vertex -12.5 1.53080849893419e-15 -4.0
vertex -12.0740728286134 3.23523806378151 0.0
vertex -12.0740728286134 3.23523806378151 -4.0
endloop
endfacet
facet normal -0.923879532511287 0.38268343236509 0.0
outer loop
vertex -11.3040520211377 5.09423274049865 0.0
vertex -12.0740728286134 3.23523806378151 -4.0
vertex -12.0740728286134 3.23523806378151 0.0
endloop
endfacet
facet normal -0.923879532511287 0.38268343236509 0.0
outer loop
vertex -12.0740728286134 3.23523806378151 -4.0
vertex -11.3040520211377 5.09423274049865 0.0
vertex -11.3040520211377 5.09423274049865 -4.0
endloop
endfacet
facet normal 0.416646002800089 0.909068813869835 -0.0
outer loop
vertex -11.3040520211377 5.09423274049865 0.0
vertex -5.08290449508926 2.2429455661826 -4.0
vertex -11.3040520211377 5.09423274049865 -4.0
endloop
endfacet
facet normal 0.416646002800089 0.909068813869835 -0.0
outer loop
vertex -5.08290449508926 2.2429455661826 -4.0
vertex -11.3040520211377 5.09423274049865 0.0
vertex -5.08290449508926 2.2429455661826 0.0
endloop
endfacet
facet normal 0.986654508102725 0.16282776679845 0.0
outer loop
vertex -5.08290449508926 2.2429455661826 -4.0
vertex -5.04930892826994 2.03937330018463 0.0
vertex -5.04930892826994 2.03937330018463 -4.0
endloop
endfacet
facet normal 0.986654508102725 0.16282776679845 0.0
outer loop
vertex -5.04930892826994 2.03937330018463 0.0
vertex -5.08290449508926 2.2429455661826 -4.0
vertex -5.08290449508926 2.2429455661826 0.0
endloop
endfacet
facet normal 0.910892143882008 0.412644522820841 0.0
outer loop
vertex -5.04930892826994 2.03937330018463 -4.0
vertex -4.88772617335714 1.6826874509924 0.0
vertex -4.88772617335714 1.6826874509924 -4.0
endloop
endfacet
facet normal 0.910892143882008 0.412644522820841 0.0
outer loop
vertex -4.88772617335714 1.6826874509924 0.0
vertex -5.04930892826994 2.03937330018463 -4.0
vertex -5.04930892826994 2.03937330018463 0.0
endloop
endfacet
facet normal 0.773053985376173 0.63434023654031 0.0
outer loop
vertex -4.88772617335714 1.6826874509924 -4.0
vertex -4.63933212641442 1.37997607171734 0.0
vertex -4.63933212641442 1.37997607171734 -4.0
endloop
endfacet
facet normal 0.773053985376173 0.63434023654031 0.0
outer loop
vertex -4.63933212641442 1.37997607171734 0.0
vertex -4.88772617335714 1.6826874509924 -4.0
vertex -4.88772617335714 1.6826874509924 0.0
endloop
endfacet
facet normal 0.582533475299069 0.812806711436359 0.0
outer loop
vertex -4.63933212641442 1.37997607171734 0.0
vertex -4.32105443125035 1.15186844260283 -4.0
vertex -4.63933212641442 1.37997607171734 -4.0
endloop
endfacet
facet normal 0.582533475299069 0.812806711436359 0.0
outer loop
vertex -4.32105443125035 1.15186844260283 -4.0
vertex -4.63933212641442 1.37997607171734 0.0
vertex -4.32105443125035 1.15186844260283 0.0
endloop
endfacet
facet normal 0.352314271562415 0.935881752174624 0.0
outer loop
vertex -4.32105443125035 1.15186844260283 0.0
vertex -3.9545831868116 1.01390972160736 -4.0
vertex -4.32105443125035 1.15186844260283 -4.0
endloop
endfacet
facet normal 0.352314271562415 0.935881752174624 0.0
outer loop
vertex -3.9545831868116 1.01390972160736 -4.0
vertex -4.32105443125035 1.15186844260283 0.0
vertex -3.9545831868116 1.01390972160736 0.0
endloop
endfacet
facet normal 0.0980854324456525 0.995177998119909 0.0
outer loop
vertex -3.9545831868116 1.01390972160736 0.0
vertex -3.5648928027843 0.9755015675792 -4.0
vertex -3.9545831868116 1.01390972160736 -4.0
endloop
endfacet
facet normal 0.0980854324456525 0.995177998119909 0.0
outer loop
vertex -3.5648928027843 0.9755015675792 -4.0
vertex -3.9545831868116 1.01390972160736 0.0
vertex -3.5648928027843 0.9755015675792 0.0
endloop
endfacet
facet normal -0.162827766798453 0.986654508102724 0.0
outer loop
vertex -3.5648928027843 0.9755015675792 0.0
vertex -3.17854003484612 1.03926143274289 -4.0
vertex -3.5648928027843 0.9755015675792 -4.0
endloop
endfacet
facet normal -0.162827766798453 0.986654508102724 0.0
outer loop
vertex -3.17854003484612 1.03926143274289 -4.0
vertex -3.5648928027843 0.9755015675792 0.0
vertex -3.17854003484612 1.03926143274289 0.0
endloop
endfacet
facet normal -0.412644522820837 0.910892143882009 0.0
outer loop
vertex -3.17854003484612 1.03926143274289 0.0
vertex -2.82185418565388 1.20084418765568 -4.0
vertex -3.17854003484612 1.03926143274289 -4.0
endloop
endfacet
facet normal -0.412644522820837 0.910892143882009 0.0
outer loop
vertex -2.82185418565388 1.20084418765568 -4.0
vertex -3.17854003484612 1.03926143274289 0.0
vertex -2.82185418565388 1.20084418765568 0.0
endloop
endfacet
facet normal -0.63434023654031 0.773053985376173 0.0
outer loop
vertex -2.82185418565388 1.20084418765568 0.0
vertex -2.51914280637882 1.4492382345984 -4.0
vertex -2.82185418565388 1.20084418765568 -4.0
endloop
endfacet
facet normal -0.63434023654031 0.773053985376173 0.0
outer loop
vertex -2.51914280637882 1.4492382345984 -4.0
vertex -2.82185418565388 1.20084418765568 0.0
vertex -2.51914280637882 1.4492382345984 0.0
endloop
endfacet
facet normal -0.812806711436361 0.582533475299067 0.0
outer loop
vertex -2.29103517726432 1.76751592976248 0.0
vertex -2.51914280637882 1.4492382345984 -4.0
vertex -2.51914280637882 1.4492382345984 0.0
endloop
endfacet
facet normal -0.812806711436361 0.582533475299067 0.0
outer loop
vertex -2.51914280637882 1.4492382345984 -4.0
vertex -2.29103517726432 1.76751592976248 0.0
vertex -2.29103517726432 1.76751592976248 -4.0
endloop
endfacet
facet normal -0.865779165708986 0.500426254531326 0.0
outer loop
vertex -1.4780237877743 3.1740934546843 0.0
vertex -2.29103517726432 1.76751592976248 -4.0
vertex -2.29103517726432 1.76751592976248 0.0
endloop
endfacet
facet normal -0.865779165708986 0.500426254531326 0.0
outer loop
vertex -2.29103517726432 1.76751592976248 -4.0
vertex -1.4780237877743 3.1740934546843 0.0
vertex -1.4780237877743 3.1740934546843 -4.0
endloop
endfacet
facet normal -0.923879532511286 0.382683432365092 0.0
outer loop
vertex -1.32817315401735 3.53586488703052 0.0
vertex -1.4780237877743 3.1740934546843 -4.0
vertex -1.4780237877743 3.1740934546843 0.0
endloop
endfacet
facet normal -0.923879532511286 0.382683432365092 0.0
outer loop
vertex -1.4780237877743 3.1740934546843 -4.0
vertex -1.32817315401735 3.53586488703052 0.0
vertex -1.32817315401735 3.53586488703052 -4.0
endloop
endfacet
facet normal -0.99144486137381 0.130526192220052 0.0
outer loop
vertex -1.27706189345095 3.9240934546843 0.0
vertex -1.32817315401735 3.53586488703052 -4.0
vertex -1.32817315401735 3.53586488703052 0.0
endloop
endfacet
facet normal -0.99144486137381 0.130526192220052 0.0
outer loop
vertex -1.32817315401735 3.53586488703052 -4.0
vertex -1.27706189345095 3.9240934546843 0.0
vertex -1.27706189345095 3.9240934546843 -4.0
endloop
endfacet
facet normal -0.99144486137381 -0.130526192220052 -0.0
outer loop
vertex -1.32817315401735 4.31232202233808 0.0
vertex -1.27706189345095 3.9240934546843 -4.0
vertex -1.27706189345095 3.9240934546843 0.0
endloop
endfacet
facet normal -0.99144486137381 -0.130526192220052 -0.0
outer loop
vertex -1.27706189345095 3.9240934546843 -4.0
vertex -1.32817315401735 4.31232202233808 0.0
vertex -1.32817315401735 4.31232202233808 -4.0
endloop
endfacet
facet normal -0.923879532511288 -0.382683432365087 -0.0
outer loop
vertex -1.4780237877743 4.6740934546843 0.0
vertex -1.32817315401735 4.31232202233808 -4.0
vertex -1.32817315401735 4.31232202233808 0.0
endloop
endfacet
facet normal -0.923879532511288 -0.382683432365087 -0.0
outer loop
vertex -1.32817315401735 4.31232202233808 -4.0
vertex -1.4780237877743 4.6740934546843 0.0
vertex -1.4780237877743 4.6740934546843 -4.0
endloop
endfacet
facet normal -0.793353340291236 -0.60876142900872 -0.0
outer loop
vertex -1.71640172167113 4.98475362646412 0.0
vertex -1.4780237877743 4.6740934546843 -4.0
vertex -1.4780237877743 4.6740934546843 0.0
endloop
endfacet
facet normal -0.793353340291236 -0.60876142900872 -0.0
outer loop
vertex -1.4780237877743 4.6740934546843 -4.0
vertex -1.71640172167113 4.98475362646412 0.0
vertex -1.71640172167113 4.98475362646412 -4.0
endloop
endfacet
facet normal -0.608761429008721 -0.793353340291235 -0.0
outer loop
vertex -1.71640172167113 4.98475362646412 0.0
vertex -2.02706189345095 5.22313156036096 -4.0
vertex -1.71640172167113 4.98475362646412 -4.0
endloop
endfacet
facet normal -0.608761429008721 -0.793353340291235 -0.0
outer loop
vertex -2.02706189345095 5.22313156036096 -4.0
vertex -1.71640172167113 4.98475362646412 0.0
vertex -2.02706189345095 5.22313156036096 0.0
endloop
endfacet
facet normal -0.382683432365093 -0.923879532511286 -0.0
outer loop
vertex -2.02706189345095 5.22313156036096 0.0
vertex -2.38883332579717 5.3729821941179 -4.0
vertex -2.02706189345095 5.22313156036096 -4.0
endloop
endfacet
facet normal -0.382683432365093 -0.923879532511286 -0.0
outer loop
vertex -2.38883332579717 5.3729821941179 -4.0
vertex -2.02706189345095 5.22313156036096 0.0
vertex -2.38883332579717 5.3729821941179 0.0
endloop
endfacet
facet normal -0.130526192220052 -0.99144486137381 -0.0
outer loop
vertex -2.38883332579717 5.3729821941179 0.0
vertex -2.77706189345095 5.4240934546843 -4.0
vertex -2.38883332579717 5.3729821941179 -4.0
endloop
endfacet
facet normal -0.130526192220052 -0.99144486137381 -0.0
outer loop
vertex -2.77706189345095 5.4240934546843 -4.0
vertex -2.38883332579717 5.3729821941179 0.0
vertex -2.77706189345095 5.4240934546843 0.0
endloop
endfacet
facet normal 0.130526192220052 -0.99144486137381 0.0
outer loop
vertex -2.77706189345095 5.4240934546843 0.0
vertex -3.16529046110474 5.3729821941179 -4.0
vertex -2.77706189345095 5.4240934546843 -4.0
endloop
endfacet
facet normal 0.130526192220052 -0.99144486137381 0.0
outer loop
vertex -3.16529046110474 5.3729821941179 -4.0
vertex -2.77706189345095 5.4240934546843 0.0
vertex -3.16529046110474 5.3729821941179 0.0
endloop
endfacet
facet normal 0.382683432365096 -0.923879532511284 0.0
outer loop
vertex -3.16529046110474 5.3729821941179 0.0
vertex -3.52706189345095 5.22313156036096 -4.0
vertex -3.16529046110474 5.3729821941179 -4.0
endloop
endfacet
facet normal 0.382683432365096 -0.923879532511284 0.0
outer loop
vertex -3.52706189345095 5.22313156036096 -4.0
vertex -3.16529046110474 5.3729821941179 0.0
vertex -3.52706189345095 5.22313156036096 0.0
endloop
endfacet
facet normal 0.608761429008712 -0.793353340291242 0.0
outer loop
vertex -3.52706189345095 5.22313156036096 0.0
vertex -3.83772206523078 4.98475362646413 -4.0
vertex -3.52706189345095 5.22313156036096 -4.0
endloop
endfacet
facet normal 0.608761429008712 -0.793353340291242 0.0
outer loop
vertex -3.83772206523078 4.98475362646413 -4.0
vertex -3.52706189345095 5.22313156036096 0.0
vertex -3.83772206523078 4.98475362646413 0.0
endloop
endfacet
facet normal 0.793353340291238 -0.608761429008717 0.0
outer loop
vertex -3.83772206523078 4.98475362646413 -4.0
vertex -4.07609999912761 4.6740934546843 0.0
vertex -4.07609999912761 4.6740934546843 -4.0
endloop
endfacet
facet normal 0.793353340291238 -0.608761429008717 0.0
outer loop
vertex -4.07609999912761 4.6740934546843 0.0
vertex -3.83772206523078 4.98475362646413 -4.0
vertex -3.83772206523078 4.98475362646413 0.0
endloop
endfacet
facet normal 0.866025403784439 -0.499999999999999 0.0
outer loop
vertex -4.07609999912761 4.6740934546843 -4.0
vertex -4.27020170277766 4.33789944212674 0.0
vertex -4.27020170277766 4.33789944212674 -4.0
endloop
endfacet
facet normal 0.866025403784439 -0.499999999999999 0.0
outer loop
vertex -4.27020170277766 4.33789944212674 0.0
vertex -4.07609999912761 4.6740934546843 -4.0
vertex -4.07609999912761 4.6740934546843 0.0
endloop
endfacet
facet normal -0.41664600280009 -0.909068813869835 -0.0
outer loop
vertex -4.27020170277766 4.33789944212674 0.0
vertex -10.2052651237265 7.05806805089986 -4.0
vertex -4.27020170277766 4.33789944212674 -4.0
endloop
endfacet
facet normal -0.41664600280009 -0.909068813869835 -0.0
outer loop
vertex -10.2052651237265 7.05806805089986 -4.0
vertex -4.27020170277766 4.33789944212674 0.0
vertex -10.2052651237265 7.05806805089986 0.0
endloop
endfacet
facet normal -0.60876142900872 0.793353340291235 0.0
outer loop
vertex -8.34674711732757 9.21642689721295 0.0
vertex -6.25 10.8253175473055 -4.0
vertex -8.34674711732757 9.21642689721295 -4.0
endloop
endfacet
facet normal -0.60876142900872 0.793353340291235 0.0
outer loop
vertex -6.25 10.8253175473055 -4.0
vertex -8.34674711732757 9.21642689721295 0.0
vertex -6.25 10.8253175473055 0.0
endloop
endfacet
facet normal -0.38268343236509 0.923879532511287 0.0
outer loop
vertex -6.25 10.8253175473055 0.0
vertex -3.23523806378151 12.0740728286134 -4.0
vertex -6.25 10.8253175473055 -4.0
endloop
endfacet
facet normal -0.38268343236509 0.923879532511287 0.0
outer loop
vertex -3.23523806378151 12.0740728286134 -4.0
vertex -6.25 10.8253175473055 0.0
vertex -3.23523806378151 12.0740728286134 0.0
endloop
endfacet
facet normal -0.130526192220051 0.99144486137381 0.0
outer loop
vertex -3.23523806378151 12.0740728286134 0.0
vertex 7.65404249467096e-16 12.5 -4.0
vertex -3.23523806378151 12.0740728286134 -4.0
endloop
endfacet
facet normal -0.130526192220051 0.99144486137381 0.0
outer loop
vertex 7.65404249467096e-16 12.5 -4.0
vertex -3.23523806378151 12.0740728286134 0.0
vertex 7.65404249467096e-16 12.5 0.0
endloop
endfacet
facet normal 0.130526192220052 0.99144486137381 0.0
outer loop
vertex 7.65404249467096e-16 12.5 0.0
vertex 3.23523806378151 12.0740728286134 -4.0
vertex 7.65404249467096e-16 12.5 -4.0
endloop
endfacet
facet normal 0.130526192220052 0.99144486137381 0.0
outer loop
vertex 3.23523806378151 12.0740728286134 -4.0
vertex 7.65404249467096e-16 12.5 0.0
vertex 3.23523806378151 12.0740728286134 0.0
endloop
endfacet
facet normal 0.38268343236509 0.923879532511287 0.0
outer loop
vertex 3.23523806378151 12.0740728286134 0.0
vertex 6.25 10.8253175473055 -4.0
vertex 3.23523806378151 12.0740728286134 -4.0
endloop
endfacet
facet normal 0.38268343236509 0.923879532511287 0.0
outer loop
vertex 6.25 10.8253175473055 -4.0
vertex 3.23523806378151 12.0740728286134 0.0
vertex 6.25 10.8253175473055 0.0
endloop
endfacet
facet normal 0.608761429008721 0.793353340291235 0.0
outer loop
vertex 6.25 10.8253175473055 0.0
vertex 8.83883476483184 8.83883476483184 -4.0
vertex 6.25 10.8253175473055 -4.0
endloop
endfacet
facet normal 0.608761429008721 0.793353340291235 0.0
outer loop
vertex 8.83883476483184 8.83883476483184 -4.0
vertex 6.25 10.8253175473055 0.0
vertex 8.83883476483184 8.83883476483184 0.0
endloop
endfacet
facet normal 0.793353340291235 0.608761429008721 0.0
outer loop
vertex 8.83883476483184 8.83883476483184 -4.0
vertex 10.8253175473055 6.25 0.0
vertex 10.8253175473055 6.25 -4.0
endloop
endfacet
facet normal 0.793353340291235 0.608761429008721 0.0
outer loop
vertex 10.8253175473055 6.25 0.0
vertex 8.83883476483184 8.83883476483184 -4.0
vertex 8.83883476483184 8.83883476483184 0.0
endloop
endfacet
facet normal 0.923879532511287 0.38268343236509 0.0
outer loop
vertex 10.8253175473055 6.25 -4.0
vertex 12.0740728286134 3.23523806378151 0.0
vertex 12.0740728286134 3.23523806378151 -4.0
endloop
endfacet
facet normal 0.923879532511287 0.38268343236509 0.0
outer loop
vertex 12.0740728286134 3.23523806378151 0.0
vertex 10.8253175473055 6.25 -4.0
vertex 10.8253175473055 6.25 0.0
endloop
endfacet
facet normal 0.57895368519942 -0.815360429745037 0.0
outer loop
vertex 12.0740728286134 3.23523806378151 0.0
vertex 5.67408943128765 -1.30912518702705 -4.0
vertex 12.0740728286134 3.23523806378151 -4.0
endloop
endfacet
facet normal 0.57895368519942 -0.815360429745037 0.0
outer loop
vertex 5.67408943128765 -1.30912518702705 -4.0
vertex 12.0740728286134 3.23523806378151 0.0
vertex 5.67408943128765 -1.30912518702705 0.0
endloop
endfacet
facet normal -0.352314271562427 -0.93588175217462 -0.0
outer loop
vertex 5.67408943128765 -1.30912518702705 0.0
vertex 5.48099289401775 -1.23643366834812 -4.0
vertex 5.67408943128765 -1.30912518702705 -4.0
endloop
endfacet
facet normal -0.352314271562427 -0.93588175217462 -0.0
outer loop
vertex 5.48099289401775 -1.23643366834812 -4.0
vertex 5.67408943128765 -1.30912518702705 0.0
vertex 5.48099289401775 -1.23643366834812 0.0
endloop
endfacet
facet normal -0.0980854324456638 -0.995177998119908 -0.0
outer loop
vertex 5.48099289401775 -1.23643366834812 0.0
vertex 5.09130250999048 -1.19802551431995 -4.0
vertex 5.48099289401775 -1.23643366834812 -4.0
endloop
endfacet
facet normal -0.0980854324456638 -0.995177998119908 -0.0
outer loop
vertex 5.09130250999048 -1.19802551431995 -4.0
vertex 5.48099289401775 -1.23643366834812 0.0
vertex 5.09130250999048 -1.19802551431995 0.0
endloop
endfacet
facet normal 0.162827766798492 -0.986654508102718 0.0
outer loop
vertex 5.09130250999048 -1.19802551431995 0.0
vertex 4.70494974205233 -1.26178537948365 -4.0
vertex 5.09130250999048 -1.19802551431995 -4.0
endloop
endfacet
facet normal 0.162827766798492 -0.986654508102718 0.0
outer loop
vertex 4.70494974205233 -1.26178537948365 -4.0
vertex 5.09130250999048 -1.19802551431995 0.0
vertex 4.70494974205233 -1.26178537948365 0.0
endloop
endfacet
facet normal 0.412644522820742 -0.910892143882053 0.0
outer loop
vertex 4.70494974205233 -1.26178537948365 0.0
vertex 4.34826389286006 -1.42336813439642 -4.0
vertex 4.70494974205233 -1.26178537948365 -4.0
endloop
endfacet
facet normal 0.412644522820742 -0.910892143882053 0.0
outer loop
vertex 4.34826389286006 -1.42336813439642 -4.0
vertex 4.70494974205233 -1.26178537948365 0.0
vertex 4.34826389286006 -1.42336813439642 0.0
endloop
endfacet
facet normal 0.634340236540375 -0.77305398537612 0.0
outer loop
vertex 4.34826389286006 -1.42336813439642 0.0
vertex 4.04555251358501 -1.67176218133917 -4.0
vertex 4.34826389286006 -1.42336813439642 -4.0
endloop
endfacet
facet normal 0.634340236540375 -0.77305398537612 0.0
outer loop
vertex 4.04555251358501 -1.67176218133917 -4.0
vertex 4.34826389286006 -1.42336813439642 0.0
vertex 4.04555251358501 -1.67176218133917 0.0
endloop
endfacet
facet normal 0.812806711436342 -0.582533475299093 0.0
outer loop
vertex 4.04555251358501 -1.67176218133917 -4.0
vertex 3.81744488447051 -1.99003987650322 0.0
vertex 3.81744488447051 -1.99003987650322 -4.0
endloop
endfacet
facet normal 0.812806711436342 -0.582533475299093 0.0
outer loop
vertex 3.81744488447051 -1.99003987650322 0.0
vertex 4.04555251358501 -1.67176218133917 -4.0
vertex 4.04555251358501 -1.67176218133917 0.0
endloop
endfacet
facet normal 0.935881752174636 -0.352314271562384 0.0
outer loop
vertex 3.81744488447051 -1.99003987650322 -4.0
vertex 3.67948616347503 -2.35651112094202 0.0
vertex 3.67948616347503 -2.35651112094202 -4.0
endloop
endfacet
facet normal 0.935881752174636 -0.352314271562384 0.0
outer loop
vertex 3.67948616347503 -2.35651112094202 0.0
vertex 3.81744488447051 -1.99003987650322 -4.0
vertex 3.81744488447051 -1.99003987650322 0.0
endloop
endfacet
facet normal 0.995177998119905 -0.0980854324456944 0.0
outer loop
vertex 3.67948616347503 -2.35651112094202 -4.0
vertex 3.64107800944685 -2.74620150496928 0.0
vertex 3.64107800944685 -2.74620150496928 -4.0
endloop
endfacet
facet normal 0.995177998119905 -0.0980854324456944 0.0
outer loop
vertex 3.64107800944685 -2.74620150496928 0.0
vertex 3.67948616347503 -2.35651112094202 -4.0
vertex 3.67948616347503 -2.35651112094202 0.0
endloop
endfacet
facet normal 0.986654508102722 0.162827766798468 0.0
outer loop
vertex 3.64107800944685 -2.74620150496928 -4.0
vertex 3.69447863707749 -3.06978249501313 0.0
vertex 3.69447863707749 -3.06978249501313 -4.0
endloop
endfacet
facet normal 0.986654508102722 0.162827766798468 0.0
outer loop
vertex 3.69447863707749 -3.06978249501313 0.0
vertex 3.64107800944685 -2.74620150496928 -4.0
vertex 3.64107800944685 -2.74620150496928 0.0
endloop
endfacet
facet normal 0.986654508102722 0.162827766798464 0.0
outer loop
vertex 3.69447863707749 -3.06978249501313 -4.0
vertex 3.70483787461055 -3.13255427290747 0.0
vertex 3.70483787461055 -3.13255427290747 -4.0
endloop
endfacet
facet normal 0.986654508102722 0.162827766798464 0.0
outer loop
vertex 3.70483787461055 -3.13255427290747 0.0
vertex 3.69447863707749 -3.06978249501313 -4.0
vertex 3.69447863707749 -3.06978249501313 0.0
endloop
endfacet
facet normal 0.910892143881998 0.412644522820862 0.0
outer loop
vertex 3.70483787461055 -3.13255427290747 -4.0
vertex 3.75721947479457 -3.24818403521576 0.0
vertex 3.75721947479457 -3.24818403521576 -4.0
endloop
endfacet
facet normal 0.910892143881998 0.412644522820862 0.0
outer loop
vertex 3.75721947479457 -3.24818403521576 0.0
vertex 3.70483787461055 -3.13255427290747 -4.0
vertex 3.70483787461055 -3.13255427290747 0.0
endloop
endfacet
facet normal 0.910892143881998 0.412644522820862 0.0
outer loop
vertex 3.75721947479457 -3.24818403521576 -4.0
vertex 3.86642062952335 -3.48924012209969 0.0
vertex 3.86642062952335 -3.48924012209969 -4.0
endloop
endfacet
facet normal 0.910892143881998 0.412644522820862 0.0
outer loop
vertex 3.86642062952335 -3.48924012209969 0.0
vertex 3.75721947479457 -3.24818403521576 -4.0
vertex 3.75721947479457 -3.24818403521576 0.0
endloop
endfacet
facet normal 0.866271431999323 0.49957362430561 0.0
outer loop
vertex 3.86642062952335 -3.48924012209969 -4.0
vertex 4.67804680375287 -4.89661740142506 0.0
vertex 4.67804680375287 -4.89661740142506 -4.0
endloop
endfacet
facet normal 0.866271431999323 0.49957362430561 0.0
outer loop
vertex 4.67804680375287 -4.89661740142506 0.0
vertex 3.86642062952335 -3.48924012209969 -4.0
vertex 3.86642062952335 -3.48924012209969 0.0
endloop
endfacet
facet normal 0.793353340291204 0.608761429008761 0.0
outer loop
vertex 4.67804680375287 -4.89661740142506 -4.0
vertex 4.91642473764975 -5.2072775732049 0.0
vertex 4.91642473764975 -5.2072775732049 -4.0
endloop
endfacet
facet normal 0.793353340291204 0.608761429008761 0.0
outer loop
vertex 4.91642473764975 -5.2072775732049 0.0
vertex 4.67804680375287 -4.89661740142506 -4.0
vertex 4.67804680375287 -4.89661740142506 0.0
endloop
endfacet
facet normal 0.608761429008729 0.793353340291228 0.0
outer loop
vertex 4.91642473764975 -5.2072775732049 0.0
vertex 5.22708490942954 -5.44565550710172 -4.0
vertex 4.91642473764975 -5.2072775732049 -4.0
endloop
endfacet
facet normal 0.608761429008729 0.793353340291228 0.0
outer loop
vertex 5.22708490942954 -5.44565550710172 -4.0
vertex 4.91642473764975 -5.2072775732049 0.0
vertex 5.22708490942954 -5.44565550710172 0.0
endloop
endfacet
facet normal 0.382683432365055 0.923879532511301 0.0
outer loop
vertex 5.22708490942954 -5.44565550710172 0.0
vertex 5.58885634177575 -5.59550614085864 -4.0
vertex 5.22708490942954 -5.44565550710172 -4.0
endloop
endfacet
facet normal 0.382683432365055 0.923879532511301 0.0
outer loop
vertex 5.58885634177575 -5.59550614085864 -4.0
vertex 5.22708490942954 -5.44565550710172 0.0
vertex 5.58885634177575 -5.59550614085864 0.0
endloop
endfacet
facet normal 0.130526192220052 0.99144486137381 0.0
outer loop
vertex 5.58885634177575 -5.59550614085864 0.0
vertex 5.97708490942954 -5.64661740142504 -4.0
vertex 5.58885634177575 -5.59550614085864 -4.0
endloop
endfacet
facet normal 0.130526192220052 0.99144486137381 0.0
outer loop
vertex 5.97708490942954 -5.64661740142504 -4.0
vertex 5.58885634177575 -5.59550614085864 0.0
vertex 5.97708490942954 -5.64661740142504 0.0
endloop
endfacet
facet normal -0.130526192220005 0.991444861373816 0.0
outer loop
vertex 5.97708490942954 -5.64661740142504 0.0
vertex 6.23708401223463 -5.61238787017028 -4.0
vertex 5.97708490942954 -5.64661740142504 -4.0
endloop
endfacet
facet normal -0.130526192220005 0.991444861373816 0.0
outer loop
vertex 6.23708401223463 -5.61238787017028 -4.0
vertex 5.97708490942954 -5.64661740142504 0.0
vertex 6.23708401223463 -5.61238787017028 0.0
endloop
endfacet
facet normal -0.130526192220004 0.991444861373817 0.0
outer loop
vertex 6.23708401223463 -5.61238787017028 0.0
vertex 6.36531347708331 -5.59550614085866 -4.0
vertex 6.23708401223463 -5.61238787017028 -4.0
endloop
endfacet
facet normal -0.130526192220004 0.991444861373817 0.0
outer loop
vertex 6.36531347708331 -5.59550614085866 -4.0
vertex 6.23708401223463 -5.61238787017028 0.0
vertex 6.36531347708331 -5.59550614085866 0.0
endloop
endfacet
facet normal -0.3826834323651 0.923879532511283 0.0
outer loop
vertex 6.36531347708331 -5.59550614085866 0.0
vertex 6.72708490942953 -5.44565550710171 -4.0
vertex 6.36531347708331 -5.59550614085866 -4.0
endloop
endfacet
facet normal -0.3826834323651 0.923879532511283 0.0
outer loop
vertex 6.72708490942953 -5.44565550710171 -4.0
vertex 6.36531347708331 -5.59550614085866 0.0
vertex 6.72708490942953 -5.44565550710171 0.0
endloop
endfacet
facet normal -0.608761429008744 0.793353340291218 0.0
outer loop
vertex 6.72708490942953 -5.44565550710171 0.0
vertex 7.03774508120934 -5.20727757320487 -4.0
vertex 6.72708490942953 -5.44565550710171 -4.0
endloop
endfacet
facet normal -0.608761429008744 0.793353340291218 0.0
outer loop
vertex 7.03774508120934 -5.20727757320487 -4.0
vertex 6.72708490942953 -5.44565550710171 0.0
vertex 7.03774508120934 -5.20727757320487 0.0
endloop
endfacet
facet normal -0.793353340291238 0.608761429008717 0.0
outer loop
vertex 7.27612301510618 -4.89661740142505 0.0
vertex 7.03774508120934 -5.20727757320487 -4.0
vertex 7.03774508120934 -5.20727757320487 0.0
endloop
endfacet
facet normal -0.793353340291238 0.608761429008717 0.0
outer loop
vertex 7.03774508120934 -5.20727757320487 -4.0
vertex 7.27612301510618 -4.89661740142505 0.0
vertex 7.27612301510618 -4.89661740142505 -4.0
endloop
endfacet
facet normal -0.923879532511282 0.382683432365101 0.0
outer loop
vertex 7.42597364886313 -4.53484596907883 0.0
vertex 7.27612301510618 -4.89661740142505 -4.0
vertex 7.27612301510618 -4.89661740142505 0.0
endloop
endfacet
facet normal -0.923879532511282 0.382683432365101 0.0
outer loop
vertex 7.27612301510618 -4.89661740142505 -4.0
vertex 7.42597364886313 -4.53484596907883 0.0
vertex 7.42597364886313 -4.53484596907883 -4.0
endloop
endfacet
facet normal -0.991444861373805 0.130526192220095 0.0
outer loop
vertex 7.45451557825424 -4.31804849152126 0.0
vertex 7.42597364886313 -4.53484596907883 -4.0
vertex 7.42597364886313 -4.53484596907883 0.0
endloop
endfacet
facet normal -0.991444861373805 0.130526192220095 0.0
outer loop
vertex 7.42597364886313 -4.53484596907883 -4.0
vertex 7.45451557825424 -4.31804849152126 0.0
vertex 7.45451557825424 -4.31804849152126 -4.0
endloop
endfacet
facet normal -0.991444861373806 0.130526192220089 0.0
outer loop
vertex 7.47708490942954 -4.14661740142504 0.0
vertex 7.45451557825424 -4.31804849152126 -4.0
vertex 7.45451557825424 -4.31804849152126 0.0
endloop
endfacet
facet normal -0.991444861373806 0.130526192220089 0.0
outer loop
vertex 7.45451557825424 -4.31804849152126 -4.0
vertex 7.47708490942954 -4.14661740142504 0.0
vertex 7.47708490942954 -4.14661740142504 -4.0
endloop
endfacet
facet normal -0.991444861373798 -0.13052619222015 -0.0
outer loop
vertex 7.42597364886311 -3.75838883377128 0.0
vertex 7.47708490942954 -4.14661740142504 -4.0
vertex 7.47708490942954 -4.14661740142504 0.0
endloop
endfacet
facet normal -0.991444861373798 -0.13052619222015 -0.0
outer loop
vertex 7.47708490942954 -4.14661740142504 -4.0
vertex 7.42597364886311 -3.75838883377128 0.0
vertex 7.42597364886311 -3.75838883377128 -4.0
endloop
endfacet
facet normal -0.923879532511297 -0.382683432365066 -0.0
outer loop
vertex 7.37619156244659 -3.63820424558128 0.0
vertex 7.42597364886311 -3.75838883377128 -4.0
vertex 7.42597364886311 -3.75838883377128 0.0
endloop
endfacet
facet normal -0.923879532511297 -0.382683432365066 -0.0
outer loop
vertex 7.42597364886311 -3.75838883377128 -4.0
vertex 7.37619156244659 -3.63820424558128 0.0
vertex 7.37619156244659 -3.63820424558128 -4.0
endloop
endfacet
facet normal -0.923879532511298 -0.382683432365063 -0.0
outer loop
vertex 7.27612301510618 -3.39661740142507 0.0
vertex 7.37619156244659 -3.63820424558128 -4.0
vertex 7.37619156244659 -3.63820424558128 0.0
endloop
endfacet
facet normal -0.923879532511298 -0.382683432365063 -0.0
outer loop
vertex 7.37619156244659 -3.63820424558128 -4.0
vertex 7.27612301510618 -3.39661740142507 0.0
vertex 7.27612301510618 -3.39661740142507 -4.0
endloop
endfacet
facet normal -0.866025403784445 -0.499999999999989 -0.0
outer loop
vertex 7.08202131145613 -3.06042338886749 0.0
vertex 7.27612301510618 -3.39661740142507 -4.0
vertex 7.27612301510618 -3.39661740142507 0.0
endloop
endfacet
facet normal -0.866025403784445 -0.499999999999989 -0.0
outer loop
vertex 7.27612301510618 -3.39661740142507 -4.0
vertex 7.08202131145613 -3.06042338886749 0.0
vertex 7.08202131145613 -3.06042338886749 -4.0
endloop
endfacet
facet normal -0.578953685199412 0.815360429745042 0.0
outer loop
vertex 7.08202131145613 -3.06042338886749 0.0
vertex 12.405288139705 0.719408002359322 -4.0
vertex 7.08202131145613 -3.06042338886749 -4.0
endloop
endfacet
facet normal -0.578953685199412 0.815360429745042 0.0
outer loop
vertex 12.405288139705 0.719408002359322 -4.0
vertex 7.08202131145613 -3.06042338886749 0.0
vertex 12.405288139705 0.719408002359322 0.0
endloop
endfacet
facet normal -0.793353340291235 0.608761429008721 0.0
outer loop
vertex -8.83883476483184 8.83883476483184 0.0
vertex -10.2052651237265 7.05806805089986 -4.0
vertex -10.2052651237265 7.05806805089986 0.0
endloop
endfacet
facet normal -0.793353340291235 0.608761429008721 0.0
outer loop
vertex -10.2052651237265 7.05806805089986 -4.0
vertex -8.83883476483184 8.83883476483184 0.0
vertex -8.83883476483184 8.83883476483184 -4.0
endloop
endfacet
facet normal -0.608761429008722 0.793353340291235 0.0
outer loop
vertex -8.83883476483184 8.83883476483184 0.0
vertex -8.34674711732757 9.21642689721295 -4.0
vertex -8.83883476483184 8.83883476483184 -4.0
endloop
endfacet
facet normal -0.608761429008722 0.793353340291235 0.0
outer loop
vertex -8.34674711732757 9.21642689721295 -4.0
vertex -8.83883476483184 8.83883476483184 0.0
vertex -8.34674711732757 9.21642689721295 0.0
endloop
endfacet
endsolid lampclamp_revised
