<?xml version="1.0" encoding="UTF-8" standalone="no"?>
<!-- Created with Inkscape (http://www.inkscape.org/) -->

<svg
   xmlns:dc="http://purl.org/dc/elements/1.1/"
   xmlns:cc="http://creativecommons.org/ns#"
   xmlns:rdf="http://www.w3.org/1999/02/22-rdf-syntax-ns#"
   xmlns:svg="http://www.w3.org/2000/svg"
   xmlns="http://www.w3.org/2000/svg"
   xmlns:sodipodi="http://sodipodi.sourceforge.net/DTD/sodipodi-0.dtd"
   xmlns:inkscape="http://www.inkscape.org/namespaces/inkscape"
   width="744.09448819"
   height="1052.3622047"
   id="svg3964"
   version="1.1"
   inkscape:version="0.48.0 r9654"
   sodipodi:docname="New document 2">
  <defs
     id="defs3966" />
  <sodipodi:namedview
     id="base"
     pagecolor="#ffffff"
     bordercolor="#666666"
     borderopacity="1.0"
     inkscape:pageopacity="0.0"
     inkscape:pageshadow="2"
     inkscape:zoom="0.35"
     inkscape:cx="375"
     inkscape:cy="520"
     inkscape:document-units="px"
     inkscape:current-layer="layer1"
     showgrid="false"
     inkscape:window-width="838"
     inkscape:window-height="1029"
     inkscape:window-x="0"
     inkscape:window-y="19"
     inkscape:window-maximized="0" />
  <metadata
     id="metadata3969">
    <rdf:RDF>
      <cc:Work
         rdf:about="">
        <dc:format>image/svg+xml</dc:format>
        <dc:type
           rdf:resource="http://purl.org/dc/dcmitype/StillImage" />
        <dc:title></dc:title>
      </cc:Work>
    </rdf:RDF>
  </metadata>
  <g
     inkscape:label="Layer 1"
     inkscape:groupmode="layer"
     id="layer1">
    <g
       transform="matrix(5.0936169,0,0,5.0936169,-307.81677,74.577943)"
       id="g236">
      <path
         style="fill:none;stroke:#000000;stroke-width:0.5"
         inkscape:connector-curvature="0"
         d="m 109.26,12.511 c 0,0 23.555,33.346 31.613,48.378 8.715,16.257 27.318,64.024 26.773,87.928 0.416,1.455 0.416,2.286 1.247,2.286 0.831,0 0.831,1.039 0.831,-1.455 0,-2.494 -0.641,-14.54 -4.779,-29.089 -8.486,-29.837 -18.207,-50.62 -21.559,-57.072 -2.161,-4.16 -14.832,-28.995 -34.126,-50.976 z"
         id="path238" />
      <path
         style="fill:none;stroke:#000000;stroke-width:0.5"
         inkscape:connector-curvature="0"
         d="m 168.221,151.041 c 0.028,1.539 0.102,6.322 -0.085,8.119 -0.223,2.153 -0.298,2.376 0.445,2.451 0.629,0.063 1.572,-5.144 1.353,-10.077 l -1.713,-0.493 z"
         id="path240" />
      <path
         style="fill:none;stroke:#000000;stroke-width:0.5"
         inkscape:connector-curvature="0"
         d="m 109.26,12.511 c 0,0 -4.121,-2.959 -9.148,-3.488"
         id="path242" />
      <path
         style="fill:none;stroke:#000000;stroke-width:0.5"
         inkscape:connector-curvature="0"
         d="m 110.377,13.942 c 0,0 -7.594,-3.407 -12.066,-3.407"
         id="path244" />
      <path
         style="fill:none;stroke:#000000;stroke-width:0.5"
         inkscape:connector-curvature="0"
         d="m 111.655,15.858 c 0,0 -6.6,-3.904 -15.401,-3.62"
         id="path246" />
      <path
         style="fill:none;stroke:#000000;stroke-width:0.5"
         inkscape:connector-curvature="0"
         d="m 112.648,17.419 c 0,0 -9.652,-4.755 -18.169,-2.697"
         id="path248" />
      <path
         style="fill:none;stroke:#000000;stroke-width:0.5"
         inkscape:connector-curvature="0"
         d="m 113.855,19.123 c 0,0 -9.582,-4.685 -18.737,-2.91"
         id="path250" />
      <path
         style="fill:none;stroke:#000000;stroke-width:0.5"
         inkscape:connector-curvature="0"
         d="m 114.991,20.968 c 0,0 -9.155,-5.181 -23.28,-2.413"
         id="path252" />
      <path
         style="fill:none;stroke:#000000;stroke-width:0.5"
         inkscape:connector-curvature="0"
         d="m 116.192,22.652 c 0,0 -17.646,-6.442 -26.048,-1.307"
         id="path254" />
      <path
         style="fill:none;stroke:#000000;stroke-width:0.5"
         inkscape:connector-curvature="0"
         d="m 117.593,24.612 c 0,0 -11.67,-5.694 -22.593,-3.547"
         id="path256" />
      <path
         style="fill:none;stroke:#000000;stroke-width:0.5"
         inkscape:connector-curvature="0"
         d="m 118.993,26.76 c 0,0 -17.272,-5.321 -25.674,-1.494"
         id="path258" />
      <path
         style="fill:none;stroke:#000000;stroke-width:0.5"
         inkscape:connector-curvature="0"
         d="m 121.514,30.401 c 0,0 -17.832,-8.963 -35.01,-0.84"
         id="path260" />
      <path
         style="fill:none;stroke:#000000;stroke-width:0.5"
         inkscape:connector-curvature="0"
         d="m 120.394,28.72 c 0,0 -21.66,-1.961 -31.463,0.934"
         id="path262" />
      <path
         style="fill:none;stroke:#000000;stroke-width:0.5"
         inkscape:connector-curvature="0"
         d="m 126.835,38.336 c 0,0 -22.874,-10.549 -44.72,-8.029"
         id="path264" />
      <path
         style="fill:none;stroke:#000000;stroke-width:0.5"
         inkscape:connector-curvature="0"
         d="m 123.008,32.642 c 0,0 -19.419,-5.415 -37.158,2.241"
         id="path266" />
      <path
         style="fill:none;stroke:#000000;stroke-width:0.5"
         inkscape:connector-curvature="0"
         d="m 124.501,34.976 c 0,0 -16.898,-3.455 -29.782,4.761"
         id="path268" />
      <path
         style="fill:none;stroke:#000000;stroke-width:0.5"
         inkscape:connector-curvature="0"
         d="m 125.996,36.936 c 0,0 -16.152,-0.373 -40.893,11.67"
         id="path270" />
      <path
         style="fill:none;stroke:#000000;stroke-width:0.5"
         inkscape:connector-curvature="0"
         d="m 132.157,46.459 c 0,0 -20.446,-8.029 -47.241,-3.641"
         id="path272" />
      <path
         style="fill:none;stroke:#000000;stroke-width:0.5"
         inkscape:connector-curvature="0"
         d="m 128.33,40.67 c 0,0 -21.753,-3.735 -38.278,6.535"
         id="path274" />
      <path
         style="fill:none;stroke:#000000;stroke-width:0.5"
         inkscape:connector-curvature="0"
         d="m 129.636,42.725 c 0,0 -17.645,-1.027 -40.519,5.508"
         id="path276" />
      <path
         style="fill:none;stroke:#000000;stroke-width:0.5"
         inkscape:connector-curvature="0"
         d="m 133.558,48.886 c 0,0 -13.724,-6.255 -39.398,4.201"
         id="path278" />
      <path
         style="fill:none;stroke:#000000;stroke-width:0.5"
         inkscape:connector-curvature="0"
         d="m 135.238,51.594 c 0,0 -10.083,-3.268 -32.957,9.616"
         id="path280" />
      <path
         style="fill:none;stroke:#000000;stroke-width:0.5"
         inkscape:connector-curvature="0"
         d="m 136.266,53.181 c 0,0 -19.046,-2.334 -45,17.271"
         id="path282" />
      <path
         style="fill:none;stroke:#000000;stroke-width:0.5"
         inkscape:connector-curvature="0"
         d="m 137.572,55.235 c 0,0 -10.55,-4.108 -41.079,13.444"
         id="path284" />
      <path
         style="fill:none;stroke:#000000;stroke-width:0.5"
         inkscape:connector-curvature="0"
         d="m 138.506,57.009 c 0,0 -3.454,-3.922 -38.091,10.456"
         id="path286" />
      <path
         style="fill:none;stroke:#000000;stroke-width:0.5"
         inkscape:connector-curvature="0"
         d="m 139.626,59.062 c 0,0 -1.681,-5.695 -27.728,7.002"
         id="path288" />
      <path
         style="fill:none;stroke:#000000;stroke-width:0.5"
         inkscape:connector-curvature="0"
         d="m 140.873,60.889 c 0,0 -5.075,-7.615 -32.896,14.698 -10.83,5.415 -34.263,8.123 -34.263,8.123"
         id="path290" />
      <path
         style="fill:none;stroke:#000000;stroke-width:0.5"
         inkscape:connector-curvature="0"
         d="m 141.493,62.33 c 0,0 -5.601,-3.734 -38.371,1.774"
         id="path292" />
      <path
         style="fill:none;stroke:#000000;stroke-width:0.5"
         inkscape:connector-curvature="0"
         d="m 142.613,64.571 c 0,0 -1.961,-4.854 -55.363,3.921"
         id="path294" />
      <path
         style="fill:none;stroke:#000000;stroke-width:0.5"
         inkscape:connector-curvature="0"
         d="m 143.361,66.345 c 0,0 -2.708,-5.415 -27.449,1.494 -24.741,6.909 -32.303,4.295 -32.303,4.295"
         id="path296" />
      <path
         style="fill:none;stroke:#000000;stroke-width:0.5"
         inkscape:connector-curvature="0"
         d="m 144.425,68.354 c 0,0 -4.667,-4.333 -22.083,0.333 -17.416,4.666 -26.833,7 -26.833,7"
         id="path298" />
      <path
         style="fill:none;stroke:#000000;stroke-width:0.5"
         inkscape:connector-curvature="0"
         d="m 145.175,69.937 c 0,0 -5.5,-3.833 -15.75,-1.083 -10.25,2.75 -23.167,1.083 -23.167,1.083"
         id="path300" />
      <path
         style="fill:none;stroke:#000000;stroke-width:0.5"
         inkscape:connector-curvature="0"
         d="m 145.925,71.854 c 0,0 -6.583,-6.25 -19.083,1.083 -12.5,7.333 -18.083,17.083 -18.083,17.083"
         id="path302" />
      <path
         style="fill:none;stroke:#000000;stroke-width:0.5"
         inkscape:connector-curvature="0"
         d="m 147.258,74.271 c 0,0 -1.666,-5 -37.333,-2.333"
         id="path304" />
      <path
         style="fill:none;stroke:#000000;stroke-width:0.5"
         inkscape:connector-curvature="0"
         d="m 147.842,76.021 c 0,0 -4.251,-10 -44.834,9.75"
         id="path306" />
      <path
         style="fill:none;stroke:#000000;stroke-width:0.5"
         inkscape:connector-curvature="0"
         d="m 148.508,77.854 c 0,0 -6.667,-4.167 -24,-4.167"
         id="path308" />
      <path
         style="fill:none;stroke:#000000;stroke-width:0.5"
         inkscape:connector-curvature="0"
         d="m 149.758,80.354 c 0,0 -1.166,-3.5 -32.917,-4.667"
         id="path310" />
      <path
         style="fill:none;stroke:#000000;stroke-width:0.5"
         inkscape:connector-curvature="0"
         d="m 150.342,82.187 c 0,0 -4.334,-6.25 -37,2.667"
         id="path312" />
      <path
         style="fill:none;stroke:#000000;stroke-width:0.5"
         inkscape:connector-curvature="0"
         d="m 151.258,84.187 c 0,0 -5.583,-4.667 -17.916,-1.667 -12.334,3 -26.251,5.833 -35.084,5.25"
         id="path314" />
      <path
         style="fill:none;stroke:#000000;stroke-width:0.5"
         inkscape:connector-curvature="0"
         d="m 152.258,86.437 c 0,0 -0.75,-3.583 -14.083,-2.583 -13.333,1 -16.333,1 -18.75,0.667"
         id="path316" />
      <path
         style="fill:none;stroke:#000000;stroke-width:0.5"
         inkscape:connector-curvature="0"
         d="m 152.842,88.354 c 0,0 -3.417,-3.833 -22,-1.5 -18.584,2.333 -20.25,0.583 -20.25,0.583"
         id="path318" />
      <path
         style="fill:none;stroke:#000000;stroke-width:0.5"
         inkscape:connector-curvature="0"
         d="m 153.675,90.521 c 0,0 -3.833,-3.75 -16.25,-1.917 -12.417,1.833 -35.167,1 -35.167,1"
         id="path320" />
      <path
         style="fill:none;stroke:#000000;stroke-width:0.5"
         inkscape:connector-curvature="0"
         d="m 154.425,92.604 c 0,0 -6.667,-6.25 -37.25,2.083"
         id="path322" />
      <path
         style="fill:none;stroke:#000000;stroke-width:0.5"
         inkscape:connector-curvature="0"
         d="m 155.092,94.687 c 0,0 2,-1.75 -15.75,-3.333 -17.75,-1.583 -21.5,-5 -21.5,-5"
         id="path324" />
      <path
         style="fill:none;stroke:#000000;stroke-width:0.5"
         inkscape:connector-curvature="0"
         d="m 155.925,97.021 c 0,0 -0.751,-4.75 -25.417,-4.417"
         id="path326" />
      <path
         style="fill:none;stroke:#000000;stroke-width:0.5"
         inkscape:connector-curvature="0"
         d="m 156.675,99.187 c 0,0 -4.083,-4 -13.333,-4 -9.25,0 -41.25,-8.917 -41.25,-8.917"
         id="path328" />
      <path
         style="fill:none;stroke:#000000;stroke-width:0.5"
         inkscape:connector-curvature="0"
         d="m 157.342,101.104 c 0,0 -6.334,-4.083 -16.917,-4.917 -10.583,-0.833 -22.334,-3.75 -24.917,-5.417"
         id="path330" />
      <path
         style="fill:none;stroke:#000000;stroke-width:0.5"
         inkscape:connector-curvature="0"
         d="m 158.175,103.604 c 0,0 -6.167,-4 -16.167,-4.5 -10,-0.5 -18.583,-3.084 -19.75,-3.667"
         id="path332" />
      <path
         style="fill:none;stroke:#000000;stroke-width:0.5"
         inkscape:connector-curvature="0"
         d="m 159.508,107.354 c 0,0 -13,-6.333 -25,-7.833 -12,-1.5 -18.25,-6.167 -20.583,-9"
         id="path334" />
      <path
         style="fill:none;stroke:#000000;stroke-width:0.5"
         inkscape:connector-curvature="0"
         d="m 160.175,109.687 c 0,0 -12.084,-7.417 -17.667,-9.667 -5.583,-2.25 -11.25,-5 -12.5,-6.083"
         id="path336" />
      <path
         style="fill:none;stroke:#000000;stroke-width:0.5"
         inkscape:connector-curvature="0"
         d="m 158.758,105.521 c 0,0 -7.5,0.5 -12.916,0.833 -5.417,0.333 -10.5,0.333 -11.25,0.25"
         id="path338" />
      <path
         style="fill:none;stroke:#000000;stroke-width:0.5"
         inkscape:connector-curvature="0"
         d="m 160.675,111.604 c 0,0 -11.333,-6.417 -15.583,-7.583 -4.25,-1.166 -18.834,-9.833 -20.084,-11"
         id="path340" />
      <path
         style="fill:none;stroke:#000000;stroke-width:0.5"
         inkscape:connector-curvature="0"
         d="m 161.258,113.271 c 0,0 -6.333,-3.333 -12.583,-4.417 -6.25,-1.084 -30.583,-6 -32.75,-6.5"
         id="path342" />
      <path
         style="fill:none;stroke:#000000;stroke-width:0.5"
         inkscape:connector-curvature="0"
         d="m 161.842,115.104 c 0,0 -6.834,-1.833 -12.917,-4.25 -6.083,-2.417 -23.667,-8.417 -26.917,-8.167"
         id="path344" />
      <path
         style="fill:none;stroke:#000000;stroke-width:0.5"
         inkscape:connector-curvature="0"
         d="m 162.425,117.354 c 0,0 -6.001,-3.5 -16.167,-5 -10.166,-1.5 -16.667,-5.583 -16.667,-5.583"
         id="path346" />
      <path
         style="fill:none;stroke:#000000;stroke-width:0.5"
         inkscape:connector-curvature="0"
         d="m 162.842,119.271 c 0,0 -6.584,-3.5 -14.667,-4.75 -8.083,-1.25 -27.333,-10.667 -27.333,-10.667"
         id="path348" />
      <path
         style="fill:none;stroke:#000000;stroke-width:0.5"
         inkscape:connector-curvature="0"
         d="m 163.508,121.104 c 0,0 -2.584,-2.083 -17.75,-6.25 -15.166,-4.167 -32.917,-16.833 -32.917,-16.833"
         id="path350" />
      <path
         style="fill:none;stroke:#000000;stroke-width:0.5"
         inkscape:connector-curvature="0"
         d="m 163.675,122.354 c 0,0 -0.167,-2 -17.917,-4.917 -17.75,-2.917 -28.583,-13.917 -28.583,-13.917"
         id="path352" />
      <path
         style="fill:none;stroke:#000000;stroke-width:0.5"
         inkscape:connector-curvature="0"
         d="m 164.175,124.104 c 0,0 -13.833,-6 -26.333,-9.333 -12.5,-3.333 -16.834,-9.25 -16.834,-9.25"
         id="path354" />
      <path
         style="fill:none;stroke:#000000;stroke-width:0.5"
         inkscape:connector-curvature="0"
         d="m 164.508,125.604 c 0,0 3.25,-1.667 -30.5,-7.583"
         id="path356" />
      <path
         style="fill:none;stroke:#000000;stroke-width:0.5"
         inkscape:connector-curvature="0"
         d="m 164.758,127.187 c 0,0 -8.084,-5.5 -18,-7.167 -9.916,-1.667 -9.083,-3.5 -10.416,-4.083"
         id="path358" />
      <path
         style="fill:none;stroke:#000000;stroke-width:0.5"
         inkscape:connector-curvature="0"
         d="m 165.008,128.854 c 0,0 -11.5,-8.333 -27.833,-9.25"
         id="path360" />
      <path
         style="fill:none;stroke:#000000;stroke-width:0.5"
         inkscape:connector-curvature="0"
         d="m 165.508,130.354 c 0,0 -0.584,-3.25 -13.25,-4.583 -12.666,-1.333 -21.583,-4.25 -21.583,-4.25"
         id="path362" />
      <path
         style="fill:none;stroke:#000000;stroke-width:0.5"
         inkscape:connector-curvature="0"
         d="m 165.758,131.271 c 0,0 -9,-3 -21.083,-4.5 -12.083,-1.5 -23.75,-12 -23.75,-12"
         id="path364" />
      <path
         style="fill:none;stroke:#000000;stroke-width:0.5"
         inkscape:connector-curvature="0"
         d="m 166.092,133.271 c 0,0 -10.084,-4.333 -20.5,-5.833 -10.417,-1.5 -26.583,-20 -28.667,-22.917"
         id="path366" />
      <path
         style="fill:none;stroke:#000000;stroke-width:0.5"
         inkscape:connector-curvature="0"
         d="m 166.342,134.687 c 0,0 -6.918,-3.333 -12.584,-3.583 -5.666,-0.25 -13.833,-2.917 -14.416,-3.25"
         id="path368" />
      <path
         style="fill:none;stroke:#000000;stroke-width:0.5"
         inkscape:connector-curvature="0"
         d="m 166.675,136.937 c 0,0 -6.833,-3.917 -16.5,-4 -9.667,-0.083 -20.5,-5.583 -21.583,-6.333"
         id="path370" />
      <path
         style="fill:none;stroke:#000000;stroke-width:0.5"
         inkscape:connector-curvature="0"
         d="m 166.342,135.437 c 0,0 -10.418,2 -18.834,1.25 -8.416,-0.75 -25.083,-7.083 -32.417,-12.667"
         id="path372" />
      <path
         style="fill:none;stroke:#000000;stroke-width:0.5"
         inkscape:connector-curvature="0"
         d="m 166.925,138.771 c 0,0 -8.75,-1.5 -15.5,-3.583 -6.75,-2.083 -14.25,-5.5 -15.583,-6.5"
         id="path374" />
      <path
         style="fill:none;stroke:#000000;stroke-width:0.5"
         inkscape:connector-curvature="0"
         d="m 160.675,127.937 c 1.667,3.417 6.5,14.25 6.5,14.25 0,0 -27.667,3.167 -32.083,-2 -4.417,-5.167 -8.667,-10.417 -9,-20.417"
         id="path376" />
      <path
         style="fill:none;stroke:#000000;stroke-width:0.5"
         inkscape:connector-curvature="0"
         d="m 167.508,143.771 c 0,0 -25,-48 -25.416,-48.667"
         id="path378" />
      <path
         style="fill:none;stroke:#000000;stroke-width:0.5"
         inkscape:connector-curvature="0"
         d="m 167.175,140.687 c 0,0 -19.167,-3.25 -25.667,-6.083 -6.5,-2.833 -15.333,-8.584 -17.333,-9.667"
         id="path380" />
      <path
         style="fill:none;stroke:#000000;stroke-width:0.5"
         inkscape:connector-curvature="0"
         d="m 167.592,144.354 c 0,0 -16.001,0.75 -23.334,-2 -7.333,-2.75 -27.833,-8.75 -29.667,-41.583"
         id="path382" />
      <path
         style="fill:none;stroke:#000000;stroke-width:0.5"
         inkscape:connector-curvature="0"
         d="m 109.779,13 c 0,0 -1.625,-5.938 -1.812,-7.75"
         id="path384" />
      <path
         style="fill:none;stroke:#000000;stroke-width:0.5"
         inkscape:connector-curvature="0"
         d="m 111.404,14.937 c 0,0 0.125,-9.312 0.125,-10.312"
         id="path386" />
      <path
         style="fill:none;stroke:#000000;stroke-width:0.5"
         inkscape:connector-curvature="0"
         d="m 114.216,18.187 c 0,0 -0.875,-13.188 0.375,-15.5"
         id="path388" />
      <path
         style="fill:none;stroke:#000000;stroke-width:0.5"
         inkscape:connector-curvature="0"
         d="m 115.529,20.062 c 0,0 0.688,-13.375 2.5,-16.625"
         id="path390" />
      <path
         style="fill:none;stroke:#000000;stroke-width:0.5"
         inkscape:connector-curvature="0"
         d="m 116.716,21.437 c 0,0 0.125,-9.75 3.188,-14.75"
         id="path392" />
      <path
         style="fill:none;stroke:#000000;stroke-width:0.5"
         inkscape:connector-curvature="0"
         d="m 119.216,24.687 c 0,0 0.688,-18.812 2.625,-22.875"
         id="path394" />
      <path
         style="fill:none;stroke:#000000;stroke-width:0.5"
         inkscape:connector-curvature="0"
         d="m 117.841,22.937 c 0,0 4.562,-16.75 7.562,-18.812"
         id="path396" />
      <path
         style="fill:none;stroke:#000000;stroke-width:0.5"
         inkscape:connector-curvature="0"
         d="m 120.591,26.562 c 0,0 0.188,-5.125 1.438,-9.062 1.25,-3.937 4.312,-14.188 4.75,-15.312"
         id="path398" />
      <path
         style="fill:none;stroke:#000000;stroke-width:0.5"
         inkscape:connector-curvature="0"
         d="m 122.216,28.937 c 0,0 -0.625,-3.5 1,-7.562 1.625,-4.062 5.562,-14.25 6.312,-15.312"
         id="path400" />
      <path
         style="fill:none;stroke:#000000;stroke-width:0.5"
         inkscape:connector-curvature="0"
         d="m 123.716,30.812 c 0,0 0,-4.5 1.062,-7.188 1.062,-2.688 7.875,-19.125 8.688,-19.812"
         id="path402" />
      <path
         style="fill:none;stroke:#000000;stroke-width:0.5"
         inkscape:connector-curvature="0"
         d="m 126.154,34.625 c 0,0 -1.5,-25.938 8.063,-34.438"
         id="path404" />
      <path
         style="fill:none;stroke:#000000;stroke-width:0.5"
         inkscape:connector-curvature="0"
         d="m 124.904,32.687 c 0,0 5.938,-19.25 18.438,-25.625"
         id="path406" />
      <path
         style="fill:none;stroke:#000000;stroke-width:0.5"
         inkscape:connector-curvature="0"
         d="m 127.841,37.187 c 0,0 1.875,-24.438 11.75,-30.625"
         id="path408" />
      <path
         style="fill:none;stroke:#000000;stroke-width:0.5"
         inkscape:connector-curvature="0"
         d="m 129.091,38.875 c 0,0 4.5,-21 10.188,-24.812"
         id="path410" />
      <path
         style="fill:none;stroke:#000000;stroke-width:0.5"
         inkscape:connector-curvature="0"
         d="m 130.529,41.125 c 0,0 -0.062,-3.438 1.25,-7.125 1.312,-3.687 8.062,-22.375 4,-32.25"
         id="path412" />
      <path
         style="fill:none;stroke:#000000;stroke-width:0.5"
         inkscape:connector-curvature="0"
         d="m 131.654,42.937 c 0,0 0.125,-3.562 1.062,-5.5 0.937,-1.938 3.875,-10.312 4.625,-13.312 0.75,-3 6.938,-10.562 7.625,-11.312"
         id="path414" />
      <path
         style="fill:none;stroke:#000000;stroke-width:0.5"
         inkscape:connector-curvature="0"
         d="m 133.092,45.187 c 0,0 1.062,-9.875 3.5,-12.875 C 139.03,29.312 150.842,8 150.842,8"
         id="path416" />
      <path
         style="fill:none;stroke:#000000;stroke-width:0.5"
         inkscape:connector-curvature="0"
         d="m 134.342,47.375 c 0,0 0.625,-5.5 1.438,-7.875 0.813,-2.375 12.75,-30.438 12.938,-31.25"
         id="path418" />
      <path
         style="fill:none;stroke:#000000;stroke-width:0.5"
         inkscape:connector-curvature="0"
         d="m 135.842,49.687 c 0,0 -0.188,-2.688 1.312,-4.812 1.5,-2.124 10.625,-18.5 12,-20.688"
         id="path420" />
      <path
         style="fill:none;stroke:#000000;stroke-width:0.5"
         inkscape:connector-curvature="0"
         d="m 136.967,51.75 c 0,0 -0.25,-2.938 2.125,-5.5 2.375,-2.562 14.062,-16.438 16.812,-26.375"
         id="path422" />
      <path
         style="fill:none;stroke:#000000;stroke-width:0.5"
         inkscape:connector-curvature="0"
         d="m 140.717,58.75 c 0,0 3.062,-21.562 6.375,-26.625"
         id="path424" />
      <path
         style="fill:none;stroke:#000000;stroke-width:0.5"
         inkscape:connector-curvature="0"
         d="m 138.154,53.75 c 0,0 0.562,-4 2.375,-5.75 1.813,-1.75 11.688,-13.062 12.625,-13.812"
         id="path426" />
      <path
         style="fill:none;stroke:#000000;stroke-width:0.5"
         inkscape:connector-curvature="0"
         d="m 139.154,55.5 c 0,0 -1,-3 4.625,-7.688 5.625,-4.688 12.562,-17.75 12.562,-18.062"
         id="path428" />
      <path
         style="fill:none;stroke:#000000;stroke-width:0.5"
         inkscape:connector-curvature="0"
         d="m 140.092,57.25 c 0,0 5.562,-6.625 7.312,-7.938 1.75,-1.313 6.562,-6.062 9.5,-6.625 2.938,-0.563 13.75,-3.688 15.312,-5.562"
         id="path430" />
      <path
         style="fill:none;stroke:#000000;stroke-width:0.5"
         inkscape:connector-curvature="0"
         d="m 142.217,61.125 c 0,0 0.062,-2.188 2.062,-4.5 2,-2.312 17.188,-14.938 15.938,-30"
         id="path432" />
      <path
         style="fill:none;stroke:#000000;stroke-width:0.5"
         inkscape:connector-curvature="0"
         d="m 143.154,62.937 c 0,0 0.75,-4 5.562,-8.062 4.812,-4.062 13.563,-12.438 15.626,-20.875"
         id="path434" />
      <path
         style="fill:none;stroke:#000000;stroke-width:0.5"
         inkscape:connector-curvature="0"
         d="m 143.967,64.75 c 0,0 1.625,-5.312 8.625,-11.062 7,-5.75 11.938,-12.75 12.562,-14.312"
         id="path436" />
      <path
         style="fill:none;stroke:#000000;stroke-width:0.5"
         inkscape:connector-curvature="0"
         d="m 144.779,66.312 c 0,0 0.062,-4.75 7.812,-9.25 7.75,-4.5 18.812,-22.25 20.438,-27.188"
         id="path438" />
      <path
         style="fill:none;stroke:#000000;stroke-width:0.5"
         inkscape:connector-curvature="0"
         d="m 145.717,67.937 c 0,0 3.125,-8.812 6.875,-12.188 3.75,-3.376 5.062,-22.188 3.312,-28.375"
         id="path440" />
      <path
         style="fill:none;stroke:#000000;stroke-width:0.5"
         inkscape:connector-curvature="0"
         d="m 146.457,69.757 c 0,0 1.224,-3.426 3.589,-6.606 2.365,-3.18 6.688,-11.581 6.524,-18.024"
         id="path442" />
      <path
         style="fill:none;stroke:#000000;stroke-width:0.5"
         inkscape:connector-curvature="0"
         d="m 147.273,71.388 c 0,0 -1.143,-2.121 3.751,-6.361 4.894,-4.24 13.212,-14.68 13.212,-14.68"
         id="path444" />
      <path
         style="fill:none;stroke:#000000;stroke-width:0.5"
         inkscape:connector-curvature="0"
         d="m 148.252,73.427 c 0,0 0.408,-3.833 3.752,-6.28 3.344,-2.447 20.553,-17.617 19.328,-31.481"
         id="path446" />
      <path
         style="fill:none;stroke:#000000;stroke-width:0.5"
         inkscape:connector-curvature="0"
         d="m 148.985,75.466 c 0,0 -0.896,-1.958 3.1,-4.894 3.996,-2.936 17.942,-10.031 11.173,-45.02"
         id="path448" />
      <path
         style="fill:none;stroke:#000000;stroke-width:0.5"
         inkscape:connector-curvature="0"
         d="m 149.965,77.502 c 0,0 3.67,-6.117 7.829,-9.216 4.159,-3.099 10.112,-9.706 10.112,-9.706"
         id="path450" />
      <path
         style="fill:none;stroke:#000000;stroke-width:0.5"
         inkscape:connector-curvature="0"
         d="m 150.861,79.786 c 0,0 1.713,-4.078 3.588,-5.464 1.877,-1.386 11.174,-9.135 12.969,-13.457 1.794,-4.322 5.301,-13.457 5.953,-14.028"
         id="path452" />
      <path
         style="fill:none;stroke:#000000;stroke-width:0.5"
         inkscape:connector-curvature="0"
         d="m 151.84,82.396 c 0,0 2.365,-6.117 5.873,-8.074 3.506,-1.958 17.371,-17.29 18.187,-19.084"
         id="path454" />
      <path
         style="fill:none;stroke:#000000;stroke-width:0.5"
         inkscape:connector-curvature="0"
         d="m 153.553,86.392 c 0,0 5.953,-17.208 13.131,-22.347"
         id="path456" />
      <path
         style="fill:none;stroke:#000000;stroke-width:0.5"
         inkscape:connector-curvature="0"
         d="m 152.737,84.517 c 0,0 0.081,-2.365 6.606,-4.486 6.524,-2.121 20.797,-15.414 17.371,-34.335"
         id="path458" />
      <path
         style="fill:none;stroke:#000000;stroke-width:0.5"
         inkscape:connector-curvature="0"
         d="m 154.368,88.594 c 0,0 9.379,-17.208 21.45,-30.992"
         id="path460" />
      <path
         style="fill:none;stroke:#000000;stroke-width:0.5"
         inkscape:connector-curvature="0"
         d="m 155.184,90.959 c 0,0 2.039,-5.791 4.241,-8.237 2.202,-2.446 15.333,-21.368 15.577,-23.325"
         id="path462" />
      <path
         style="fill:none;stroke:#000000;stroke-width:0.5"
         inkscape:connector-curvature="0"
         d="m 155.918,92.917 c 0,0 2.121,-6.28 5.627,-8.808 3.508,-2.528 13.132,-16.067 12.397,-28.219"
         id="path464" />
      <path
         style="fill:none;stroke:#000000;stroke-width:0.5"
         inkscape:connector-curvature="0"
         d="m 156.814,95.119 c 0,0 2.447,-6.525 6.77,-11.663 4.323,-5.138 12.152,-17.045 12.152,-24.957"
         id="path466" />
      <path
         style="fill:none;stroke:#000000;stroke-width:0.5"
         inkscape:connector-curvature="0"
         d="m 157.468,96.83 c 0,0 1.142,-5.545 5.546,-9.705 4.404,-4.16 16.882,-20.308 16.066,-37.19"
         id="path468" />
      <path
         style="fill:none;stroke:#000000;stroke-width:0.5"
         inkscape:connector-curvature="0"
         d="m 158.12,98.869 c 0,0 1.142,-3.67 5.302,-8.156 4.158,-4.485 10.194,-12.886 11.01,-14.925"
         id="path470" />
      <path
         style="fill:none;stroke:#000000;stroke-width:0.5"
         inkscape:connector-curvature="0"
         d="m 158.854,101.071 c 0,0 2.121,-4.894 4.242,-6.77 2.119,-1.875 8.236,-8.971 8.889,-9.542"
         id="path472" />
      <path
         style="fill:none;stroke:#000000;stroke-width:0.5"
         inkscape:connector-curvature="0"
         d="m 159.425,102.863 c 0,0 1.55,-3.507 3.181,-5.138 1.631,-1.631 8.727,-8.727 9.217,-9.053"
         id="path474" />
      <path
         style="fill:none;stroke:#000000;stroke-width:0.5"
         inkscape:connector-curvature="0"
         d="m 160.24,105.147 c 0,0 0.979,-4.241 4.078,-6.443 3.099,-2.202 5.219,-4.648 6.524,-5.709"
         id="path476" />
      <path
         style="fill:none;stroke:#000000;stroke-width:0.5"
         inkscape:connector-curvature="0"
         d="m 160.812,107.022 c 0,0 1.958,-4.893 4.812,-7.177 2.855,-2.284 7.667,-6.688 8.238,-7.585"
         id="path478" />
      <path
         style="fill:none;stroke:#000000;stroke-width:0.5"
         inkscape:connector-curvature="0"
         d="m 161.464,108.491 c 0,0 7.259,-9.788 10.603,-11.745"
         id="path480" />
      <path
         style="fill:none;stroke:#000000;stroke-width:0.5"
         inkscape:connector-curvature="0"
         d="m 162.116,110.692 c 0,0 4.73,-9.786 12.968,-13.293"
         id="path482" />
      <path
         style="fill:none;stroke:#000000;stroke-width:0.5"
         inkscape:connector-curvature="0"
         d="m 162.442,112.568 c 0,0 10.603,-7.585 14.272,-24.467"
         id="path484" />
      <path
         style="fill:none;stroke:#000000;stroke-width:0.5"
         inkscape:connector-curvature="0"
         d="m 163.258,114.363 c 0,0 6.934,-7.422 11.337,-12.071"
         id="path486" />
      <path
         style="fill:none;stroke:#000000;stroke-width:0.5"
         inkscape:connector-curvature="0"
         d="m 163.748,116.32 c 0,0 5.138,-9.542 10.439,-12.642"
         id="path488" />
      <path
         style="fill:none;stroke:#000000;stroke-width:0.5"
         inkscape:connector-curvature="0"
         d="m 164.236,118.033 c 0,0 5.302,-8.481 11.418,-12.07"
         id="path490" />
      <path
         style="fill:none;stroke:#000000;stroke-width:0.5"
         inkscape:connector-curvature="0"
         d="m 164.645,119.419 c 0,0 11.989,-10.195 12.968,-11.908"
         id="path492" />
      <path
         style="fill:none;stroke:#000000;stroke-width:0.5"
         inkscape:connector-curvature="0"
         d="m 165.215,121.295 c 0,0 7.666,-12.07 11.011,-14.517"
         id="path494" />
      <path
         style="fill:none;stroke:#000000;stroke-width:0.5"
         inkscape:connector-curvature="0"
         d="m 165.541,122.6 c 0,0 8.646,-11.255 12.643,-13.539"
         id="path496" />
      <path
         style="fill:none;stroke:#000000;stroke-width:0.5"
         inkscape:connector-curvature="0"
         d="m 165.949,123.987 c 0,0 8.646,-9.625 10.93,-11.337"
         id="path498" />
      <path
         style="fill:none;stroke:#000000;stroke-width:0.5"
         inkscape:connector-curvature="0"
         d="m 166.275,125.455 c 0,0 10.357,-10.602 12.152,-11.744"
         id="path500" />
      <path
         style="fill:none;stroke:#000000;stroke-width:0.5"
         inkscape:connector-curvature="0"
         d="m 166.766,127.331 c 0,0 0.407,-2.691 5.953,-5.791"
         id="path502" />
      <path
         style="fill:none;stroke:#000000;stroke-width:0.5"
         inkscape:connector-curvature="0"
         d="m 166.928,128.309 c 0,0 1.713,-4.567 8.891,-6.443"
         id="path504" />
      <path
         style="fill:none;stroke:#000000;stroke-width:0.5"
         inkscape:connector-curvature="0"
         d="m 167.254,129.533 c 0,0 1.877,-5.138 10.848,-6.851"
         id="path506" />
      <path
         style="fill:none;stroke:#000000;stroke-width:0.5"
         inkscape:connector-curvature="0"
         d="m 167.58,131.49 c 0,0 3.1,-9.542 8.238,-12.233"
         id="path508" />
      <path
         style="fill:none;stroke:#000000;stroke-width:0.5"
         inkscape:connector-curvature="0"
         d="m 167.825,133.447 c 0,0 7.667,-15.006 10.439,-16.964"
         id="path510" />
      <path
         style="fill:none;stroke:#000000;stroke-width:0.5"
         inkscape:connector-curvature="0"
         d="m 167.254,130.674 c 0,0 7.096,-5.709 13.295,-6.933"
         id="path512" />
      <path
         style="fill:none;stroke:#000000;stroke-width:0.5"
         inkscape:connector-curvature="0"
         d="m 168.396,135.649 c 0,0 6.279,-10.684 11.5,-13.865"
         id="path514" />
      <path
         style="fill:none;stroke:#000000;stroke-width:0.5"
         inkscape:connector-curvature="0"
         d="m 168.07,134.1 c 0,0 3.344,-7.992 11.5,-9.297"
         id="path516" />
      <path
         style="fill:none;stroke:#000000;stroke-width:0.5"
         inkscape:connector-curvature="0"
         d="m 168.886,138.993 c 0,0 3.751,-7.014 9.786,-7.422"
         id="path518" />
      <path
         style="fill:none;stroke:#000000;stroke-width:0.5"
         inkscape:connector-curvature="0"
         d="m 169.131,140.625 c 0,0 1.141,-5.22 9.297,-5.791"
         id="path520" />
      <path
         style="fill:none;stroke:#000000;stroke-width:0.5"
         inkscape:connector-curvature="0"
         d="m 168.479,137.036 c 0,0 9.459,-10.684 10.438,-13.702"
         id="path522" />
      <path
         style="fill:none;stroke:#000000;stroke-width:0.5"
         inkscape:connector-curvature="0"
         d="m 169.212,141.848 c 0,0 10.684,-17.861 12.56,-19.492"
         id="path524" />
      <path
         style="fill:none;stroke:#000000;stroke-width:0.5"
         inkscape:connector-curvature="0"
         d="m 168.886,141.114 c 0,0 8.972,-4.649 11.173,-7.585"
         id="path526" />
      <path
         style="fill:none;stroke:#000000;stroke-width:0.5"
         inkscape:connector-curvature="0"
         d="m 169.375,143.234 c 0,0 4.322,-3.507 8.156,-3.344"
         id="path528" />
    </g>
  </g>
</svg>
